SplineFontDB: 3.0
FontName: Coda-Heavy
FullName: Coda Heavy
FamilyName: Coda
Weight: Heavy
Copyright: Copyright (c) 2009-12 by vernon adams.
Version: 2.000
ItalicAngle: 0
UnderlinePosition: -103
UnderlineWidth: 102
Ascent: 1638
Descent: 410
UFOAscent: 1638
UFODescent: -410
LayerCount: 2
Layer: 0 0 "Back"  1
Layer: 1 0 "Fore"  0
NeedsXUIDChange: 1
FSType: 256
OS2Version: 0
OS2_WeightWidthSlopeOnly: 0
OS2_UseTypoMetrics: 0
CreationTime: 1333553690
ModificationTime: 1333555700
PfmFamily: 0
TTFWeight: 800
TTFWidth: 5
LineGap: 0
VLineGap: 0
Panose: 2 0 5 5 2 0 0 2 0 4
OS2TypoAscent: 2124
OS2TypoAOffset: 0
OS2TypoDescent: -691
OS2TypoDOffset: 0
OS2TypoLinegap: 0
OS2WinAscent: 2124
OS2WinAOffset: 0
OS2WinDescent: 691
OS2WinDOffset: 0
HheadAscent: 0
HheadAOffset: 1
HheadDescent: 0
HheadDOffset: 1
OS2SubXSize: 1331
OS2SubYSize: 1228
OS2SubXOff: 0
OS2SubYOff: 153
OS2SupXSize: 1331
OS2SupYSize: 1228
OS2SupXOff: 0
OS2SupYOff: 716
OS2StrikeYSize: 102
OS2StrikeYPos: 660
OS2Vendor: 'newt'
OS2CodePages: 20000093.00000000
OS2UnicodeRanges: 00000007.00000000.00000000.00000000
Lookup: 258 0 0 "'kern' Horizontal Kerning in Latin lookup 0"  {"'kern' Horizontal Kerning in Latin lookup 0 subtable" [307,30,0] "'kern' Horizontal Kerning lookup 2 kerning class 1" [307,0,0] } ['kern' ('DFLT' <'dflt' > 'latn' <'dflt' > ) ]
MarkAttachClasses: 1
DEI: 91125
KernClass2: 27 22 "'kern' Horizontal Kerning lookup 2 kerning class 1" 
 81 A Aacute Abreve Acircumflex Adieresis Agrave Amacron Aogonek Aring Atilde uni0202
 1 B
 75 D Eth O Oacute Ocircumflex Odieresis Ograve Oslash Otilde Q uni020C uni020E
 1 F
 1 J
 1 K
 1 L
 1 P
 44 R Racute Rcaron Rcommaaccent uni0210 uni0212
 22 T Tcommaaccent uni021A
 45 U Uacute Ucircumflex Udieresis Ugrave uni0216
 1 V
 1 W
 18 Y Yacute Ydieresis
 69 b o oacute ocircumflex odieresis ograve oslash otilde p thorn uni020F
 1 c
 1 e
 1 f
 24 h hbar m n nacute ntilde
 27 k kcommaaccent kgreenlandic
 29 r rcaron rcommaaccent uni0213
 22 t tcommaaccent uni021B
 1 v
 1 w

StartChar: A
Encoding: 55 65 1
Width: 1550
VWidth: 0
GlyphClass: 2
Flags: HW
PickledData: "(dp1
S'com.fontlab.hintData'
p2
(dp3
S'vhints'
p4
((dp5
S'position'
p6
I36
sS'width'
p7
I1496
stp8
sS'hhints'
p9
((dp10
g6
I0
sg7
I21
s(dp11
g6
I366
sg7
I210
s(dp12
g6
I1283
sg7
I312
stp13
ssS'com.typemytype.robofont.layerData'
p14
(dp15
s."
HStem: 0 21<27 613 27 27 936 936 936 1523> 366 210<668 864 686 864 686 882> 1283 312<763 782 763 763>
VStem: 36 1496
LayerCount: 2
Fore
SplineSet
782 1283 m 1
 763 1283 l 1
 686 576 l 1
 864 576 l 1
 782 1283 l 1
668 366 m 1
 613 0 l 1
 27 0 l 1
 319 1595 l 1
 1226 1595 l 1
 1523 0 l 1
 936 0 l 1
 882 366 l 1
 668 366 l 1
EndSplineSet
EndChar

StartChar: AE
Encoding: 155 198 2
Width: 2011
VWidth: 0
GlyphClass: 2
Flags: HW
PickledData: "(dp1
S'com.fontlab.hintData'
p2
(dp3
S'vhints'
p4
((dp5
S'position'
p6
I987
sS'width'
p7
I151
stp8
sS'hhints'
p9
((dp10
g6
I0
sg7
I244
s(dp11
g6
I348
sg7
I230
s(dp12
g6
I711
sg7
I250
s(dp13
g6
I1354
sg7
I241
stp14
ss."
HStem: 0 244<1605 1946 1605 1946> 348 230<847 987 847 987 774 987> 711 250<1605 1923 1605 1923> 1354 241<1605 1946 1605 1605>
VStem: 987 151
LayerCount: 2
Fore
SplineSet
847 578 m 1
 987 578 l 1
 987 1001 l 1
 847 578 l 1
1946 1595 m 1
 1946 1354 l 1
 1605 1354 l 1
 1605 961 l 1
 1923 961 l 1
 1923 711 l 1
 1605 711 l 1
 1605 244 l 1
 1946 244 l 1
 1946 0 l 1
 987 0 l 1
 987 348 l 1
 774 348 l 1
 663 0 l 1
 38 0 l 1
 673 1595 l 1
 1946 1595 l 1
EndSplineSet
EndChar

StartChar: B
Encoding: 56 66 12
Width: 1514
VWidth: 0
GlyphClass: 2
Flags: HW
PickledData: "(dp1
S'com.fontlab.hintData'
p2
(dp3
S'vhints'
p4
((dp5
S'position'
p6
I882
sS'width'
p7
I229
stp8
sS'hhints'
p9
((dp10
g6
I0
sg7
I235
s(dp11
g6
I770
sg7
I181
s(dp12
g6
I1358
sg7
I237
stp13
ssS'com.typemytype.robofont.layerData'
p14
(dp15
s."
HStem: 0 235<696 869 696 935> 770 181<696 869 696 869> 1358 237<696 869 696 696>
VStem: 882 229
LayerCount: 2
Fore
SplineSet
696 951 m 1
 869 951 l 1
 869 1358 l 1
 696 1358 l 1
 696 951 l 1
696 235 m 1
 869 235 l 1
 869 770 l 1
 696 770 l 1
 696 235 l 1
1098 873 m 1
 1098 860 l 1
 1408 824 1478 647 1478 460 c 0
 1478 91 1324 0 935 0 c 2
 92 0 l 1
 92 1595 l 1
 939 1595 l 2
 1199 1595 1437 1551 1437 1219 c 0
 1437 1019 1363 901 1098 873 c 1
EndSplineSet
EndChar

StartChar: C
Encoding: 57 67 13
Width: 1519
VWidth: 0
GlyphClass: 2
Flags: HW
PickledData: "(dp1
S'com.fontlab.hintData'
p2
(dp3
S'vhints'
p4
((dp5
S'position'
p6
I90
sS'width'
p7
I1382
stp8
sS'hhints'
p9
((dp10
g6
I-40
sg7
I273
s(dp11
g6
I1356
sg7
I276
stp12
ssS'com.typemytype.robofont.layerData'
p13
(dp14
s."
HStem: -40 273<685 858 685 928> 1356 276
VStem: 90 1382
LayerCount: 2
Fore
SplineSet
858 1356 m 1
 685 1356 l 1
 685 233 l 1
 858 233 l 1
 858 614 l 1
 1462 614 l 1
 1462 369 l 2
 1462 -6 1080 -40 776 -40 c 0
 501 -40 80 -9 80 370 c 2
 80 1226 l 2
 80 1598 473 1636 773 1636 c 0
 1088 1636 1462 1606 1462 1227 c 2
 1462 979 l 1
 858 979 l 1
 858 1356 l 1
EndSplineSet
EndChar

StartChar: D
Encoding: 58 68 19
Width: 1554
VWidth: 0
GlyphClass: 2
Flags: HW
PickledData: "(dp1
S'com.fontlab.hintData'
p2
(dp3
S'vhints'
p4
((dp5
S'position'
p6
I103
sS'width'
p7
I1382
stp8
sS'hhints'
p9
((dp10
g6
I0
sg7
I235
s(dp11
g6
I1358
sg7
I237
stp12
ssS'com.typemytype.robofont.layerData'
p13
(dp14
s."
HStem: 0 235<697 848> 1358 237<697 848 848 870 697 697>
VStem: 103 1382
LayerCount: 2
Fore
SplineSet
1474 1204 m 2
 1474 393 l 2
 1474 26 1159 0 848 0 c 2
 92 0 l 1
 92 1595 l 1
 848 1595 l 2
 1164 1595 1474 1559 1474 1204 c 2
697 235 m 1
 870 235 l 1
 870 1358 l 1
 697 1358 l 1
 697 235 l 1
EndSplineSet
EndChar

StartChar: Dcroat
Encoding: 229 272 21
Width: 1449
VWidth: 0
GlyphClass: 2
Flags: HW
PickledData: "(dp1
S'com.fontlab.hintData'
p2
(dp3
S'vhints'
p4
((dp5
S'position'
p6
I52
sS'width'
p7
I1326
stp8
sS'hhints'
p9
((dp10
g6
I0
sg7
I237
s(dp11
g6
I726
sg7
I142
s(dp12
g6
I1358
sg7
I237
stp13
ss."
HStem: 0 237<645 817> 726 142<52 773 52 773> 1358 237<645 817 817 881 645 645>
VStem: 52 1326<726 868 868 868>
LayerCount: 2
Fore
SplineSet
645 237 m 1
 881 237 l 1
 881 1358 l 1
 645 1358 l 1
 645 868 l 1
 773 868 l 1
 773 726 l 1
 645 726 l 1
 645 237 l 1
1378 393 m 1
 1376 392 l 1
 1376 218 1331 125 1210 66 c 0
 1110 17 980 0 817 0 c 2
 146 0 l 1
 146 726 l 1
 52 726 l 1
 52 868 l 1
 146 868 l 1
 146 1595 l 1
 817 1595 l 2
 1100 1595 1360 1546 1375 1289 c 0
 1377 1259 1378 1231 1378 1204 c 2
 1378 393 l 1
EndSplineSet
EndChar

StartChar: E
Encoding: 59 69 22
Width: 1096
VWidth: 0
GlyphClass: 2
Flags: HW
PickledData: "(dp1
S'com.fontlab.hintData'
p2
(dp3
S'vhints'
p4
((dp5
S'position'
p6
I104
sS'width'
p7
I945
stp8
sS'hhints'
p9
((dp10
g6
I0
sg7
I251
s(dp11
g6
I711
sg7
I250
s(dp12
g6
I1346
sg7
I249
stp13
ssS'com.typemytype.robofont.layerData'
p14
(dp15
s."
HStem: 0 251<696 1037 696 1037> 711 250<696 1014 696 1014> 1346 249<696 1037 696 696>
VStem: 104 945
LayerCount: 2
Fore
SplineSet
1037 1595 m 1
 1037 1346 l 1
 696 1346 l 1
 696 961 l 1
 1014 961 l 1
 1014 711 l 1
 696 711 l 1
 696 251 l 1
 1037 251 l 1
 1037 0 l 1
 92 0 l 1
 92 1595 l 1
 1037 1595 l 1
EndSplineSet
EndChar

StartChar: Eth
Encoding: 165 208 31
Width: 1449
VWidth: 0
GlyphClass: 2
Flags: HW
PickledData: "(dp1
S'com.fontlab.hintData'
p2
(dp3
S'vhints'
p4
((dp5
S'position'
p6
I52
sS'width'
p7
I1326
stp8
sS'hhints'
p9
((dp10
g6
I0
sg7
I237
s(dp11
g6
I726
sg7
I142
s(dp12
g6
I1358
sg7
I237
stp13
ss."
HStem: 0 237<645 817> 726 142<52 773 52 773> 1358 237<645 817 817 881 645 645>
VStem: 52 1326<726 868 868 868>
LayerCount: 2
Fore
SplineSet
645 237 m 1
 881 237 l 1
 881 1358 l 1
 645 1358 l 1
 645 868 l 1
 773 868 l 1
 773 726 l 1
 645 726 l 1
 645 237 l 1
1378 393 m 1
 1376 392 l 1
 1376 218 1331 125 1210 66 c 0
 1110 17 980 0 817 0 c 2
 146 0 l 1
 146 726 l 1
 52 726 l 1
 52 868 l 1
 146 868 l 1
 146 1595 l 1
 817 1595 l 2
 1100 1595 1360 1546 1375 1289 c 0
 1377 1259 1378 1231 1378 1204 c 2
 1378 393 l 1
EndSplineSet
EndChar

StartChar: Euro
Encoding: 399 8364 32
Width: 1432
VWidth: 0
GlyphClass: 2
Flags: HW
PickledData: "(dp1
S'com.fontlab.hintData'
p2
(dp3
S'vhints'
p4
((dp5
S'position'
p6
I868
sS'width'
p7
I169
stp8
sS'hhints'
p9
((dp10
g6
I-40
sg7
I273
s(dp11
g6
I561
sg7
I145
s(dp12
g6
I843
sg7
I145
s(dp13
g6
I1356
sg7
I276
stp14
ss."
HStem: -40 273<695 868 695 938> 561 145<695 1037 695 1037> 843 145<695 1037 695 1037> 1356 276<695 868 695 695>
VStem: 868 169<233 706 451 706>
LayerCount: 2
Fore
SplineSet
0 705 m 1
 90 705 l 1
 90 843 l 1
 0 843 l 1
 0 987 l 1
 90 987 l 1
 90 1226 l 2
 90 1598 483 1632 783 1632 c 0
 1098 1632 1472 1606 1472 1227 c 2
 1472 1139 l 1
 868 1139 l 1
 868 1356 l 1
 695 1356 l 1
 695 988 l 1
 1037 988 l 1
 1037 843 l 1
 695 843 l 1
 695 706 l 1
 1037 706 l 1
 1037 561 l 1
 695 561 l 1
 695 233 l 1
 868 233 l 1
 868 451 l 1
 1472 451 l 1
 1472 369 l 2
 1472 -6 1090 -40 786 -40 c 0
 511 -40 90 -9 90 370 c 2
 90 561 l 1
 0 561 l 1
 0 705 l 1
EndSplineSet
EndChar

StartChar: F
Encoding: 60 70 33
Width: 1080
VWidth: 0
GlyphClass: 2
Flags: HW
PickledData: "(dp1
S'com.fontlab.hintData'
p2
(dp3
S'vhints'
p4
((dp5
S'position'
p6
I104
sS'width'
p7
I945
stp8
sS'hhints'
p9
((dp10
g6
I0
sg7
I21
s(dp11
g6
I705
sg7
I249
s(dp12
g6
I1346
sg7
I249
stp13
ssS'com.typemytype.robofont.layerData'
p14
(dp15
s."
HStem: 0 21<92 696 92 92> 705 249<696 1014 696 1014> 1346 249<696 1037 696 696>
VStem: 104 945
LayerCount: 2
Fore
SplineSet
1037 1595 m 1
 1037 1346 l 1
 696 1346 l 1
 696 954 l 1
 1014 954 l 1
 1014 705 l 1
 696 705 l 1
 696 0 l 1
 92 0 l 1
 92 1595 l 1
 1037 1595 l 1
EndSplineSet
EndChar

StartChar: G
Encoding: 61 71 34
Width: 1540
VWidth: 0
GlyphClass: 2
Flags: HW
PickledData: "(dp1
S'com.fontlab.hintData'
p2
(dp3
S'vhints'
p4
((dp5
S'position'
p6
I90
sS'width'
p7
I1382
stp8
sS'hhints'
p9
((dp10
g6
I-39
sg7
I274
s(dp11
g6
I0
sg7
I235
s(dp12
g6
I538
sg7
I231
s(dp13
g6
I1358
sg7
I274
stp14
ssS'com.typemytype.robofont.layerData'
p15
(dp16
s."
HStem: -39 274<422 857> 0 235<684 1462 684 975> 538 231<772 857 772 1462> 1358 274
VStem: 90 1382
LayerCount: 2
Fore
SplineSet
901 124 m 1
 839 23 724 -39 550 -39 c 0
 294 -39 80 83 80 359 c 2
 80 1228 l 2
 80 1602 469 1636 772 1636 c 0
 1036 1636 1462 1593 1462 1227 c 2
 1462 979 l 1
 857 979 l 1
 857 1358 l 1
 684 1358 l 1
 684 235 l 1
 857 235 l 1
 857 538 l 1
 772 538 l 1
 772 769 l 1
 1462 769 l 1
 1462 0 l 1
 975 0 l 1
 901 124 l 1
EndSplineSet
EndChar

StartChar: H
Encoding: 62 72 39
Width: 1585
VWidth: 0
GlyphClass: 2
Flags: HW
PickledData: "(dp1
S'com.fontlab.hintData'
p2
(dp3
S'vhints'
p4
((dp5
S'position'
p6
I104
sS'width'
p7
I1401
stp8
sS'hhints'
p9
((dp10
g6
I0
sg7
I21
s(dp11
g6
I688
sg7
I220
s(dp12
g6
I1575
sg7
I20
stp13
ssS'com.typemytype.robofont.layerData'
p14
(dp15
s."
HStem: 0 21<92 696 92 92 889 1493 889 889> 688 220<696 889 696 889> 1575 20<92 696 696 696 889 1493 1493 1493>
VStem: 104 1401
LayerCount: 2
Fore
SplineSet
1493 1595 m 1
 1493 0 l 1
 889 0 l 1
 889 688 l 1
 696 688 l 1
 696 0 l 1
 92 0 l 1
 92 1595 l 1
 696 1595 l 1
 696 908 l 1
 889 908 l 1
 889 1595 l 1
 1493 1595 l 1
EndSplineSet
EndChar

StartChar: Hbar
Encoding: 249 294 40
Width: 1703
VWidth: 0
GlyphClass: 2
Flags: HW
PickledData: "(dp1
S'com.fontlab.hintData'
p2
(dp3
S'vhints'
p4
((dp5
S'position'
p6
I54
sS'width'
p7
I1605
stp8
sS'hhints'
p9
((dp10
g6
I0
sg7
I21
s(dp11
g6
I688
sg7
I250
s(dp12
g6
I1158
sg7
I191
s(dp13
g6
I1158
sg7
I437
stp14
ss."
HStem: 0 21<151 755 151 151 948 1553 948 948> 688 250<755 948 755 948> 1158 191<54 1659 54 1659> 1158 437<151 755 948 1553 54 755>
VStem: 54 1605<1158 1349 1158 1349>
LayerCount: 2
Fore
SplineSet
755 1158 m 1
 755 938 l 1
 948 938 l 1
 948 1158 l 1
 755 1158 l 1
1659 1349 m 1
 1659 1158 l 1
 1553 1158 l 1
 1553 0 l 1
 948 0 l 1
 948 688 l 1
 755 688 l 1
 755 0 l 1
 151 0 l 1
 151 1158 l 1
 54 1158 l 1
 54 1349 l 1
 151 1349 l 1
 151 1595 l 1
 755 1595 l 1
 755 1349 l 1
 948 1349 l 1
 948 1595 l 1
 1553 1595 l 1
 1553 1349 l 1
 1659 1349 l 1
EndSplineSet
EndChar

StartChar: I
Encoding: 63 73 42
Width: 788
VWidth: 0
GlyphClass: 2
Flags: HW
PickledData: "(dp1
S'com.fontlab.hintData'
p2
(dp3
S'vhints'
p4
((dp5
S'position'
p6
I104
sS'width'
p7
I604
stp8
sS'hhints'
p9
((dp10
g6
I0
sg7
I21
s(dp11
g6
I1575
sg7
I20
stp12
ssS'com.typemytype.robofont.layerData'
p13
(dp14
s."
HStem: 0 21<92 696 92 92> 1575 20<92 696 696 696>
VStem: 104 604
LayerCount: 2
Fore
SplineSet
696 1595 m 1
 696 0 l 1
 92 0 l 1
 92 1595 l 1
 696 1595 l 1
EndSplineSet
EndChar

StartChar: IJ
Encoding: 261 306 43
Width: 1667
VWidth: 0
GlyphClass: 2
Flags: HW
PickledData: "(dp1
S'com.fontlab.hintData'
p2
(dp3
S'vhints'
p4
((dp5
S'position'
p6
I116
sS'width'
p7
I1480
stp8
sS'hhints'
p9
((dp10
g6
I-75
sg7
I273
s(dp11
g6
I0
sg7
I198
s(dp12
g6
I1574
sg7
I20
s(dp13
g6
I1575
sg7
I20
stp14
ss."
HStem: -75 273<916 992 819 1092> 0 198<116 992> 1574 20<992 1596 1596 1596> 1575 20<116 720 720 720>
VStem: 116 1480<162 334 334 1594 162 1595 162 1595>
LayerCount: 2
Fore
SplineSet
1596 334 m 2
 1596 -10 1268 -75 916 -75 c 1
 916 -76 l 1
 882 -76 851 -75 819 -74 c 1
 819 198 l 1
 992 198 l 1
 992 1594 l 1
 1596 1594 l 1
 1596 334 l 2
720 1595 m 1
 720 0 l 1
 116 0 l 1
 116 1595 l 1
 720 1595 l 1
EndSplineSet
EndChar

StartChar: J
Encoding: 64 74 53
Width: 923
VWidth: 0
GlyphClass: 2
Flags: HW
PickledData: "(dp1
S'com.fontlab.hintData'
p2
(dp3
S'vhints'
p4
((dp5
S'position'
p6
I54
sS'width'
p7
I777
stp8
sS'hhints'
p9
((dp10
g6
I-159
sg7
I297
s(dp11
g6
I1574
sg7
I20
stp12
ssS'com.typemytype.robofont.layerData'
p13
(dp14
s."
HStem: -159 297<54 457> 1574 20<227 831 831 831>
VStem: 54 777<115 138 138 138>
LayerCount: 2
Fore
SplineSet
831 1594 m 1
 831 274 l 2
 831 -44 604 -159 310 -159 c 0
 229 -159 142 -150 54 -134 c 1
 54 138 l 1
 227 138 l 1
 227 1594 l 1
 831 1594 l 1
EndSplineSet
EndChar

StartChar: K
Encoding: 65 75 55
Width: 1667
VWidth: 0
GlyphClass: 2
Flags: HW
PickledData: "(dp1
S'com.fontlab.hintData'
p2
(dp3
S'vhints'
p4
((dp5
S'position'
p6
I104
sS'width'
p7
I1558
stp8
sS'hhints'
p9
((dp10
g6
I0
sg7
I21
s(dp11
g6
I1575
sg7
I20
stp12
ssS'com.typemytype.robofont.layerData'
p13
(dp14
s."
HStem: 0 21<92 697 697 697 1008 1657 1657 1657> 1575 20<92 697 92 92 990 1609 990 990>
VStem: 104 1558
LayerCount: 2
Fore
SplineSet
1657 0 m 1
 1284 840 l 1
 1609 1595 l 1
 990 1595 l 1
 695 829 l 1
 697 1013 l 1
 697 1595 l 1
 92 1595 l 1
 92 0 l 1
 697 0 l 1
 697 564 l 1
 756 695 l 1
 1008 0 l 1
 1657 0 l 1
EndSplineSet
EndChar

StartChar: L
Encoding: 66 76 57
Width: 1072
VWidth: 0
GlyphClass: 2
Flags: HW
PickledData: "(dp1
S'com.fontlab.hintData'
p2
(dp3
S'vhints'
p4
((dp5
S'position'
p6
I104
sS'width'
p7
I945
stp8
sS'hhints'
p9
((dp10
g6
I0
sg7
I241
s(dp11
g6
I1575
sg7
I20
stp12
ssS'com.typemytype.robofont.layerData'
p13
(dp14
s."
HStem: 0 241<696 1037 696 1037> 1575 20<92 696 696 696>
VStem: 104 945
LayerCount: 2
Fore
SplineSet
92 0 m 1
 92 1595 l 1
 696 1595 l 1
 696 241 l 1
 1037 241 l 1
 1037 0 l 1
 92 0 l 1
EndSplineSet
EndChar

StartChar: Lslash
Encoding: 276 321 62
Width: 1534
VWidth: 0
GlyphClass: 2
Flags: HW
PickledData: "(dp1
S'com.fontlab.hintData'
p2
(dp3
S'vhints'
p4
((dp5
S'position'
p6
I72
sS'width'
p7
I1250
stp8
sS'hhints'
p9
((dp10
g6
I0
sg7
I241
s(dp11
g6
I1575
sg7
I20
stp12
ss."
HStem: 0 241<981 1322 981 1322> 1575 20<377 981 981 981>
VStem: 72 1250<0 750 0 750>
LayerCount: 2
Fore
SplineSet
377 911 m 1
 377 1595 l 1
 981 1595 l 1
 981 1231 l 1
 1320 1410 l 1
 1320 1072 l 1
 981 892 l 1
 981 241 l 1
 1322 241 l 1
 1322 0 l 1
 377 0 l 1
 377 572 l 1
 72 410 l 1
 72 750 l 1
 377 911 l 1
EndSplineSet
EndChar

StartChar: M
Encoding: 67 77 63
Width: 1904
VWidth: 0
GlyphClass: 2
Flags: HW
PickledData: "(dp1
S'com.fontlab.hintData'
p2
(dp3
S'vhints'
p4
((dp5
S'position'
p6
I76
sS'width'
p7
I1776
stp8
sS'hhints'
p9
((dp10
g6
I0
sg7
I21
s(dp11
g6
I1575
sg7
I20
stp12
ssS'com.typemytype.robofont.layerData'
p13
(dp14
s."
HStem: 0 21<64 525 64 64 1394 1394 1394 1840> 1575 20<148 818 818 818 1085 1756 1756 1756>
VStem: 76 1776
LayerCount: 2
Fore
SplineSet
1324 958 m 1
 1167 -1 l 1
 740 -1 l 1
 595 958 l 1
 581 958 l 1
 525 0 l 1
 64 0 l 1
 148 1595 l 1
 818 1595 l 1
 945 671 l 1
 958 671 l 1
 1085 1595 l 1
 1756 1595 l 1
 1840 0 l 1
 1394 0 l 1
 1338 958 l 1
 1324 958 l 1
EndSplineSet
EndChar

StartChar: N
Encoding: 68 78 64
Width: 1576
VWidth: 0
GlyphClass: 2
Flags: HW
PickledData: "(dp1
S'com.fontlab.hintData'
p2
(dp3
S'vhints'
p4
((dp5
S'position'
p6
I104
sS'width'
p7
I1392
stp8
sS'hhints'
p9
((dp10
g6
I0
sg7
I21
s(dp11
g6
I1575
sg7
I20
stp12
ssS'com.typemytype.robofont.layerData'
p13
(dp14
s."
HStem: 0 21<92 540 92 92 945 1484 945 945> 1575 20<92 609 609 609 1040 1484 1484 1484>
VStem: 104 1392
LayerCount: 2
Fore
SplineSet
945 0 m 1
 540 711 l 1
 540 0 l 1
 92 0 l 1
 92 1595 l 1
 609 1595 l 1
 1040 834 l 1
 1040 1595 l 1
 1484 1595 l 1
 1484 0 l 1
 945 0 l 1
EndSplineSet
EndChar

StartChar: O
Encoding: 69 79 69
Width: 1542
VWidth: 0
GlyphClass: 2
Flags: HW
PickledData: "(dp1
S'com.fontlab.hintData'
p2
(dp3
S'vhints'
p4
((dp5
S'position'
p6
I89
sS'width'
p7
I1382
stp8
sS'hhints'
p9
((dp10
g6
I-39
sg7
I274
s(dp11
g6
I1362
sg7
I269
stp12
ssS'com.typemytype.robofont.layerData'
p13
(dp14
s."
HStem: -39 274<685 768> 1362 269
VStem: 89 1382
LayerCount: 2
Fore
SplineSet
768 -39 m 1
 448 -39 80 -11 80 370 c 2
 80 1226 l 2
 80 1598 467 1635 768 1635 c 0
 1040 1635 1462 1603 1462 1226 c 2
 1462 370 l 2
 1462 -9 1070 -38 768 -39 c 1
685 235 m 1
 858 235 l 1
 858 1362 l 1
 685 1362 l 1
 685 235 l 1
EndSplineSet
EndChar

StartChar: OE
Encoding: 290 338 70
Width: 1832
VWidth: 0
GlyphClass: 2
Flags: HW
PickledData: "(dp1
S'com.fontlab.hintData'
p2
(dp3
S'vhints'
p4
((dp5
S'position'
p6
I92
sS'width'
p7
I1676
stp8
sS'hhints'
p9
((dp10
g6
I0
sg7
I232
s(dp11
g6
I0
sg7
I244
s(dp12
g6
I711
sg7
I250
s(dp13
g6
I1354
sg7
I241
s(dp14
g6
I1363
sg7
I232
stp15
ss."
HStem: 0 232<722 722 722 792 678 1768> 0 244<1424 1768 1424 1768> 711 250<1424 1744 1424 1744> 1354 241<1424 1768 1424 1424> 1363 232<722 792 678 1768>
VStem: 92 1676<0 1227 0 1314>
LayerCount: 2
Fore
SplineSet
678 232 m 1
 792 232 l 1
 792 1363 l 1
 678 1363 l 1
 678 232 l 1
722 0 m 1
 722 -1 l 1
 541 -1 396 13 279 60 c 0
 145 114 92 191 92 371 c 2
 92 1227 l 2
 92 1401 149 1483 279 1534 c 0
 396 1580 543 1595 722 1595 c 2
 1768 1595 l 1
 1768 1354 l 1
 1424 1354 l 1
 1424 961 l 1
 1744 961 l 1
 1744 711 l 1
 1424 711 l 1
 1424 244 l 1
 1768 244 l 1
 1768 0 l 1
 722 0 l 1
EndSplineSet
EndChar

StartChar: Oslash
Encoding: 173 216 78
Width: 1542
VWidth: 0
GlyphClass: 2
Flags: HW
PickledData: "(dp1
S'com.fontlab.hintData'
p2
(dp3
S'vhints'
p4
((dp5
S'position'
p6
I90
sS'width'
p7
I1382
stp8
sS'hhints'
p9
((dp10
g6
I-39
sg7
I274
s(dp11
g6
I1362
sg7
I268
s(dp12
g6
I1696
sg7
I20
stp13
ss."
HStem: -39 274<778 868 695 959.5> 1362 268<695 868 695 695> 1696 20<1396 1396>
VStem: 90 1382<370 1226 193 1402>
LayerCount: 2
Fore
SplineSet
1292 1546 m 1
 1403 1487 1472 1388 1472 1226 c 2
 1472 370 l 2
 1472 16 1141 -39 778 -39 c 1
 779 -41 l 1
 621 -41 470 -31 350 10 c 1
 242 -166 l 1
 114 -70 l 1
 210 85 l 1
 135 147 90 238 90 370 c 2
 90 1226 l 2
 90 1578 417 1630 778 1630 c 0
 908 1630 1033 1623 1141 1599 c 1
 1275 1817 l 1
 1396 1716 l 1
 1292 1546 l 1
695 235 m 1
 868 235 l 1
 868 1362 l 1
 695 1362 l 1
 695 235 l 1
EndSplineSet
EndChar

StartChar: P
Encoding: 70 80 80
Width: 1530
VWidth: 0
GlyphClass: 2
Flags: HW
PickledData: "(dp1
S'com.fontlab.hintData'
p2
(dp3
S'vhints'
p4
((dp5
S'position'
p6
I104
sS'width'
p7
I1381
stp8
sS'hhints'
p9
((dp10
g6
I0
sg7
I21
s(dp11
g6
I402
sg7
I226
s(dp12
g6
I1362
sg7
I233
stp13
ssS'com.typemytype.robofont.layerData'
p14
(dp15
s."
HStem: 0 21<92 696 92 92> 402 226<696 848 696 696> 1362 233<695 847 847 868 695 695>
VStem: 104 1381
LayerCount: 2
Fore
SplineSet
695 628 m 1
 868 628 l 1
 868 1362 l 1
 695 1362 l 1
 695 628 l 1
92 1595 m 1
 847 1595 l 2
 1163 1595 1473 1559 1473 1204 c 2
 1473 793 l 2
 1473 428 1158 402 848 402 c 2
 696 402 l 1
 696 0 l 1
 92 0 l 1
 92 1595 l 1
EndSplineSet
EndChar

StartChar: Q
Encoding: 71 81 81
Width: 1542
VWidth: 0
GlyphClass: 2
Flags: HW
PickledData: "(dp1
S'com.fontlab.hintData'
p2
(dp3
S'vhints'
p4
((dp5
S'position'
p6
I90
sS'width'
p7
I1382
stp8
sS'hhints'
p9
((dp10
g6
I-391
sg7
I312
s(dp11
g6
I-12
sg7
I21
s(dp12
g6
I1362
sg7
I270
stp13
ssS'com.typemytype.robofont.layerData'
p14
(dp15
s."
HStem: -391 312 -12 21<1049 1049> 1362 270<685 858 685 685>
VStem: 90 1382
LayerCount: 2
Fore
SplineSet
685 235 m 1
 858 235 l 1
 858 1362 l 1
 685 1362 l 1
 685 235 l 1
1030 -499 m 1
 642 -36 l 1
 358 -21 80 39 80 370 c 2
 80 1226 l 2
 80 1598 467 1632 768 1632 c 0
 1040 1632 1462 1603 1462 1226 c 2
 1462 370 l 2
 1462 118 1265 30 1049 -12 c 1
 1275 -281 l 1
 1030 -499 l 1
EndSplineSet
EndChar

StartChar: R
Encoding: 72 82 82
Width: 1527
VWidth: 0
GlyphClass: 2
Flags: HW
PickledData: "(dp1
S'com.fontlab.hintData'
p2
(dp3
S'vhints'
p4
((dp5
S'position'
p6
I881
sS'width'
p7
I230
stp8
sS'hhints'
p9
((dp10
g6
I0
sg7
I21
s(dp11
g6
I649
sg7
I232
s(dp12
g6
I1358
sg7
I237
stp13
ssS'com.typemytype.robofont.layerData'
p14
(dp15
s."
HStem: 0 21<92 696 92 92 869 1475 869 869> 649 232<696 869 696 869> 1358 237<696 869 696 696>
VStem: 881 230
LayerCount: 2
Fore
SplineSet
696 881 m 1
 869 881 l 1
 869 1358 l 1
 696 1358 l 1
 696 881 l 1
1099 792 m 1
 1100 786 l 1
 1383 754 1475 609 1475 437 c 2
 1475 0 l 1
 869 0 l 1
 869 649 l 1
 696 649 l 1
 696 0 l 1
 92 0 l 1
 92 1595 l 1
 1005 1595 l 2
 1294 1595 1459 1502 1459 1190 c 0
 1459 968 1396 821 1099 792 c 1
EndSplineSet
EndChar

StartChar: S
Encoding: 73 83 86
Width: 1451
VWidth: 0
GlyphClass: 2
Flags: HW
PickledData: "(dp1
S'com.fontlab.hintData'
p2
(dp3
S'vhints'
p4
((dp5
S'position'
p6
I67
sS'width'
p7
I1358
stp8
sS'hhints'
p9
((dp10
g6
I-39
sg7
I274
s(dp11
g6
I1358
sg7
I273
stp12
ssS'com.typemytype.robofont.layerData'
p13
(dp14
s."
HStem: -39 274<634 807 634 974.5> 1358 273
VStem: 67 1358
LayerCount: 2
Fore
SplineSet
632 1125 m 1
 635 1123 l 1
 635 1083 712 1074 757 1066 c 0
 1067 1011 1413 954 1413 542 c 0
 1413 82 1214 -39 735 -39 c 0
 462 -39 100 -10 67 345 c 0
 63 390 61 438 61 488 c 1
 634 488 l 1
 634 235 l 1
 807 235 l 1
 807 485 l 2
 807 538 738 559 689 575 c 0
 406 667 55 712 55 1111 c 0
 55 1550 337 1635 705 1635 c 0
 1089 1635 1340 1573 1341 1180 c 1
 805 1180 l 1
 805 1358 l 1
 632 1358 l 1
 632 1125 l 1
EndSplineSet
EndChar

StartChar: T
Encoding: 74 84 91
Width: 1319
VWidth: 0
GlyphClass: 2
Flags: HW
PickledData: "(dp1
S'com.fontlab.hintData'
p2
(dp3
S'vhints'
p4
((dp5
S'position'
p6
I8
sS'width'
p7
I1313
stp8
sS'hhints'
p9
((dp10
g6
I0
sg7
I21
s(dp11
g6
I1326
sg7
I269
stp12
ssS'com.typemytype.robofont.layerData'
p13
(dp14
s."
HStem: 0 21<356 960 356 356> 1326 269<3 356 3 1316 960 1316 960 960>
VStem: 8 1313
LayerCount: 2
Fore
SplineSet
1316 1595 m 1
 1316 1326 l 1
 960 1326 l 1
 960 0 l 1
 356 0 l 1
 356 1326 l 1
 3 1326 l 1
 3 1595 l 1
 1316 1595 l 1
EndSplineSet
EndChar

StartChar: Thorn
Encoding: 179 222 94
Width: 1534
VWidth: 0
GlyphClass: 2
Flags: HW
PickledData: "(dp1
S'com.fontlab.hintData'
p2
(dp3
S'vhints'
p4
((dp5
S'position'
p6
I104
sS'width'
p7
I1365
stp8
sS'hhints'
p9
((dp10
g6
I0
sg7
I21
s(dp11
g6
I250
sg7
I232
s(dp12
g6
I1182
sg7
I231
s(dp13
g6
I1579
sg7
I20
stp14
ss."
HStem: 0 21<104 706 104 104> 250 232<706 843 706 869> 1182 231<706 843 843 869 706 843> 1579 20<104 706 706 706>
VStem: 104 1365<608.5 641 641 1022 608.5 1599 608.5 1599>
LayerCount: 2
Fore
SplineSet
706 482 m 1
 869 482 l 1
 869 1182 l 1
 706 1182 l 1
 706 482 l 1
104 1599 m 1
 706 1599 l 1
 706 1413 l 1
 843 1413 l 2
 1023 1413 1169 1397 1284 1347 c 0
 1417 1289 1469 1205 1469 1022 c 2
 1469 641 l 2
 1469 576 1467 519 1447 469 c 0
 1371 284 1116 250 843 250 c 2
 706 250 l 1
 706 0 l 1
 104 0 l 1
 104 1599 l 1
EndSplineSet
EndChar

StartChar: U
Encoding: 75 85 95
Width: 1552
VWidth: 0
GlyphClass: 2
Flags: HW
PickledData: "(dp1
S'com.fontlab.hintData'
p2
(dp3
S'vhints'
p4
((dp5
S'position'
p6
I97
sS'width'
p7
I1382
stp8
sS'hhints'
p9
((dp10
g6
I-39
sg7
I273
s(dp11
g6
I1574
sg7
I20
s(dp12
g6
I1575
sg7
I20
stp13
ssS'com.typemytype.robofont.layerData'
p14
(dp15
s."
HStem: -39 273<689 862 689 925> 1574 20<862 1467 1467 1467> 1575 20<85 689 689 689>
VStem: 97 1382
LayerCount: 2
Fore
SplineSet
689 234 m 1
 862 234 l 1
 862 1594 l 1
 1467 1594 l 1
 1467 370 l 2
 1467 -4 1076 -39 774 -39 c 0
 497 -39 85 -7 85 371 c 2
 85 1595 l 1
 689 1595 l 1
 689 234 l 1
EndSplineSet
EndChar

StartChar: V
Encoding: 76 86 106
Width: 1494
VWidth: 0
GlyphClass: 2
Flags: HW
PickledData: "(dp1
S'com.fontlab.hintData'
p2
(dp3
S'vhints'
p4
((dp5
S'position'
p6
I26
sS'width'
p7
I1478
stp8
sS'hhints'
p9
((dp10
g6
I0
sg7
I412
s(dp11
g6
I1575
sg7
I20
stp12
ssS'com.typemytype.robofont.layerData'
p13
(dp14
s."
HStem: 0 412<745 756 745 1168> 1575 20<8 599 599 599 894 1486 1486 1486>
VStem: 26 1478
LayerCount: 2
Fore
SplineSet
745 412 m 1
 756 412 l 1
 894 1595 l 1
 1486 1595 l 1
 1168 0 l 1
 326 0 l 1
 8 1595 l 1
 599 1595 l 1
 745 412 l 1
EndSplineSet
EndChar

StartChar: W
Encoding: 77 87 107
Width: 2059
VWidth: 0
GlyphClass: 2
Flags: HW
PickledData: "(dp1
S'com.fontlab.hintData'
p2
(dp3
S'vhints'
p4
((dp5
S'position'
p6
I38
sS'width'
p7
I2037
stp8
sS'hhints'
p9
((dp10
g6
I0
sg7
I21
s(dp11
g6
I1575
sg7
I20
stp12
ssS'com.typemytype.robofont.layerData'
p13
(dp14
s."
HStem: 0 21<240 862 240 240 1167 1809 1167 1167> 1575 20<31 594 594 594 798 1277 1277 1277 1517 2028 2028 2028>
VStem: 38 2037
LayerCount: 2
Fore
SplineSet
1396 624 m 1
 1410 626 l 1
 1517 1595 l 1
 2028 1595 l 1
 1809 0 l 1
 1167 0 l 1
 1020 927 l 1
 1009 927 l 1
 862 0 l 1
 240 0 l 1
 31 1595 l 1
 594 1595 l 1
 669 624 l 1
 682 624 l 1
 798 1595 l 1
 1277 1595 l 1
 1396 624 l 1
EndSplineSet
EndChar

StartChar: X
Encoding: 78 88 108
Width: 1493
VWidth: 0
GlyphClass: 2
Flags: HW
PickledData: "(dp1
S'com.fontlab.hintData'
p2
(dp3
S'vhints'
p4
((dp5
S'position'
p6
I22
sS'width'
p7
I1503
stp8
sS'hhints'
p9
((dp10
g6
I0
sg7
I21
s(dp11
g6
I1575
sg7
I20
stp12
ssS'com.typemytype.robofont.layerData'
p13
(dp14
s."
HStem: 0 21<15 563 15 15 923 923 923 1478> 1575 20<15 567 567 567 927 1478 1478 1478>
VStem: 22 1503
LayerCount: 2
Fore
SplineSet
563 0 m 1
 15 0 l 1
 322 802 l 1
 15 1595 l 1
 567 1595 l 1
 740 1081 l 1
 749 1081 l 1
 927 1595 l 1
 1478 1595 l 1
 1168 802 l 1
 1478 0 l 1
 923 0 l 1
 745 514 l 1
 736 514 l 1
 563 0 l 1
EndSplineSet
EndChar

StartChar: Y
Encoding: 79 89 109
Width: 1486
VWidth: 0
GlyphClass: 2
Flags: HW
PickledData: "(dp1
S'com.fontlab.hintData'
p2
(dp3
S'vhints'
p4
((dp5
S'position'
p6
I32
sS'width'
p7
I1492
stp8
sS'hhints'
p9
((dp10
g6
I0
sg7
I21
s(dp11
g6
I1575
sg7
I20
stp12
ssS'com.typemytype.robofont.layerData'
p13
(dp14
s."
HStem: 0 21<442 1047 442 442> 1575 20<-3 557 557 557 933 1489 1489 1489>
VStem: 32 1492
LayerCount: 2
Fore
SplineSet
738 955 m 1
 747 955 l 1
 933 1595 l 1
 1489 1595 l 1
 1047 529 l 1
 1047 0 l 1
 442 0 l 1
 442 539 l 1
 -3 1595 l 1
 557 1595 l 1
 738 955 l 1
EndSplineSet
EndChar

StartChar: Z
Encoding: 80 90 112
Width: 1108
VWidth: 0
GlyphClass: 2
Flags: HW
PickledData: "(dp1
S'com.fontlab.hintData'
p2
(dp3
S'vhints'
p4
((dp5
S'position'
p6
I56
sS'width'
p7
I1036
stp8
sS'hhints'
p9
((dp10
g6
I0
sg7
I294
s(dp11
g6
I1304
sg7
I291
stp12
ssS'com.typemytype.robofont.layerData'
p13
(dp14
s."
HStem: 0 294<712 1053> 1304 291<65 421 65 65>
VStem: 56 1036
LayerCount: 2
Fore
SplineSet
1013 1595 m 1
 1006 1342 l 1
 712 294 l 1
 1063 294 l 1
 1053 0 l 1
 101 0 l 1
 101 266 l 1
 421 1304 l 1
 65 1304 l 1
 49 1595 l 1
 1013 1595 l 1
EndSplineSet
EndChar

StartChar: a
Encoding: 87 97 116
Width: 1450
VWidth: 0
GlyphClass: 2
Flags: HW
PickledData: "(dp1
S'com.fontlab.hintData'
p2
(dp3
S'vhints'
p4
((dp5
S'position'
p6
I73
sS'width'
p7
I1337
stp8
sS'hhints'
p9
((dp10
g6
I-27
sg7
I227
s(dp11
g6
I1
sg7
I199
s(dp12
g6
I139
sg7
I61
s(dp13
g6
I653
sg7
I171
s(dp14
g6
I1106
sg7
I221
stp15
ssS'com.typemytype.robofont.layerData'
p16
(dp17
s."
HStem: -27 227 1 199<629 1394 629 874> 139 61<629 818> 653 171<374 629 374 795> 1106 221<656 795 656 656>
VStem: 73 1337
LayerCount: 2
Fore
SplineSet
629 653 m 1
 629 200 l 1
 795 200 l 1
 795 653 l 1
 629 653 l 1
1365 257 m 1
 1366 162 1378 75 1394 1 c 1
 874 1 l 1
 818 139 l 1
 757 38 642 -30 478 -30 c 0
 193 -30 57 107 57 388 c 0
 57 693 219 824 529 824 c 0
 636 824 722 807 795 783 c 1
 795 1106 l 1
 656 1106 l 1
 656 915 l 1
 131 895 l 1
 125 930 120 966 120 1005 c 0
 120 1304 487 1327 724 1327 c 0
 1031 1327 1365 1303 1365 952 c 2
 1365 257 l 1
EndSplineSet
EndChar

StartChar: acute
Encoding: 137 180 120
Width: 873
VWidth: 0
GlyphClass: 2
Flags: HW
PickledData: "(dp1
S'com.fontlab.hintData'
p2
(dp3
S'vhints'
p4
((dp5
S'position'
p6
I25
sS'width'
p7
I807
stp8
sS'hhints'
p9
((dp10
g6
I1371
sg7
I559
stp11
ss."
HStem: 1371 559<70.5 709.5>
VStem: 25 807<1405.5 1799>
LayerCount: 2
Fore
SplineSet
59 1480 m 0
 222 1629 432 1835 533 1893 c 0
 578 1919 620 1930 658 1930 c 0
 761 1930 832 1846 832 1752 c 0
 832 1687 797 1617 716 1570 c 0
 612 1510 325 1438 120 1376 c 0
 109 1372 98 1371 88 1371 c 0
 53 1371 25 1391 25 1420 c 0
 25 1438 35 1459 59 1480 c 0
EndSplineSet
EndChar

StartChar: ae
Encoding: 187 230 122
Width: 2144
VWidth: 0
GlyphClass: 2
Flags: HW
PickledData: "(dp1
S'com.fontlab.hintData'
p2
(dp3
S'vhints'
p4
((dp5
S'position'
p6
I69
sS'width'
p7
I2006
stp8
sS'hhints'
p9
((dp10
g6
I-36
sg7
I288
s(dp11
g6
I604
sg7
I220
s(dp12
g6
I606
sg7
I195
s(dp13
g6
I1055
sg7
I290
stp14
ss."
HStem: -36 288<637 682.5 1359 1503> 604 220<383.5 637 383.5 787> 606 195<1359 1503 1359 2075 1359 1503> 1055 290<1359 1503 1359 1359>
VStem: 69 2006<240 956>
LayerCount: 2
Fore
SplineSet
1359 801 m 1
 1503 801 l 1
 1503 1055 l 1
 1359 1055 l 1
 1359 801 l 1
637 604 m 1
 637 252 l 1
 787 252 l 1
 787 604 l 1
 637 604 l 1
129 1004 m 0
 129 1299 424 1343 725 1343 c 0
 871 1343 993 1320 1074 1261 c 1
 1072 1263 l 1
 1159 1320 1282 1345 1431 1345 c 0
 1613 1345 1760 1328 1877 1279 c 0
 2011 1222 2075 1139 2075 956 c 2
 2075 606 l 1
 1359 606 l 1
 1359 252 l 1
 1503 252 l 1
 1503 501 l 1
 2074 501 l 1
 2074 354 l 1
 2067 14 1781 -36 1427 -36 c 0
 1274 -36 1163 11 1079 77 c 1
 948 2 788 -36 577 -36 c 0
 272 -36 69 92 69 388 c 0
 69 692 229 824 538 824 c 0
 641 824 718 808 787 783 c 1
 787 1054 l 1
 664 1054 l 1
 664 915 l 1
 488 908 316 901 140 894 c 1
 134 929 129 965 129 1004 c 0
EndSplineSet
EndChar

StartChar: ampersand
Encoding: 28 38 125
Width: 1653
VWidth: 0
GlyphClass: 2
Flags: HW
PickledData: "(dp1
S'com.fontlab.hintData'
p2
(dp3
S'vhints'
p4
((dp5
S'position'
p6
I84
sS'width'
p7
I1509
stp8
sS'hhints'
p9
((dp10
g6
I-40
sg7
I264
s(dp11
g6
I736
sg7
I193
s(dp12
g6
I1392
sg7
I240
stp13
ss."
HStem: -40 264<687 896 687 1039> 736 193<687 896 687 896 1442 1593> 1392 240<687 893 687 687>
VStem: 84 1509<736 1396>
LayerCount: 2
Fore
SplineSet
359 861 m 1
 247 873 l 2
 180 880 84 958 84 1198 c 0
 84 1594 453 1632 806 1632 c 0
 1220 1632 1442 1522 1442 1238 c 0
 1442 1221 1441 1203 1438 1184 c 1
 893 1184 l 1
 893 1392 l 1
 687 1392 l 1
 687 929 l 1
 896 929 l 1
 896 1068 l 1
 1442 1068 l 1
 1442 929 l 1
 1593 929 l 1
 1593 736 l 1
 1442 736 l 1
 1442 513 l 2
 1442 75 1312 -40 766 -40 c 0
 361 -40 85 16 85 456 c 0
 85 569 126 795 247 809 c 2
 359 822 l 1
 359 861 l 1
896 224 m 1
 896 736 l 1
 687 736 l 1
 687 224 l 1
 896 224 l 1
EndSplineSet
EndChar

StartChar: asciicircum
Encoding: 84 94 128
Width: 1222
VWidth: 0
GlyphClass: 2
Flags: HW
PickledData: "(dp1
S'com.fontlab.hintData'
p2
(dp3
S'vhints'
p4
((dp5
S'position'
p6
I46
sS'width'
p7
I1133
stp8
sS'hhints'
p9
((dp10
g6
I61
sg7
I615
stp11
ss."
HStem: 61 615<318 526 46 896 698 896 318 1179 698 698>
VStem: 46 1133<61 61>
LayerCount: 2
Fore
SplineSet
896 676 m 1
 1179 61 l 1
 698 61 l 1
 610 381 l 1
 526 61 l 1
 46 61 l 1
 318 676 l 1
 896 676 l 1
EndSplineSet
EndChar

StartChar: asciitilde
Encoding: 116 126 129
Width: 1424
VWidth: 0
GlyphClass: 2
Flags: HW
PickledData: "(dp1
S'com.fontlab.hintData'
p2
(dp3
S'vhints'
p4
((dp5
S'position'
p6
I73
sS'width'
p7
I1281
stp8
sS'hhints'
p9
((dp10
g6
I616
sg7
I392
s(dp11
g6
I806
sg7
I395
stp12
ss."
HStem: 616 392<437.5 575.5 437.5 597.5> 806 395<881 989>
VStem: 73 1281<642 1176>
LayerCount: 2
Fore
SplineSet
1057 642 m 1
 1057 728 1028 806 950 806 c 0
 784 806 715 616 480 616 c 0
 135 616 73 885 73 1176 c 1
 369 1176 l 1
 369 1089 394 1008 481 1008 c 0
 670 1008 754 1201 1008 1201 c 0
 1312 1201 1354 992 1354 642 c 1
 1057 642 l 1
EndSplineSet
EndChar

StartChar: asterisk
Encoding: 32 42 130
Width: 1321
VWidth: 0
GlyphClass: 2
Flags: HW
PickledData: "(dp1
S'com.fontlab.hintData'
p2
(dp3
S'vhints'
p4
((dp5
S'position'
p6
I73
sS'width'
p7
I1181
stp8
sS'hhints'
p9
((dp10
g6
I817
sg7
I295
stp11
ss."
HStem: 817 295<157.5 232.5 1093.5 1169.5>
VStem: 73 1181<925.5 999.5>
LayerCount: 2
Fore
SplineSet
775 489 m 0
 739 549 701 703 663 840 c 1
 596 599 572 430 450 430 c 0
 368 430 282 502 282 581 c 0
 282 658 408 765 551 899 c 1
 415 861 267 817 198 817 c 0
 113 817 73 889 73 962 c 0
 73 1037 116 1112 199 1112 c 0
 270 1112 417 1065 551 1027 c 1
 403 1170 282 1275 282 1351 c 0
 282 1431 369 1497 450 1497 c 0
 490 1497 529 1480 553 1440 c 0
 591 1376 627 1219 663 1080 c 1
 700 1219 736 1376 774 1440 c 0
 798 1480 836 1497 877 1497 c 0
 957 1497 1045 1430 1045 1351 c 0
 1045 1275 921 1169 775 1027 c 1
 909 1065 1057 1112 1128 1112 c 0
 1211 1112 1254 1037 1254 962 c 0
 1254 889 1214 817 1128 817 c 0
 1059 817 911 862 775 899 c 1
 917 765 1044 657 1044 581 c 0
 1044 500 957 430 877 430 c 0
 838 430 800 447 775 489 c 0
EndSplineSet
EndChar

StartChar: at
Encoding: 54 64 131
Width: 2198
VWidth: 0
GlyphClass: 2
Flags: HW
PickledData: "(dp1
S'com.fontlab.hintData'
p2
(dp3
S'vhints'
p4
((dp5
S'position'
p6
I74
sS'width'
p7
I2059
stp8
sS'hhints'
p9
((dp10
g6
I-393
sg7
I335
s(dp11
g6
I88
sg7
I242
s(dp12
g6
I113
sg7
I223
s(dp13
g6
I641
sg7
I195
s(dp14
g6
I1022
sg7
I226
s(dp15
g6
I1424
sg7
I317
stp16
ss."
HStem: -393 335<905.5 1272 905.5 1343> 88 242<1607 1777 1607 1799.5> 113 223<841.5 1174> 641 195<829 1081 829 1174> 1022 226<1116 1175 1116 1116> 1424 317<858.5 1369.5>
VStem: 74 2059<643.5 1091>
LayerCount: 2
Fore
SplineSet
1081 641 m 1
 1081 336 l 1
 1174 336 l 1
 1174 641 l 1
 1081 641 l 1
1553 88 m 1
 1388 91 1263 139 1202 239 c 1
 1149 173 1069 113 950 113 c 0
 733 113 620 199 613 405 c 0
 612 435 612 464 612 493 c 0
 612 732 708 836 950 836 c 0
 1049 836 1122 822 1175 788 c 1
 1175 1022 l 1
 1116 1022 l 1
 1116 887 l 1
 664 887 l 1
 664 910 663 933 663 956 c 0
 663 1204 858 1248 1138 1248 c 0
 1496 1248 1607 1146 1607 837 c 2
 1607 330 l 1
 1777 330 l 1
 1777 832 l 2
 1777 1339 1587 1424 1152 1424 c 0
 565 1424 428 1204 428 692 c 0
 428 59 589 -58 1222 -58 c 0
 1322 -58 1443 -40 1704 22 c 1
 1762 -233 l 1
 1630 -320 1446 -393 1240 -393 c 0
 425 -393 74 -177 74 687 c 0
 74 1495 440 1741 1148 1741 c 0
 1840 1741 2133 1508 2133 878 c 0
 2133 409 2046 88 1553 88 c 1
EndSplineSet
EndChar

StartChar: b
Encoding: 88 98 133
Width: 1484
VWidth: 0
GlyphClass: 2
Flags: HW
PickledData: "(dp1
S'com.fontlab.hintData'
p2
(dp3
S'vhints'
p4
((dp5
S'position'
p6
I105
sS'width'
p7
I1309
stp8
sS'hhints'
p9
((dp10
g6
I-27
sg7
I21
s(dp11
g6
I0
sg7
I199
s(dp12
g6
I1105
sg7
I222
s(dp13
g6
I1690
sg7
I20
stp14
ssS'com.typemytype.robofont.layerData'
p15
(dp16
s."
HStem: -27 21 0 199<101 839> 1105 222<672 1130.5> 1690 20<101 672 672 672>
VStem: 105 1309
LayerCount: 2
Fore
SplineSet
672 199 m 1
 839 199 l 1
 839 1105 l 1
 672 1105 l 1
 672 199 l 1
993 -30 m 0
 848 -30 718 25 658 114 c 1
 621 0 l 1
 101 0 l 1
 101 1710 l 1
 672 1710 l 1
 672 1215 l 1
 739 1292 846 1327 996 1327 c 0
 1265 1327 1410 1205 1410 940 c 2
 1410 377 l 2
 1410 106 1271 -30 993 -30 c 0
EndSplineSet
EndChar

StartChar: backslash
Encoding: 82 92 134
Width: 1053
VWidth: 0
GlyphClass: 2
Flags: HW
PickledData: "(dp1
S'com.fontlab.hintData'
p2
(dp3
S'vhints'
p4
((dp5
S'position'
p6
I113
sS'width'
p7
I826
stp8
sS'hhints'
p9
((dp10
g6
I0
sg7
I21
s(dp11
g6
I1575
sg7
I20
stp12
ss."
HStem: 0 21<464 939 464 464> 1575 20<113 587 587 587>
VStem: 113 826
LayerCount: 2
Fore
SplineSet
587 1595 m 1
 939 0 l 1
 464 0 l 1
 113 1595 l 1
 587 1595 l 1
EndSplineSet
EndChar

StartChar: bar
Encoding: 114 124 135
Width: 831
VWidth: 0
GlyphClass: 2
Flags: HW
PickledData: "(dp1
S'com.fontlab.hintData'
p2
(dp3
S'vhints'
p4
((dp5
S'position'
p6
I129
sS'width'
p7
I571
stp8
sS'hhints'
p9
((dp10
g6
I-100
sg7
I1895
stp11
ss."
HStem: -100 1895<129 700 129 700>
VStem: 129 571<-100 1795 -100 1795>
LayerCount: 2
Fore
SplineSet
700 1795 m 1
 700 -100 l 1
 129 -100 l 1
 129 1795 l 1
 700 1795 l 1
EndSplineSet
EndChar

StartChar: braceleft
Encoding: 113 123 136
Width: 1132
VWidth: 0
GlyphClass: 2
Flags: HW
PickledData: "(dp1
S'com.fontlab.hintData'
p2
(dp3
S'vhints'
p4
((dp5
S'position'
p6
I85
sS'width'
p7
I1016
stp8
sS'hhints'
p9
((dp10
g6
I-330
sg7
I279
s(dp11
g6
I658
sg7
I279
s(dp12
g6
I1646
sg7
I279
stp13
ss."
HStem: -330 279<831 1101> 658 279<85 179 85 180> 1646 279<830.5 1100 830.5 1100>
VStem: 85 1016<-330 937 -330 937>
LayerCount: 2
Fore
SplineSet
1100 1925 m 1
 1100 1646 l 1
 536 1646 890 1008 609 796 c 1
 890 612 536 -51 1101 -51 c 1
 1101 -330 l 1
 561 -330 310 -166 273 366 c 1
 256 495 275 658 85 658 c 1
 85 937 l 1
 273 937 256 1090 274 1228 c 0
 344 1752 561 1925 1100 1925 c 1
EndSplineSet
EndChar

StartChar: braceright
Encoding: 115 125 137
Width: 1131
VWidth: 0
GlyphClass: 2
Flags: HW
PickledData: "(dp1
S'com.fontlab.hintData'
p2
(dp3
S'vhints'
p4
((dp5
S'position'
p6
I58
sS'width'
p7
I1016
stp8
sS'hhints'
p9
((dp10
g6
I-330
sg7
I279
s(dp11
g6
I658
sg7
I279
s(dp12
g6
I1646
sg7
I279
stp13
ss."
HStem: -330 279<58 328> 658 279<980 1074 980 1074> 1646 279<59 328.5 59 341>
VStem: 58 1016<-330 937 -51 937>
LayerCount: 2
Fore
SplineSet
59 1646 m 1
 59 1925 l 1
 598 1925 815 1752 885 1228 c 0
 903 1090 886 937 1074 937 c 1
 1074 658 l 1
 884 658 903 495 886 366 c 1
 849 -166 598 -330 58 -330 c 1
 58 -51 l 1
 623 -51 269 612 550 796 c 1
 269 1008 623 1646 59 1646 c 1
EndSplineSet
EndChar

StartChar: bracketleft
Encoding: 81 91 138
Width: 1111
VWidth: 0
GlyphClass: 2
Flags: HW
PickledData: "(dp1
S'com.fontlab.hintData'
p2
(dp3
S'vhints'
p4
((dp5
S'position'
p6
I100
sS'width'
p7
I975
stp8
sS'hhints'
p9
((dp10
g6
I-319
sg7
I242
s(dp11
g6
I1578
sg7
I241
stp12
ss."
HStem: -319 242<734 1075 734 1075> 1578 241<734 1075 734 734>
VStem: 100 975<-319 -77 1578 1819>
LayerCount: 2
Fore
SplineSet
100 1819 m 1
 1075 1819 l 1
 1075 1578 l 1
 734 1578 l 1
 734 -77 l 1
 1075 -77 l 1
 1075 -319 l 1
 100 -319 l 1
 100 1819 l 1
EndSplineSet
EndChar

StartChar: bracketright
Encoding: 83 93 139
Width: 1108
VWidth: 0
GlyphClass: 2
Flags: HW
PickledData: "(dp1
S'com.fontlab.hintData'
p2
(dp3
S'vhints'
p4
((dp5
S'position'
p6
I35
sS'width'
p7
I975
stp8
sS'hhints'
p9
((dp10
g6
I-319
sg7
I242
s(dp11
g6
I1578
sg7
I241
stp12
ss."
HStem: -319 242<35 376 35 1010 35 376> 1578 241<35 376 35 1010>
VStem: 35 975<-319 -77 -77 -77 1578 1819>
LayerCount: 2
Fore
SplineSet
1010 -319 m 1
 35 -319 l 1
 35 -77 l 1
 376 -77 l 1
 376 1578 l 1
 35 1578 l 1
 35 1819 l 1
 1010 1819 l 1
 1010 -319 l 1
EndSplineSet
EndChar

StartChar: breve
Encoding: 370 728 140
Width: 1062
VWidth: 0
GlyphClass: 2
Flags: HW
PickledData: "(dp1
S'com.fontlab.hintData'
p2
(dp3
S'vhints'
p4
((dp5
S'position'
p6
I75
sS'width'
p7
I297
s(dp8
g6
I75
sg7
I924
s(dp9
g6
I702
sg7
I297
stp10
sS'hhints'
p11
((dp12
g6
I1398
sg7
I303
stp13
ss."
HStem: 1398 303<458.5 615.5 458.5 728>
VStem: 75 297<1825.5 1879 1825.5 1879> 75 924<1737.5 1879> 702 297<1825.5 1879>
LayerCount: 2
Fore
SplineSet
537 1398 m 0
 155 1398 75 1596 75 1879 c 1
 372 1879 l 1
 372 1772 380 1701 537 1701 c 0
 694 1701 702 1772 702 1879 c 1
 999 1879 l 1
 999 1596 919 1398 537 1398 c 0
EndSplineSet
EndChar

StartChar: brokenbar
Encoding: 123 166 141
Width: 831
VWidth: 0
GlyphClass: 2
Flags: HW
PickledData: "(dp1
S'com.fontlab.hintData'
p2
(dp3
S'vhints'
p4
((dp5
S'position'
p6
I131
sS'width'
p7
I571
stp8
sS'hhints'
p9
((dp10
g6
I-255
sg7
I1963
stp11
ss."
HStem: -255 1963<131 702 131 702>
VStem: 131 571<-255 656 -255 656 797 1708>
LayerCount: 2
Fore
SplineSet
702 1708 m 1
 702 797 l 1
 131 797 l 1
 131 1708 l 1
 702 1708 l 1
702 656 m 1
 702 -255 l 1
 131 -255 l 1
 131 656 l 1
 702 656 l 1
EndSplineSet
EndChar

StartChar: bullet
Encoding: 392 8226 142
Width: 1120
VWidth: 0
GlyphClass: 2
Flags: HW
PickledData: "(dp1
S'com.fontlab.hintData'
p2
(dp3
S'vhints'
p4
((dp5
S'position'
p6
I71
sS'width'
p7
I982
stp8
sS'hhints'
p9
((dp10
g6
I195
sg7
I1059
stp11
ss."
HStem: 195 1059<396 750 396 762>
VStem: 71 982<566.5 901 566.5 914>
LayerCount: 2
Fore
SplineSet
1053 726 m 0
 1053 407 947 195 577 195 c 0
 181 195 71 381 71 726 c 0
 71 1102 213 1254 579 1254 c 0
 921 1254 1053 1076 1053 726 c 0
EndSplineSet
EndChar

StartChar: c
Encoding: 89 99 143
Width: 1448
VWidth: 0
GlyphClass: 2
Flags: HW
PickledData: "(dp1
S'com.fontlab.hintData'
p2
(dp3
S'vhints'
p4
((dp5
S'position'
p6
I86
sS'width'
p7
I1311
stp8
sS'hhints'
p9
((dp10
g6
I-27
sg7
I226
s(dp11
g6
I1105
sg7
I222
stp12
ssS'com.typemytype.robofont.layerData'
p13
(dp14
s."
HStem: -27 226 1105 222<646 813 646 646>
VStem: 86 1311
LayerCount: 2
Fore
SplineSet
1384 539 m 1
 1385 352 l 1
 1385 -10 1033 -30 731 -30 c 0
 422 -30 74 -1 74 355 c 2
 74 955 l 2
 74 1310 442 1327 737 1327 c 0
 992 1327 1384 1326 1384 978 c 2
 1384 787 l 1
 813 787 l 1
 813 1105 l 1
 646 1105 l 1
 646 199 l 1
 813 199 l 1
 813 539 l 1
 1384 539 l 1
EndSplineSet
EndChar

StartChar: caron
Encoding: 369 711 145
Width: 954
VWidth: 0
GlyphClass: 2
Flags: HW
PickledData: "(dp1
S'com.fontlab.hintData'
p2
(dp3
S'vhints'
p4
((dp5
S'position'
p6
I54
sS'width'
p7
I846
stp8
sS'hhints'
p9
((dp10
g6
I1411
sg7
I597
stp11
ss."
HStem: 1411 597<450.5 854.5>
VStem: 54 846<1937 1962.5>
LayerCount: 2
Fore
SplineSet
335 1483 m 2
 72 1892 l 2
 60 1911 54 1929 54 1944 c 0
 54 1981 84 2006 120 2006 c 0
 137 2006 156 2000 174 1986 c 2
 477 1751 l 1
 780 1986 l 2
 799 2001 819 2008 837 2008 c 0
 872 2008 900 1982 900 1945 c 0
 900 1929 894 1911 882 1892 c 2
 619 1483 l 2
 586 1432 531 1411 478 1411 c 0
 423 1411 366 1435 335 1483 c 2
EndSplineSet
EndChar

StartChar: cedilla
Encoding: 141 184 150
Width: 948
VWidth: 0
GlyphClass: 2
Flags: HW
PickledData: "(dp1
S'com.fontlab.hintData'
p2
(dp3
S'vhints'
p4
((dp5
S'position'
p6
I284
sS'width'
p7
I227
s(dp8
g6
I384
sg7
I177
s(dp9
g6
I574
sg7
I217
stp10
sS'hhints'
p11
((dp12
g6
I-481
sg7
I110
s(dp13
g6
I-180
sg7
I180
stp14
ss."
HStem: -481 110<511 574 511 608> -180 180<384 561 384 574 384 561>
VStem: 284 227<-323 -267 -267 -267> 384 177<-70 0 -70 0 -70 0> 574 217<-371 -323 -323 -228 -391.5 -180 -391.5 -180>
LayerCount: 2
Fore
SplineSet
384 0 m 1
 561 0 l 1
 561 -70 l 1
 701 -70 791 -101 791 -228 c 2
 791 -323 l 2
 791 -460 678 -481 538 -481 c 0
 389 -481 284 -457 284 -323 c 2
 284 -267 l 1
 511 -239 l 1
 511 -371 l 1
 574 -371 l 1
 574 -180 l 1
 384 -180 l 1
 384 0 l 1
EndSplineSet
EndChar

StartChar: cent
Encoding: 119 162 151
Width: 1462
VWidth: 0
GlyphClass: 2
Flags: HW
PickledData: "(dp1
S'com.fontlab.hintData'
p2
(dp3
S'vhints'
p4
((dp5
S'position'
p6
I706
sS'width'
p7
I79
stp8
sS'hhints'
p9
((dp10
g6
I147
sg7
I226
s(dp11
g6
I1119
sg7
I224
stp12
ss."
HStem: 147 226<598 706 598 785> 1119 224<598 706 598 706 706 885 706 785>
VStem: 706 79<-74 147 -74 147 373 1119 1343 1578>
LayerCount: 2
Fore
SplineSet
598 1119 m 1
 598 373 l 1
 706 373 l 1
 706 1119 l 1
 598 1119 l 1
1396 633 m 1
 1396 523 l 2
 1396 180 1077 149 785 147 c 1
 785 -74 l 1
 706 -74 l 1
 706 147 l 1
 407 149 86 187 86 529 c 2
 86 969 l 2
 86 1310 425 1341 706 1343 c 1
 706 1578 l 1
 785 1578 l 1
 785 1343 l 1
 1026 1340 1396 1309 1396 992 c 2
 1396 881 l 1
 885 881 l 1
 885 1119 l 1
 785 1119 l 1
 785 373 l 1
 885 373 l 1
 885 633 l 1
 1396 633 l 1
EndSplineSet
EndChar

StartChar: circumflex
Encoding: 368 710 152
Width: 954
VWidth: 0
GlyphClass: 2
Flags: HW
PickledData: "(dp1
S'com.fontlab.hintData'
p2
(dp3
S'vhints'
p4
((dp5
S'position'
p6
I54
sS'width'
p7
I846
stp8
sS'hhints'
p9
((dp10
g6
I1411
sg7
I597
stp11
ss."
HStem: 1411 597<450.5 854.5>
VStem: 54 846<1456.5 1482 1455.5 1482.5>
LayerCount: 2
Fore
SplineSet
72 1527 m 2
 335 1936 l 2
 366 1984 423 2008 478 2008 c 0
 531 2008 586 1987 619 1936 c 2
 882 1527 l 2
 894 1508 900 1490 900 1474 c 0
 900 1437 872 1411 837 1411 c 0
 819 1411 799 1418 780 1433 c 2
 477 1668 l 1
 174 1433 l 2
 156 1419 137 1413 120 1413 c 0
 84 1413 54 1438 54 1475 c 0
 54 1490 60 1508 72 1527 c 2
EndSplineSet
EndChar

StartChar: colon
Encoding: 48 58 153
Width: 691
VWidth: 0
GlyphClass: 2
Flags: HW
PickledData: "(dp1
S'com.fontlab.hintData'
p2
(dp3
S'vhints'
p4
((dp5
S'position'
p6
I141
sS'width'
p7
I408
stp8
sS'hhints'
p9
((dp10
g6
I113
sg7
I420
s(dp11
g6
I113
sg7
I1230
s(dp12
g6
I923
sg7
I420
stp13
ss."
HStem: 113 420<294 396> 113 1230<294 396> 923 420<294 396>
VStem: 141 408<253 393 1063 1203>
LayerCount: 2
Fore
SplineSet
141 1133 m 0
 141 1273 243 1343 345 1343 c 0
 447 1343 549 1273 549 1133 c 0
 549 993 447 923 345 923 c 0
 243 923 141 993 141 1133 c 0
141 323 m 0
 141 463 243 533 345 533 c 0
 447 533 549 463 549 323 c 0
 549 183 447 113 345 113 c 0
 243 113 141 183 141 323 c 0
EndSplineSet
EndChar

StartChar: comma
Encoding: 34 44 154
Width: 711
VWidth: 0
GlyphClass: 2
Flags: HW
PickledData: "(dp1
S'com.fontlab.hintData'
p2
(dp3
S'vhints'
p4
((dp5
S'position'
p6
I141
sS'width'
p7
I414
stp8
sS'hhints'
p9
((dp10
g6
I-234
sg7
I112
s(dp11
g6
I0
sg7
I21
stp12
ss."
HStem: -234 112<164 318.5> 0 21
VStem: 141 414<144.5 233.5 77 275.5>
LayerCount: 2
Fore
SplineSet
141 209 m 0
 141 342 243 409 345 409 c 0
 489 409 555 298 555 169 c 0
 555 -15 429 -234 208 -234 c 0
 194 -234 179 -233 164 -231 c 1
 164 -122 l 1
 244 -121 314 -77 320 0 c 1
 227 10 141 80 141 209 c 0
EndSplineSet
EndChar

StartChar: commaaccent
Encoding: 420 -1 155
Width: 380
VWidth: 0
GlyphClass: 2
Flags: HW
PickledData: "(dp1
S'com.fontlab.hintData'
p2
(dp3
S'vhints'
p4
((dp5
S'position'
p6
I-17
sS'width'
p7
I414
stp8
sS'hhints'
p9
((dp10
g6
I-738
sg7
I112
stp11
ss."
HStem: -738 112<6 160.5>
VStem: -17 414<-359.5 -270.5 -427 -228.5>
LayerCount: 2
Fore
SplineSet
-17 -295 m 0
 -17 -162 85 -95 187 -95 c 0
 331 -95 397 -206 397 -335 c 0
 397 -519 271 -738 50 -738 c 0
 36 -738 21 -737 6 -735 c 1
 6 -626 l 1
 86 -625 156 -581 162 -504 c 1
 69 -494 -17 -424 -17 -295 c 0
EndSplineSet
EndChar

StartChar: copyright
Encoding: 126 169 156
Width: 1861
VWidth: 0
GlyphClass: 2
Flags: HW
PickledData: "(dp1
S'com.fontlab.hintData'
p2
(dp3
S'vhints'
p4
((dp5
S'position'
p6
I84
sS'width'
p7
I239
s(dp8
g6
I555
sg7
I280
s(dp9
g6
I1034
sg7
I277
s(dp10
g6
I1541
sg7
I239
stp11
sS'hhints'
p12
((dp13
g6
I-101
sg7
I169
s(dp14
g6
I272
sg7
I160
s(dp15
g6
I1222
sg7
I159
s(dp16
g6
I1573
sg7
I176
stp17
ss."
HStem: -101 169<727.5 1116 727.5 1154.5> 272 160<835 1034 835 1038.5> 1222 159<835 1014.5 801.5 1034 835 835> 1573 176<726 1103.5>
VStem: 84 239<539 1114> 555 280<547 1107 1107 1220.5> 1034 277<432 542 542 749 427 749 913 1111> 1541 239<482 539 539 1116>
LayerCount: 2
Fore
SplineSet
835 432 m 1
 1034 432 l 1
 1034 749 l 1
 1311 749 l 1
 1311 542 l 2
 1311 312 1161 272 916 272 c 0
 701 272 555 315 555 547 c 2
 555 1107 l 2
 555 1334 687 1381 916 1381 c 0
 1113 1381 1311 1366 1311 1111 c 2
 1311 913 l 1
 1034 913 l 1
 1034 1222 l 1
 835 1222 l 1
 835 432 l 1
323 1114 m 2
 323 535 l 2
 323 169 523 68 932 68 c 0
 1300 68 1541 156 1541 482 c 2
 1541 1165 l 2
 1541 1500 1275 1573 932 1573 c 0
 520 1573 323 1471 323 1114 c 2
932 -101 m 0
 421 -101 84 42 84 539 c 2
 84 1116 l 2
 84 1638 490 1749 932 1749 c 0
 1441 1749 1780 1610 1780 1116 c 2
 1780 539 l 2
 1780 14 1377 -101 932 -101 c 0
EndSplineSet
EndChar

StartChar: currency
Encoding: 121 164 157
Width: 1390
VWidth: 0
GlyphClass: 2
Flags: HW
PickledData: "(dp1
S'com.fontlab.hintData'
p2
(dp3
S'vhints'
p4
((dp5
S'position'
p6
I68
sS'width'
p7
I1257
stp8
sS'hhints'
p9
((dp10
g6
I299
sg7
I271
s(dp11
g6
I1070
sg7
I273
stp12
ss."
HStem: 299 271<698 749 637 765.5> 1070 273<637 749 637 637>
VStem: 68 1257<704.5 904>
LayerCount: 2
Fore
SplineSet
637 570 m 1
 749 570 l 1
 749 1070 l 1
 637 1070 l 1
 637 570 l 1
698 299 m 0
 560 300 449 315 354 349 c 1
 206 189 l 1
 126 273 l 1
 244 401 l 1
 117 483 68 602 68 804 c 0
 68 1004 101 1142 219 1229 c 1
 127 1330 l 1
 207 1414 l 1
 325 1286 l 1
 427 1326 546 1343 697 1343 c 0
 846 1343 963 1326 1065 1287 c 1
 1181 1414 l 1
 1262 1330 l 1
 1171 1231 l 1
 1293 1143 1325 1016 1325 804 c 0
 1325 605 1271 479 1145 398 c 1
 1263 272 l 1
 1182 188 l 1
 1036 346 l 1
 939 314 833 299 698 299 c 0
EndSplineSet
EndChar

StartChar: d
Encoding: 90 100 158
Width: 1471
VWidth: 0
GlyphClass: 2
Flags: HW
PickledData: "(dp1
S'com.fontlab.hintData'
p2
(dp3
S'vhints'
p4
((dp5
S'position'
p6
I85
sS'width'
p7
I1309
stp8
sS'hhints'
p9
((dp10
g6
I-27
sg7
I21
s(dp11
g6
I0
sg7
I199
s(dp12
g6
I1105
sg7
I222
s(dp13
g6
I1690
sg7
I20
stp14
ssS'com.typemytype.robofont.layerData'
p15
(dp16
s."
HStem: -27 21 0 199<644 1383 644 863> 1105 222<353 811 353 644> 1690 20<812 1383 1383 1383>
VStem: 85 1309
LayerCount: 2
Fore
SplineSet
811 1105 m 1
 644 1105 l 1
 644 199 l 1
 811 199 l 1
 811 1105 l 1
489 1327 m 0
 639 1327 745 1292 812 1215 c 1
 812 1710 l 1
 1383 1710 l 1
 1383 0 l 1
 863 0 l 1
 826 114 l 1
 764 26 637 -30 491 -30 c 0
 213 -30 74 106 74 377 c 2
 74 940 l 2
 74 1203 217 1327 489 1327 c 0
EndSplineSet
EndChar

StartChar: dagger
Encoding: 390 8224 159
Width: 1061
VWidth: 0
GlyphClass: 2
Flags: HW
PickledData: "(dp1
S'com.fontlab.hintData'
p2
(dp3
S'vhints'
p4
((dp5
S'position'
p6
I34
sS'width'
p7
I991
stp8
sS'hhints'
p9
((dp10
g6
I915
sg7
I284
s(dp11
g6
I1607
sg7
I20
stp12
ss."
HStem: 915 284<113 193 862 946.5> 1607 20<476.5 570>
VStem: 34 991<1022 1091.5>
LayerCount: 2
Fore
SplineSet
713 1458 m 0
 713 1357 646 1225 584 1103 c 1
 690 1143 815 1199 908 1199 c 0
 986 1199 1025 1128 1025 1058 c 0
 1025 986 986 915 907 915 c 0
 817 915 695 968 592 1007 c 1
 659 649 712 368 712 222 c 0
 712 79 617 5 523 5 c 0
 432 5 341 76 341 220 c 0
 341 369 394 666 455 1002 c 1
 339 957 233 915 153 915 c 0
 73 915 34 985 34 1056 c 0
 34 1127 74 1199 152 1199 c 0
 234 1199 342 1156 460 1110 c 1
 399 1230 338 1358 338 1457 c 0
 338 1571 430 1627 523 1627 c 0
 617 1627 713 1569 713 1458 c 0
EndSplineSet
EndChar

StartChar: daggerdbl
Encoding: 391 8225 160
Width: 1061
VWidth: 0
GlyphClass: 2
Flags: HW
PickledData: "(dp1
S'com.fontlab.hintData'
p2
(dp3
S'vhints'
p4
((dp5
S'position'
p6
I455
sS'width'
p7
I137
stp8
sS'hhints'
p9
((dp10
g6
I389
sg7
I284
s(dp11
g6
I915
sg7
I284
s(dp12
g6
I1607
sg7
I20
stp13
ss."
HStem: 389 284<113 193 862 946.5> 915 284<113 193 862 946.5> 1607 20<476.5 570>
VStem: 455 137<586 1002 1002 1002>
LayerCount: 2
Fore
SplineSet
455 586 m 1
 455 1002 l 1
 339 957 233 915 153 915 c 0
 73 915 34 985 34 1056 c 0
 34 1127 74 1199 152 1199 c 0
 234 1199 342 1156 460 1110 c 1
 399 1230 338 1358 338 1457 c 0
 338 1571 430 1627 523 1627 c 0
 617 1627 713 1569 713 1458 c 0
 713 1357 646 1225 584 1103 c 1
 690 1143 815 1199 908 1199 c 0
 986 1199 1025 1128 1025 1058 c 0
 1025 986 986 915 907 915 c 0
 817 915 695 968 592 1007 c 1
 592 581 l 1
 695 620 817 673 907 673 c 0
 986 673 1025 602 1025 530 c 0
 1025 460 986 389 908 389 c 0
 815 389 690 445 584 485 c 1
 646 363 713 231 713 130 c 0
 713 19 617 -39 523 -39 c 0
 430 -39 338 17 338 131 c 0
 338 230 399 358 460 478 c 1
 342 432 234 389 152 389 c 0
 74 389 34 461 34 532 c 0
 34 603 73 673 153 673 c 0
 233 673 339 631 455 586 c 1
EndSplineSet
EndChar

StartChar: dcroat
Encoding: 230 273 162
Width: 1478
VWidth: 0
GlyphClass: 2
Flags: HW
PickledData: "(dp1
S'com.fontlab.hintData'
p2
(dp3
S'vhints'
p4
((dp5
S'position'
p6
I85
sS'width'
p7
I1309
s(dp8
g6
I645
sg7
I833
stp9
sS'hhints'
p10
((dp11
g6
I-27
sg7
I21
s(dp12
g6
I0
sg7
I199
s(dp13
g6
I1105
sg7
I222
s(dp14
g6
I1407
sg7
I231
s(dp15
g6
I1690
sg7
I20
stp16
ss."
HStem: -27 21<363 575> 0 199<655 1394 655 874> 1105 222<364 822 364 655> 1407 231<645 1478 645 1478> 1690 20<823 1394 1394 1394>
VStem: 85 1309<377 940 940 1071.5> 645 833<1407 1638 1407 1638>
LayerCount: 2
Fore
SplineSet
500 1327 m 0
 650 1327 756 1292 823 1215 c 1
 823 1477 l 1
 645 1477 l 1
 645 1638 l 1
 823 1638 l 1
 823 1710 l 1
 1394 1710 l 1
 1394 1638 l 1
 1518 1638 l 1
 1518 1477 l 1
 1394 1477 l 1
 1394 0 l 1
 874 0 l 1
 837 114 l 1
 775 26 648 -27 502 -27 c 0
 224 -27 85 106 85 377 c 2
 85 940 l 2
 85 1203 228 1327 500 1327 c 0
822 1105 m 1
 655 1105 l 1
 655 199 l 1
 822 199 l 1
 822 1105 l 1
EndSplineSet
EndChar

StartChar: degree
Encoding: 133 176 163
Width: 812
VWidth: 0
GlyphClass: 2
Flags: HW
PickledData: "(dp1
S'com.fontlab.hintData'
p2
(dp3
S'vhints'
p4
((dp5
S'position'
p6
I73
sS'width'
p7
I190
s(dp8
g6
I545
sg7
I190
stp9
sS'hhints'
p10
((dp11
g6
I1070
sg7
I152
s(dp12
g6
I1520
sg7
I152
stp13
ss."
HStem: 1070 152<362.5 445.5 362.5 508> 1520 152<362.5 445.5>
VStem: 73 190<1327 1415 1327 1447.5> 545 190<1327 1415>
LayerCount: 2
Fore
SplineSet
545 1371 m 0
 545 1459 487 1520 404 1520 c 0
 321 1520 263 1459 263 1371 c 0
 263 1283 321 1222 404 1222 c 0
 487 1222 545 1283 545 1371 c 0
73 1371 m 0
 73 1524 196 1672 404 1672 c 0
 612 1672 735 1524 735 1371 c 0
 735 1218 612 1070 404 1070 c 0
 196 1070 73 1218 73 1371 c 0
EndSplineSet
EndChar

StartChar: dieresis
Encoding: 125 168 164
Width: 1296
VWidth: 0
GlyphClass: 2
Flags: HW
PickledData: "(dp1
S'com.fontlab.hintData'
p2
(dp3
S'vhints'
p4
((dp5
S'position'
p6
I83
sS'width'
p7
I1134
stp8
sS'hhints'
p9
((dp10
g6
I82
sg7
I336
stp11
ss."
HStem: 82 336<83 533 83 533 83 766 766 1217>
VStem: 83 1134<82 418 82 418>
LayerCount: 2
Fore
SplineSet
1217 418 m 1
 1217 82 l 1
 766 82 l 1
 766 418 l 1
 1217 418 l 1
533 418 m 1
 533 82 l 1
 83 82 l 1
 83 418 l 1
 533 418 l 1
EndSplineSet
EndChar

StartChar: divide
Encoding: 204 247 165
Width: 1286
VWidth: 0
GlyphClass: 2
Flags: HW
PickledData: "(dp1
S'com.fontlab.hintData'
p2
(dp3
S'vhints'
p4
((dp5
S'position'
p6
I67
sS'width'
p7
I1162
stp8
sS'hhints'
p9
((dp10
g6
I92
sg7
I467
s(dp11
g6
I670
sg7
I238
s(dp12
g6
I1000
sg7
I497
stp13
ss."
HStem: 92 467<394 901 394 901> 670 238<67 1229 67 1229> 1000 497<394 901 394 901>
VStem: 67 1162<670 908 670 908>
LayerCount: 2
Fore
SplineSet
1229 908 m 1
 1229 670 l 1
 67 670 l 1
 67 908 l 1
 1229 908 l 1
901 1000 m 1
 394 1000 l 1
 394 1497 l 1
 901 1497 l 1
 901 1000 l 1
901 92 m 1
 394 92 l 1
 394 559 l 1
 901 559 l 1
 901 92 l 1
EndSplineSet
EndChar

StartChar: dollar
Encoding: 26 36 166
Width: 1434
VWidth: 0
GlyphClass: 2
Flags: HW
PickledData: "(dp1
S'com.fontlab.hintData'
p2
(dp3
S'vhints'
p4
((dp5
S'position'
p6
I685
sS'width'
p7
I79
stp8
sS'hhints'
p9
((dp10
g6
I23
sg7
I260
s(dp11
g6
I1283
sg7
I261
s(dp12
g6
I1710
sg7
I20
stp13
ss."
HStem: 23 260<600 764> 1283 261<600 685 600 685 685 847 685 764> 1710 20<685 764 764 764>
VStem: 685 79<-168 22 22 22 283 572 1012 1283 1545 1730>
LayerCount: 2
Fore
SplineSet
600 1031 m 1
 627 1025 655 1018 685 1012 c 1
 685 1283 l 1
 600 1283 l 1
 600 1031 l 1
847 556 m 1
 764 572 l 1
 764 283 l 1
 847 283 l 1
 847 556 l 1
685 -168 m 1
 685 22 l 1
 533 23 406 34 301 71 c 0
 149 125 89 239 101 482 c 1
 600 450 l 1
 600 283 l 1
 685 283 l 1
 685 586 l 1
 392 639 70 711 70 1080 c 0
 70 1462 338 1538 685 1544 c 1
 685 1730 l 1
 764 1730 l 1
 764 1545 l 1
 914 1544 1040 1533 1145 1500 c 1
 1344 1435 1357 1282 1346 1092 c 1
 847 1122 l 1
 847 1283 l 1
 764 1283 l 1
 764 997 l 1
 1048 942 1378 873 1378 510 c 0
 1378 122 1147 30 764 23 c 1
 764 -168 l 1
 685 -168 l 1
EndSplineSet
EndChar

StartChar: dotaccent
Encoding: 371 729 167
Width: 670
VWidth: 0
GlyphClass: 2
Flags: HW
PickledData: "(dp1
S'com.fontlab.hintData'
p2
(dp3
S'vhints'
p4
((dp5
S'position'
p6
I84
sS'width'
p7
I507
stp8
sS'hhints'
p9
((dp10
g6
I0
sg7
I467
stp11
ss."
HStem: 0 467<84 591 84 591>
VStem: 84 507<0 467 0 467>
LayerCount: 2
Fore
SplineSet
591 0 m 1
 84 0 l 1
 84 467 l 1
 591 467 l 1
 591 0 l 1
EndSplineSet
EndChar

StartChar: dotlessi
Encoding: 260 305 168
Width: 744
VWidth: 0
GlyphClass: 2
Flags: HW
PickledData: "(dp1
S'com.fontlab.hintData'
p2
(dp3
S'vhints'
p4
((dp5
S'position'
p6
I100
sS'width'
p7
I569
stp8
sS'hhints'
p9
((dp10
g6
I0
sg7
I21
stp11
ss."
HStem: 0 21<100 669 100 100>
VStem: 100 569<0 1298>
LayerCount: 2
Fore
SplineSet
669 0 m 1
 100 0 l 1
 100 1298 l 1
 669 1298 l 1
 669 0 l 1
EndSplineSet
EndChar

StartChar: e
Encoding: 91 101 169
Width: 1450
VWidth: 0
GlyphClass: 2
Flags: HW
PickledData: "(dp1
S'com.fontlab.hintData'
p2
(dp3
S'vhints'
p4
((dp5
S'position'
p6
I86
sS'width'
p7
I1318
stp8
sS'hhints'
p9
((dp10
g6
I-27
sg7
I226
s(dp11
g6
I604
sg7
I173
s(dp12
g6
I1105
sg7
I222
stp13
ssS'com.typemytype.robofont.layerData'
p14
(dp15
s."
HStem: -27 226 604 173<646 814 646 1384 646 814> 1105 222<646 814 646 646>
VStem: 86 1318
LayerCount: 2
Fore
SplineSet
646 777 m 1
 814 777 l 1
 814 1105 l 1
 646 1105 l 1
 646 777 l 1
1384 483 m 1
 1389 445 1392 412 1392 380 c 0
 1392 74 1173 -30 731 -30 c 0
 427 -30 74 -11 74 353 c 2
 74 953 l 2
 74 1306 443 1327 729 1327 c 0
 1022 1327 1384 1309 1384 954 c 2
 1384 604 l 1
 646 604 l 1
 646 199 l 1
 813 199 l 1
 813 483 l 1
 1384 483 l 1
EndSplineSet
EndChar

StartChar: eight
Encoding: 46 56 176
Width: 1427
VWidth: 0
GlyphClass: 2
Flags: HW
PickledData: "(dp1
S'com.fontlab.hintData'
p2
(dp3
S'vhints'
p4
((dp5
S'position'
p6
I64
sS'width'
p7
I1304
stp8
sS'hhints'
p9
((dp10
g6
I-40
sg7
I275
s(dp11
g6
I720
sg7
I240
s(dp12
g6
I1355
sg7
I276
stp13
ss."
HStem: -40 275<628 794 628 910.5> 720 240<640 794 640 794 628 794> 1355 276<640 640 640 794>
VStem: 64 1304<272.5 539>
LayerCount: 2
Fore
SplineSet
628 235 m 1
 794 235 l 1
 794 720 l 1
 628 720 l 1
 628 235 l 1
640 1355 m 1
 640 960 l 1
 794 960 l 1
 794 1355 l 1
 640 1355 l 1
119 1181 m 0
 119 1529 366 1631 719 1631 c 0
 1071 1631 1310 1528 1310 1180 c 0
 1310 1022 1265 898 1149 864 c 1
 1305 830 1368 671 1368 470 c 0
 1368 34 1100 -40 721 -40 c 0
 287 -40 64 75 64 470 c 0
 64 608 88 818 251 864 c 1
 149 900 119 1035 119 1181 c 0
EndSplineSet
EndChar

StartChar: ellipsis
Encoding: 393 8230 177
Width: 2010
VWidth: 0
GlyphClass: 2
Flags: HW
PickledData: "(dp1
S'com.fontlab.hintData'
p2
(dp3
S'vhints'
p4
((dp5
S'position'
p6
I136
sS'width'
p7
I1748
stp8
sS'hhints'
p9
((dp10
g6
I-39
sg7
I420
stp11
ss."
HStem: -39 420<289 391 959 1061 1629 1731>
VStem: 136 1748<101 241>
LayerCount: 2
Fore
SplineSet
1476 171 m 0
 1476 311 1578 381 1680 381 c 0
 1782 381 1884 311 1884 171 c 0
 1884 31 1782 -39 1680 -39 c 0
 1578 -39 1476 31 1476 171 c 0
806 171 m 0
 806 311 908 381 1010 381 c 0
 1112 381 1214 311 1214 171 c 0
 1214 31 1112 -39 1010 -39 c 0
 908 -39 806 31 806 171 c 0
136 171 m 0
 136 311 238 381 340 381 c 0
 442 381 544 311 544 171 c 0
 544 31 442 -39 340 -39 c 0
 238 -39 136 31 136 171 c 0
EndSplineSet
EndChar

StartChar: emdash
Encoding: 383 8212 179
Width: 1857
VWidth: 0
GlyphClass: 2
Flags: HW
PickledData: "(dp1
S'com.fontlab.hintData'
p2
(dp3
S'vhints'
p4
((dp5
S'position'
p6
I87
sS'width'
p7
I1685
stp8
sS'hhints'
p9
((dp10
g6
I461
sg7
I436
stp11
ss."
HStem: 461 436<87 1772 87 1772>
VStem: 87 1685<461 897 461 897>
LayerCount: 2
Fore
SplineSet
1772 897 m 1
 1772 461 l 1
 87 461 l 1
 87 897 l 1
 1772 897 l 1
EndSplineSet
EndChar

StartChar: endash
Encoding: 382 8211 180
Width: 1005
VWidth: 0
GlyphClass: 2
Flags: HW
PickledData: "(dp1
S'com.fontlab.hintData'
p2
(dp3
S'vhints'
p4
((dp5
S'position'
p6
I87
sS'width'
p7
I833
stp8
sS'hhints'
p9
((dp10
g6
I461
sg7
I436
stp11
ss."
HStem: 461 436<87 920 87 920>
VStem: 87 833<461 897 461 897>
LayerCount: 2
Fore
SplineSet
920 897 m 1
 920 461 l 1
 87 461 l 1
 87 897 l 1
 920 897 l 1
EndSplineSet
EndChar

StartChar: equal
Encoding: 51 61 182
Width: 1008
VWidth: 0
GlyphClass: 2
Flags: HW
PickledData: "(dp1
S'com.fontlab.hintData'
p2
(dp3
S'vhints'
p4
((dp5
S'position'
p6
I89
sS'width'
p7
I834
stp8
sS'hhints'
p9
((dp10
g6
I0
sg7
I336
s(dp11
g6
I561
sg7
I336
stp12
ss."
HStem: 0 336<89 923 89 923> 561 336<89 923 89 923>
VStem: 89 834<0 336 0 336 561 897 0 897>
LayerCount: 2
Fore
SplineSet
923 897 m 1
 923 561 l 1
 89 561 l 1
 89 897 l 1
 923 897 l 1
923 336 m 1
 923 0 l 1
 89 0 l 1
 89 336 l 1
 923 336 l 1
EndSplineSet
EndChar

StartChar: eth
Encoding: 197 240 183
Width: 1395
VWidth: 0
GlyphClass: 2
Flags: HW
PickledData: "(dp1
S'com.fontlab.hintData'
p2
(dp3
S'vhints'
p4
((dp5
S'position'
p6
I72
sS'width'
p7
I1265
stp8
sS'hhints'
p9
((dp10
g6
I-37
sg7
I275
s(dp11
g6
I828
sg7
I269
stp12
ss."
HStem: -37 275<640 762 640 794> 828 269<640 762 640 640>
VStem: 72 1265<639 643>
LayerCount: 2
Fore
SplineSet
762 828 m 1
 640 828 l 1
 640 238 l 1
 762 238 l 1
 762 828 l 1
991 1578 m 1
 1174 1402 1337 1163 1337 807 c 0
 1337 471 1326 171 1119 45 c 0
 1017 -17 880 -37 708 -37 c 0
 414 -37 191 12 112 221 c 0
 80 306 72 408 72 525 c 0
 72 761 109 933 258 1021 c 0
 349 1075 470 1097 623 1097 c 2
 763 1097 l 1
 763 1199 681 1273 624 1324 c 1
 372 1151 l 1
 302 1275 l 1
 507 1416 l 1
 456 1449 403 1483 353 1510 c 2
 286 1546 l 1
 510 1887 l 1
 511 1889 l 1
 648 1832 767 1762 880 1674 c 1
 1088 1817 l 1
 1159 1694 l 1
 991 1578 l 1
EndSplineSet
EndChar

StartChar: exclam
Encoding: 23 33 184
Width: 722
VWidth: 0
GlyphClass: 2
Flags: HW
PickledData: "(dp1
S'com.fontlab.hintData'
p2
(dp3
S'vhints'
p4
((dp5
S'position'
p6
I122
sS'width'
p7
I511
stp8
sS'hhints'
p9
((dp10
g6
I-39
sg7
I420
s(dp11
g6
I1611
sg7
I20
stp12
ss."
HStem: -39 420<324 426> 1611 20<310 437.5>
VStem: 122 511<1336 1483.5 1332 1486.5>
LayerCount: 2
Fore
SplineSet
171 171 m 0
 171 311 273 381 375 381 c 0
 477 381 579 311 579 171 c 0
 579 31 477 -39 375 -39 c 0
 273 -39 171 31 171 171 c 0
314 607 m 0
 250 880 122 1259 122 1413 c 0
 122 1560 247 1631 373 1631 c 0
 502 1631 633 1556 633 1411 c 0
 633 1253 498 874 435 607 c 0
 424 562 400 539 375 539 c 0
 350 539 325 561 314 607 c 0
EndSplineSet
EndChar

StartChar: exclamdown
Encoding: 118 161 185
Width: 719
VWidth: 0
GlyphClass: 2
Flags: HW
PickledData: "(dp1
S'com.fontlab.hintData'
p2
(dp3
S'vhints'
p4
((dp5
S'position'
p6
I118
sS'width'
p7
I511
stp8
sS'hhints'
p9
((dp10
g6
I1607
sg7
I20
stp11
ss."
HStem: 1607 20<302.5 404.5>
VStem: 118 511<112.5 260>
LayerCount: 2
Fore
SplineSet
151 1392 m 1
 152 1391 l 1
 152 1551 252 1627 353 1627 c 0
 456 1627 561 1548 561 1398 c 0
 561 1257 458 1187 355 1187 c 0
 253 1187 151 1256 151 1392 c 1
311 989 m 1
 310 989 l 1
 321 1035 346 1057 371 1057 c 0
 396 1057 421 1034 431 989 c 0
 495 722 629 343 629 185 c 0
 629 40 498 -35 369 -35 c 0
 243 -35 118 36 118 183 c 0
 118 337 248 716 311 989 c 1
EndSplineSet
EndChar

StartChar: f
Encoding: 92 102 186
Width: 1118
VWidth: 0
GlyphClass: 2
Flags: HW
PickledData: "(dp1
S'com.fontlab.hintData'
p2
(dp3
S'vhints'
p4
((dp5
S'position'
p6
I56
sS'width'
p7
I1092
stp8
sS'hhints'
p9
((dp10
g6
I0
sg7
I21
s(dp11
g6
I1098
sg7
I202
s(dp12
g6
I1477
sg7
I254
stp13
ssS'com.typemytype.robofont.layerData'
p14
(dp15
s."
HStem: 0 21<225 796 225 225> 1098 202<18 225 18 225 796 1110> 1477 254<571 1101 571 796>
VStem: 56 1092
LayerCount: 2
Fore
SplineSet
225 1300 m 1
 225 1624 407 1731 735 1731 c 0
 857 1731 983 1719 1101 1683 c 1
 1101 1477 l 1
 796 1477 l 1
 796 1300 l 1
 1110 1300 l 1
 1110 1098 l 1
 796 1098 l 1
 796 0 l 1
 225 0 l 1
 225 1098 l 1
 18 1098 l 1
 18 1300 l 1
 225 1300 l 1
EndSplineSet
EndChar

StartChar: five
Encoding: 43 53 187
Width: 1429
VWidth: 0
GlyphClass: 2
Flags: HW
PickledData: "(dp1
S'com.fontlab.hintData'
p2
(dp3
S'vhints'
p4
((dp5
S'position'
p6
I66
sS'width'
p7
I1298
stp8
sS'hhints'
p9
((dp10
g6
I-39
sg7
I275
s(dp11
g6
I838
sg7
I267
s(dp12
g6
I1299
sg7
I297
stp13
ss."
HStem: -39 275<616 797 616 950.5> 838 267<616 1118 616 1118> 1299 297<638 1229 638 638>
VStem: 66 1298<449 474>
LayerCount: 2
Fore
SplineSet
955 1105 m 0
 1281 1105 1364 881 1364 553 c 0
 1364 87 1187 -39 714 -39 c 0
 369 -39 113 30 75 331 c 0
 69 376 66 424 66 474 c 1
 616 474 l 1
 616 236 l 1
 797 236 l 1
 797 838 l 1
 616 838 l 1
 616 655 l 1
 83 655 l 1
 136 1596 l 1
 1229 1596 l 1
 1229 1299 l 1
 638 1299 l 1
 604 998 l 1
 672 1077 796 1105 955 1105 c 0
EndSplineSet
EndChar

StartChar: four
Encoding: 42 52 188
Width: 1459
VWidth: 0
GlyphClass: 2
Flags: HW
PickledData: "(dp1
S'com.fontlab.hintData'
p2
(dp3
S'vhints'
p4
((dp5
S'position'
p6
I73
sS'width'
p7
I1304
stp8
sS'hhints'
p9
((dp10
g6
I0
sg7
I21
s(dp11
g6
I240
sg7
I363
s(dp12
g6
I1575
sg7
I20
stp13
ss."
HStem: 0 21<865 1377 865 865> 240 363<649 865 649 865> 1575 20<327 900 900 900>
VStem: 73 1304<240 657 657 657>
LayerCount: 2
Fore
SplineSet
1377 0 m 1
 865 0 l 1
 865 240 l 1
 73 240 l 1
 73 657 l 1
 327 1595 l 1
 900 1595 l 1
 649 657 l 1
 649 603 l 1
 865 603 l 1
 865 938 l 1
 1377 938 l 1
 1377 0 l 1
EndSplineSet
EndChar

StartChar: g
Encoding: 93 103 189
Width: 1463
VWidth: 0
GlyphClass: 2
Flags: HW
PickledData: "(dp1
S'com.fontlab.hintData'
p2
(dp3
S'vhints'
p4
((dp5
S'position'
p6
I85
sS'width'
p7
I1309
stp8
sS'hhints'
p9
((dp10
g6
I-372
sg7
I313
s(dp11
g6
I91
sg7
I225
s(dp12
g6
I1104
sg7
I195
s(dp13
g6
I1104
sg7
I223
stp14
ssS'com.typemytype.robofont.layerData'
p15
(dp16
s."
HStem: -372 313<564 640 528 910> 91 225<358.5 812> 1104 195<645 1383> 1104 223<358.5 812 358.5 645>
VStem: 85 1309
LayerCount: 2
Fore
SplineSet
812 1104 m 1
 645 1104 l 1
 645 316 l 1
 812 316 l 1
 812 1104 l 1
497 1327 m 1
 653 1326 770 1276 836 1187 c 1
 872 1299 l 1
 1383 1299 l 1
 1383 236 l 2
 1383 -184 1156 -372 664 -372 c 0
 464 -372 310 -345 187 -311 c 1
 244 -20 l 1
 327 -43 466 -59 590 -59 c 0
 690 -59 780 -49 825 -22 c 1
 825 205 l 1
 763 125 633 91 494 91 c 0
 223 91 74 214 74 482 c 2
 74 927 l 2
 74 1196 220 1327 497 1327 c 1
EndSplineSet
EndChar

StartChar: gcedilla
Encoding: 244 291 191
Width: 1470
VWidth: 0
GlyphClass: 2
Flags: HW
PickledData: "(dp1
S'com.fontlab.hintData'
p2
(dp3
S'vhints'
p4
((dp5
S'position'
p6
I88
sS'width'
p7
I1309
stp8
sS'hhints'
p9
((dp10
g6
I-372
sg7
I313
s(dp11
g6
I91
sg7
I225
s(dp12
g6
I1104
sg7
I195
s(dp13
g6
I1307
sg7
I20
stp14
ss."
HStem: -372 313 91 225<372.5 826> 1104 195<659 1397> 1307 20<372.5 511>
VStem: 88 1309<482 927 927 1061.5>
LayerCount: 2
Fore
SplineSet
826 1104 m 1
 659 1104 l 1
 659 316 l 1
 826 316 l 1
 826 1104 l 1
511 1327 m 1
 511 1326 l 1
 667 1326 784 1276 850 1187 c 1
 886 1299 l 1
 1397 1299 l 1
 1397 236 l 2
 1397 -184 1170 -372 678 -372 c 0
 478 -372 324 -345 201 -311 c 1
 258 -20 l 1
 408 -61 738 -82 839 -22 c 1
 839 205 l 1
 777 125 647 91 508 91 c 0
 237 91 88 214 88 482 c 2
 88 927 l 2
 88 1196 234 1327 511 1327 c 1
EndSplineSet
EndChar

StartChar: germandbls
Encoding: 180 223 194
Width: 1389
VWidth: 0
GlyphClass: 2
Flags: HW
PickledData: "(dp1
S'com.fontlab.hintData'
p2
(dp3
S'vhints'
p4
((dp5
S'position'
p6
I99
sS'width'
p7
I1228
stp8
sS'hhints'
p9
((dp10
g6
I-37
sg7
I231
s(dp11
g6
I750
sg7
I231
s(dp12
g6
I1358
sg7
I237
stp13
ss."
HStem: -37 231<692 776 692 831> 750 231<719 831 719 831> 1358 237<595 831 595 595>
VStem: 99 1228<121 258 258 553 121 1217 121 1381.5>
LayerCount: 2
Fore
SplineSet
1327 258 m 2
 1327 -16 1056 -37 776 -37 c 2
 692 -37 l 1
 692 194 l 1
 831 194 l 1
 831 750 l 1
 719 750 l 1
 719 981 l 1
 831 981 l 1
 831 1358 l 1
 595 1358 l 1
 595 -205 l 1
 99 -205 l 1
 99 1217 l 2
 99 1546 379 1595 715 1595 c 0
 975 1595 1172 1538 1236 1350 c 0
 1254 1297 1258 1235 1258 1170 c 0
 1258 985 1154 883 986 870 c 1
 1177 859 1327 759 1327 553 c 2
 1327 258 l 2
EndSplineSet
EndChar

StartChar: grave
Encoding: 86 96 195
Width: 873
VWidth: 0
GlyphClass: 2
Flags: HW
PickledData: "(dp1
S'com.fontlab.hintData'
p2
(dp3
S'vhints'
p4
((dp5
S'position'
p6
I41
sS'width'
p7
I807
stp8
sS'hhints'
p9
((dp10
g6
I1371
sg7
I559
stp11
ss."
HStem: 1371 559<163.5 802.5>
VStem: 41 807<1405.5 1799>
LayerCount: 2
Fore
SplineSet
814 1480 m 0
 838 1459 848 1438 848 1420 c 0
 848 1391 820 1371 785 1371 c 0
 775 1371 764 1372 753 1376 c 0
 548 1438 261 1510 157 1570 c 0
 76 1617 41 1687 41 1752 c 0
 41 1846 112 1930 215 1930 c 0
 253 1930 295 1919 340 1893 c 0
 441 1835 651 1629 814 1480 c 0
EndSplineSet
EndChar

StartChar: greater
Encoding: 52 62 196
Width: 1035
VWidth: 0
GlyphClass: 2
Flags: HW
PickledData: "(dp1
S'com.fontlab.hintData'
p2
(dp3
S'vhints'
p4
((dp5
S'position'
p6
I86
sS'width'
p7
I877
stp8
sS'hhints'
p9
((dp10
g6
I0
sg7
I21
s(dp11
g6
I1577
sg7
I20
stp12
ss."
HStem: 0 21<86 86> 1577 20<86 86>
VStem: 86 877<489 489 489 504 504 504 1092 1098 489 1597>
LayerCount: 2
Fore
SplineSet
963 489 m 1
 86 0 l 1
 86 504 l 1
 687 797 l 1
 86 1092 l 1
 86 1597 l 1
 963 1098 l 1
 963 489 l 1
EndSplineSet
EndChar

StartChar: guillemotleft
Encoding: 128 171 197
Width: 1806
VWidth: 0
GlyphClass: 2
Flags: HW
PickledData: "(dp1
S'com.fontlab.hintData'
p2
(dp3
S'vhints'
p4
((dp5
S'position'
p6
I94
sS'width'
p7
I1498
stp8
sS'hhints'
p9
((dp10
g6
I190
sg7
I1174
stp11
ss."
HStem: 190 1174<766.5 797 1503 1533>
VStem: 94 1498<740.5 1302>
LayerCount: 2
Fore
SplineSet
1446 213 m 2
 920 593 l 2
 860 636 830 706 830 775 c 0
 831 846 862 919 920 961 c 2
 1446 1341 l 2
 1470 1358 1494 1364 1512 1364 c 0
 1558 1364 1592 1326 1592 1278 c 0
 1592 1256 1586 1233 1568 1209 c 2
 1234 777 l 1
 1568 345 l 2
 1585 323 1590 300 1590 277 c 0
 1590 230 1556 190 1510 190 c 0
 1491 190 1469 196 1446 213 c 2
711 213 m 2
 184 593 l 2
 124 636 94 706 94 775 c 0
 95 846 126 919 184 961 c 2
 711 1341 l 2
 735 1358 757 1364 776 1364 c 0
 822 1364 857 1326 857 1278 c 0
 857 1256 850 1233 832 1209 c 2
 498 777 l 1
 832 345 l 2
 849 323 855 300 855 277 c 0
 855 230 820 190 774 190 c 0
 755 190 732 197 711 213 c 2
EndSplineSet
EndChar

StartChar: guillemotright
Encoding: 144 187 198
Width: 1770
VWidth: 0
GlyphClass: 2
Flags: HW
PickledData: "(dp1
S'com.fontlab.hintData'
p2
(dp3
S'vhints'
p4
((dp5
S'position'
p6
I144
sS'width'
p7
I1498
stp8
sS'hhints'
p9
((dp10
g6
I190
sg7
I1174
stp11
ss."
HStem: 190 1174<203 233 201 235.5 939 969.5 201 971.5>
VStem: 144 1498<740.5 1302>
LayerCount: 2
Fore
SplineSet
816 593 m 2
 290 213 l 2
 267 196 245 190 226 190 c 0
 180 190 146 230 146 277 c 0
 146 300 151 323 168 345 c 2
 502 777 l 1
 168 1209 l 2
 150 1233 144 1256 144 1278 c 0
 144 1326 178 1364 224 1364 c 0
 242 1364 266 1358 290 1341 c 2
 816 961 l 2
 874 919 905 846 906 775 c 0
 906 706 876 636 816 593 c 2
1552 593 m 2
 1025 213 l 2
 1004 197 981 190 962 190 c 0
 916 190 881 230 881 277 c 0
 881 300 887 323 904 345 c 2
 1238 777 l 1
 904 1209 l 2
 886 1233 879 1256 879 1278 c 0
 879 1326 914 1364 960 1364 c 0
 979 1364 1001 1358 1025 1341 c 2
 1552 961 l 2
 1610 919 1641 846 1642 775 c 0
 1642 706 1612 636 1552 593 c 2
EndSplineSet
EndChar

StartChar: guilsinglleft
Encoding: 395 8249 199
Width: 1036
VWidth: 0
GlyphClass: 2
Flags: HW
PickledData: "(dp1
S'com.fontlab.hintData'
p2
(dp3
S'vhints'
p4
((dp5
S'position'
p6
I144
sS'width'
p7
I762
stp8
sS'hhints'
p9
((dp10
g6
I190
sg7
I1174
stp11
ss."
HStem: 190 1174<817 847>
VStem: 144 762<740.5 1302>
LayerCount: 2
Fore
SplineSet
760 213 m 2
 234 593 l 2
 174 636 144 706 144 775 c 0
 145 846 176 919 234 961 c 2
 760 1341 l 2
 784 1358 808 1364 826 1364 c 0
 872 1364 906 1326 906 1278 c 0
 906 1256 900 1233 882 1209 c 2
 548 777 l 1
 882 345 l 2
 899 323 904 300 904 277 c 0
 904 230 870 190 824 190 c 0
 805 190 783 196 760 213 c 2
EndSplineSet
EndChar

StartChar: guilsinglright
Encoding: 396 8250 200
Width: 1034
VWidth: 0
GlyphClass: 2
Flags: HW
PickledData: "(dp1
S'com.fontlab.hintData'
p2
(dp3
S'vhints'
p4
((dp5
S'position'
p6
I144
sS'width'
p7
I762
stp8
sS'hhints'
p9
((dp10
g6
I190
sg7
I1174
stp11
ss."
HStem: 190 1174<203 233 201 235.5>
VStem: 144 762<740.5 1302>
LayerCount: 2
Fore
SplineSet
816 593 m 2
 290 213 l 2
 267 196 245 190 226 190 c 0
 180 190 146 230 146 277 c 0
 146 300 151 323 168 345 c 2
 502 777 l 1
 168 1209 l 2
 150 1233 144 1256 144 1278 c 0
 144 1326 178 1364 224 1364 c 0
 242 1364 266 1358 290 1341 c 2
 816 961 l 2
 874 919 905 846 906 775 c 0
 906 706 876 636 816 593 c 2
EndSplineSet
EndChar

StartChar: h
Encoding: 94 104 201
Width: 1494
VWidth: 0
GlyphClass: 2
Flags: HW
PickledData: "(dp1
S'com.fontlab.hintData'
p2
(dp3
S'vhints'
p4
((dp5
S'position'
p6
I105
sS'width'
p7
I1309
stp8
sS'hhints'
p9
((dp10
g6
I0
sg7
I21
s(dp11
g6
I1105
sg7
I222
s(dp12
g6
I1690
sg7
I20
stp13
ssS'com.typemytype.robofont.layerData'
p14
(dp15
s."
HStem: 0 21<101 672 101 101 839 1410 839 839> 1105 222<672 1127.5> 1690 20<101 672 672 672>
VStem: 105 1309
LayerCount: 2
Fore
SplineSet
993 1327 m 0
 1262 1327 1410 1206 1410 945 c 2
 1410 0 l 1
 839 0 l 1
 839 1105 l 1
 672 1105 l 1
 672 0 l 1
 101 0 l 1
 101 1710 l 1
 672 1710 l 1
 672 1210 l 1
 729 1288 860 1327 993 1327 c 0
EndSplineSet
EndChar

StartChar: hbar
Encoding: 250 295 202
Width: 1511
VWidth: 0
GlyphClass: 2
Flags: HW
PickledData: "(dp1
S'com.fontlab.hintData'
p2
(dp3
S'vhints'
p4
((dp5
S'position'
p6
I43
sS'width'
p7
I1396
stp8
sS'hhints'
p9
((dp10
g6
I0
sg7
I21
s(dp11
g6
I1065
sg7
I278
s(dp12
g6
I1450
sg7
I169
s(dp13
g6
I1450
sg7
I260
stp14
ss."
HStem: 0 21<130 702 130 130 868 1439 868 868> 1065 278<702 1160.5 702 1160.5> 1450 169<43 1188 43 1188> 1450 260<130 702 130 1188 43 702>
VStem: 43 1396<0 1619 0 1619>
LayerCount: 2
Fore
SplineSet
1023 1343 m 0
 1298 1343 1439 1213 1439 945 c 2
 1439 0 l 1
 868 0 l 1
 868 1065 l 1
 702 1065 l 1
 702 0 l 1
 130 0 l 1
 130 1450 l 1
 1 1450 l 1
 1 1619 l 1
 130 1619 l 1
 130 1710 l 1
 702 1710 l 1
 702 1619 l 1
 1146 1619 l 1
 1146 1450 l 1
 702 1450 l 1
 702 1210 l 1
 756 1297 884 1343 1023 1343 c 0
EndSplineSet
EndChar

StartChar: hungarumlaut
Encoding: 375 733 204
Width: 873
VWidth: 0
GlyphClass: 2
Flags: HW
PickledData: "(dp1
S'com.fontlab.hintData'
p2
(dp3
S'vhints'
p4
((dp5
S'position'
p6
I152
sS'width'
p7
I989
stp8
sS'hhints'
p9
((dp10
g6
I31
sg7
I848
stp11
ss."
HStem: 31 848
VStem: 152 989
LayerCount: 2
Fore
SplineSet
89 1480 m 0
 252 1629 462 1835 563 1893 c 0
 608 1919 650 1930 688 1930 c 0
 791 1930 862 1846 862 1752 c 0
 862 1687 827 1617 746 1570 c 0
 642 1510 355 1438 150 1376 c 0
 139 1372 128 1371 118 1371 c 0
 83 1371 55 1391 55 1420 c 0
 55 1438 65 1459 89 1480 c 0
780 1480 m 0
 943 1629 1153 1835 1254 1893 c 0
 1299 1919 1341 1930 1379 1930 c 0
 1482 1930 1553 1846 1553 1752 c 0
 1553 1687 1518 1617 1437 1570 c 0
 1333 1510 1046 1438 841 1376 c 0
 830 1372 819 1371 809 1371 c 0
 774 1371 746 1391 746 1420 c 0
 746 1438 756 1459 780 1480 c 0
EndSplineSet
EndChar

StartChar: hyphen
Encoding: 35 45 205
Width: 1328
VWidth: 0
GlyphClass: 2
Flags: HW
PickledData: "(dp1
S'com.fontlab.hintData'
p2
(dp3
S'vhints'
p4
((dp5
S'position'
p6
I164
sS'width'
p7
I1001
stp8
sS'hhints'
p9
((dp10
g6
I478
sg7
I333
stp11
ss."
HStem: 478 333<164 1165 164 1165>
VStem: 164 1001<478 811 478 811>
LayerCount: 2
Fore
SplineSet
1165 811 m 1
 1165 478 l 1
 164 478 l 1
 164 811 l 1
 1165 811 l 1
EndSplineSet
EndChar

StartChar: i
Encoding: 95 105 206
Width: 751
VWidth: 0
GlyphClass: 2
Flags: HW
PickledData: "(dp1
S'com.fontlab.hintData'
p2
(dp3
S'vhints'
p4
((dp5
S'position'
p6
I104
sS'width'
p7
I571
stp8
sS'hhints'
p9
((dp10
g6
I0
sg7
I21
s(dp11
g6
I1280
sg7
I20
s(dp12
g6
I1425
sg7
I284
stp13
ssS'com.typemytype.robofont.layerData'
p14
(dp15
s."
HStem: 0 21<90 661 90 90> 1280 20<90 661 661 661> 1425 284<90 661 90 661>
VStem: 104 571
LayerCount: 2
Fore
SplineSet
661 1709 m 1
 661 1425 l 1
 90 1425 l 1
 90 1709 l 1
 661 1709 l 1
661 0 m 1
 90 0 l 1
 90 1300 l 1
 661 1300 l 1
 661 0 l 1
EndSplineSet
EndChar

StartChar: ij
Encoding: 262 307 212
Width: 1646
VWidth: 0
GlyphClass: 2
Flags: HW
PickledData: "(dp1
S'com.fontlab.hintData'
p2
(dp3
S'vhints'
p4
((dp5
S'position'
p6
I107
sS'width'
p7
I1454
stp8
sS'hhints'
p9
((dp10
g6
I-326
sg7
I260
s(dp11
g6
I0
sg7
I21
s(dp12
g6
I1280
sg7
I20
s(dp13
g6
I1425
sg7
I284
stp14
ss."
HStem: -326 260<800 1248.5> 0 21<107 678 107 107> 1280 20<107 678 678 678 989 1561 1561 1561> 1425 284<107 678 107 678 989 1561>
VStem: 107 1454<0 94 94 1300 -52.5 1300 1425 1709>
LayerCount: 2
Fore
SplineSet
1561 1709 m 1
 1561 1425 l 1
 989 1425 l 1
 989 1709 l 1
 1561 1709 l 1
1561 94 m 2
 1561 -199 1397 -326 1100 -326 c 0
 991 -326 911 -321 830 -305 c 1
 800 -66 l 1
 989 -66 l 1
 989 1300 l 1
 1561 1300 l 1
 1561 94 l 2
678 1709 m 1
 678 1425 l 1
 107 1425 l 1
 107 1709 l 1
 678 1709 l 1
678 0 m 1
 107 0 l 1
 107 1300 l 1
 678 1300 l 1
 678 0 l 1
EndSplineSet
EndChar

StartChar: j
Encoding: 96 106 216
Width: 827
VWidth: 0
GlyphClass: 2
Flags: HW
PickledData: "(dp1
S'com.fontlab.hintData'
p2
(dp3
S'vhints'
p4
((dp5
S'position'
p6
I23
sS'width'
p7
I761
stp8
sS'hhints'
p9
((dp10
g6
I-326
sg7
I260
s(dp11
g6
I1280
sg7
I20
s(dp12
g6
I1425
sg7
I284
stp13
ssS'com.typemytype.robofont.layerData'
p14
(dp15
s."
HStem: -326 260<-24 424.5> 1280 20<165 737 737 737> 1425 284<165 737 165 737>
VStem: 23 761
LayerCount: 2
Fore
SplineSet
737 1709 m 1
 737 1425 l 1
 165 1425 l 1
 165 1709 l 1
 737 1709 l 1
737 94 m 2
 737 -199 573 -326 276 -326 c 0
 167 -326 87 -321 6 -305 c 1
 -24 -66 l 1
 165 -66 l 1
 165 1300 l 1
 737 1300 l 1
 737 94 l 2
EndSplineSet
EndChar

StartChar: k
Encoding: 97 107 218
Width: 1520
VWidth: 0
GlyphClass: 2
Flags: HW
PickledData: "(dp1
S'com.fontlab.hintData'
p2
(dp3
S'vhints'
p4
((dp5
S'position'
p6
I105
sS'width'
p7
I1433
stp8
sS'hhints'
p9
((dp10
g6
I0
sg7
I21
s(dp11
g6
I1280
sg7
I20
s(dp12
g6
I1690
sg7
I20
stp13
ssS'com.typemytype.robofont.layerData'
p14
(dp15
s."
HStem: 0 21<101 101 101 672 954 954 954 1534> 1280 20<941 1527 1527 1527> 1690 20<101 672 672 672>
VStem: 105 1433
LayerCount: 2
Fore
SplineSet
101 0 m 1
 101 1710 l 1
 672 1710 l 1
 672 798 l 1
 941 1300 l 1
 1527 1300 l 1
 1196 690 l 1
 1534 0 l 1
 954 0 l 1
 715 575 l 1
 672 478 l 1
 672 0 l 1
 101 0 l 1
EndSplineSet
EndChar

StartChar: kgreenlandic
Encoding: 267 312 220
Width: 1590
VWidth: 0
GlyphClass: 2
Flags: HW
PickledData: "(dp1
S'com.fontlab.hintData'
p2
(dp3
S'vhints'
p4
((dp5
S'position'
p6
I100
sS'width'
p7
I1461
stp8
sS'hhints'
p9
((dp10
g6
I0
sg7
I21
s(dp11
g6
I1279
sg7
I20
s(dp12
g6
I1280
sg7
I20
stp13
ss."
HStem: 0 21<100 100 100 684 986 986 986 1561> 1279 20<100 684 684 684> 1280 20<952 1538 1538 1538>
VStem: 100 1461<0 1299 0 1299>
LayerCount: 2
Fore
SplineSet
100 0 m 1
 100 1299 l 1
 684 1299 l 1
 684 858 l 1
 952 1300 l 1
 1538 1300 l 1
 1203 790 l 1
 1561 0 l 1
 986 0 l 1
 797 455 l 1
 684 318 l 1
 684 0 l 1
 100 0 l 1
EndSplineSet
EndChar

StartChar: l
Encoding: 98 108 221
Width: 760
VWidth: 0
GlyphClass: 2
Flags: HW
PickledData: "(dp1
S'com.fontlab.hintData'
p2
(dp3
S'vhints'
p4
((dp5
S'position'
p6
I105
sS'width'
p7
I571
stp8
sS'hhints'
p9
((dp10
g6
I0
sg7
I21
s(dp11
g6
I1690
sg7
I20
stp12
ss."
HStem: 0 21<105 676 105 105> 1690 20<105 676 676 676>
VStem: 105 571<0 1710>
LayerCount: 2
Fore
SplineSet
676 0 m 1
 105 0 l 1
 105 1710 l 1
 676 1710 l 1
 676 0 l 1
EndSplineSet
EndChar

StartChar: less
Encoding: 50 60 226
Width: 1036
VWidth: 0
GlyphClass: 2
Flags: HW
PickledData: "(dp1
S'com.fontlab.hintData'
p2
(dp3
S'vhints'
p4
((dp5
S'position'
p6
I75
sS'width'
p7
I876
stp8
sS'hhints'
p9
((dp10
g6
I0
sg7
I21
s(dp11
g6
I1577
sg7
I20
stp12
ss."
HStem: 0 21<951 951> 1577 20<951 951>
VStem: 75 876<489 504 1092 1098 1098 1098>
LayerCount: 2
Fore
SplineSet
75 1098 m 1
 951 1597 l 1
 951 1092 l 1
 350 797 l 1
 951 504 l 1
 951 0 l 1
 75 489 l 1
 75 1098 l 1
EndSplineSet
EndChar

StartChar: logicalnot
Encoding: 129 172 227
Width: 1269
VWidth: 0
GlyphClass: 2
Flags: HW
PickledData: "(dp1
S'com.fontlab.hintData'
p2
(dp3
S'vhints'
p4
((dp5
S'position'
p6
I950
sS'width'
p7
I229
stp8
sS'hhints'
p9
((dp10
g6
I791
sg7
I314
stp11
ss."
HStem: 791 314<83 950 83 1179>
VStem: 950 229<300 791 791 791>
LayerCount: 2
Fore
SplineSet
1179 300 m 1
 950 300 l 1
 950 791 l 1
 83 791 l 1
 83 1105 l 1
 1179 1105 l 1
 1179 300 l 1
EndSplineSet
EndChar

StartChar: lslash
Encoding: 277 322 228
Width: 1145
VWidth: 0
GlyphClass: 2
Flags: HW
PickledData: "(dp1
S'com.fontlab.hintData'
p2
(dp3
S'vhints'
p4
((dp5
S'position'
p6
I64
sS'width'
p7
I1030
stp8
sS'hhints'
p9
((dp10
g6
I0
sg7
I21
s(dp11
g6
I1690
sg7
I20
stp12
ss."
HStem: 0 21<281 852 281 281> 1690 20<281 852 852 852>
VStem: 64 1030<539 1023 788 1023>
LayerCount: 2
Fore
SplineSet
852 0 m 1
 281 0 l 1
 281 641 l 1
 64 539 l 1
 64 788 l 1
 281 890 l 1
 281 1710 l 1
 852 1710 l 1
 852 1158 l 1
 1094 1271 l 1
 1094 1023 l 1
 852 909 l 1
 852 0 l 1
EndSplineSet
EndChar

StartChar: m
Encoding: 99 109 229
Width: 2196
VWidth: 0
GlyphClass: 2
Flags: HW
PickledData: "(dp1
S'com.fontlab.hintData'
p2
(dp3
S'vhints'
p4
((dp5
S'position'
p6
I100
sS'width'
p7
I2016
stp8
sS'hhints'
p9
((dp10
g6
I0
sg7
I21
s(dp11
g6
I1105
sg7
I195
s(dp12
g6
I1105
sg7
I222
stp13
ssS'com.typemytype.robofont.layerData'
p14
(dp15
s."
HStem: 0 21<96 659 96 96 826 1383 826 826 1549 2112 1549 1549> 1105 195<96 826 96 659> 1105 222<659 1081>
VStem: 100 2016
LayerCount: 2
Fore
SplineSet
1689 1327 m 0
 1956 1327 2112 1202 2112 944 c 2
 2112 0 l 1
 1549 0 l 1
 1549 1105 l 1
 1376 1105 l 1
 1382 1072 1383 1037 1383 1001 c 2
 1383 0 l 1
 826 0 l 1
 826 1105 l 1
 659 1105 l 1
 659 0 l 1
 96 0 l 1
 96 1300 l 1
 608 1300 l 1
 645 1188 l 1
 710 1276 854 1327 1003 1327 c 0
 1159 1327 1274 1274 1342 1191 c 1
 1404 1281 1531 1327 1689 1327 c 0
EndSplineSet
EndChar

StartChar: macron
Encoding: 132 175 230
Width: 999
VWidth: 0
GlyphClass: 2
Flags: HW
PickledData: "(dp1
S'com.fontlab.hintData'
p2
(dp3
S'vhints'
p4
((dp5
S'position'
p6
I87
sS'width'
p7
I833
stp8
sS'hhints'
p9
((dp10
g6
I666
sg7
I231
stp11
ss."
HStem: 666 231<87 920 87 920>
VStem: 87 833<666 897 666 897>
LayerCount: 2
Fore
SplineSet
920 897 m 1
 920 666 l 1
 87 666 l 1
 87 897 l 1
 920 897 l 1
EndSplineSet
EndChar

StartChar: minus
Encoding: 65537 8722 231
Width: 1286
VWidth: 0
Flags: HW
PickledData: "(dp1
S'com.fontlab.hintData'
p2
(dp3
S'vhints'
p4
((dp5
S'position'
p6
I67
sS'width'
p7
I1162
stp8
sS'hhints'
p9
((dp10
g6
I92
sg7
I467
s(dp11
g6
I670
sg7
I238
s(dp12
g6
I1000
sg7
I497
stp13
ssS'com.typemytype.robofont.layerData'
p14
(dp15
s."
HStem: 92 467 670 238<67 1229 67 1229> 1000 497
VStem: 67 1162<670 908 670 908>
LayerCount: 2
Fore
SplineSet
1229 908 m 1
 1229 670 l 1
 67 670 l 1
 67 908 l 1
 1229 908 l 1
EndSplineSet
EndChar

StartChar: multiply
Encoding: 172 215 232
Width: 1310
VWidth: 0
GlyphClass: 2
Flags: HW
PickledData: "(dp1
S'com.fontlab.hintData'
p2
(dp3
S'vhints'
p4
((dp5
S'position'
p6
I53
sS'width'
p7
I1213
stp8
sS'hhints'
p9
((dp10
g6
I4
sg7
I1290
stp11
ss."
HStem: 4 1290<401 401 401 917>
VStem: 53 1213<375 375 375 924>
LayerCount: 2
Fore
SplineSet
1266 924 m 1
 1008 649 l 1
 1266 375 l 1
 917 4 l 1
 660 279 l 1
 401 4 l 1
 53 375 l 1
 311 649 l 1
 53 924 l 1
 401 1294 l 1
 660 1020 l 1
 917 1294 l 1
 1266 924 l 1
EndSplineSet
EndChar

StartChar: n
Encoding: 100 110 233
Width: 1489
VWidth: 0
GlyphClass: 2
Flags: HW
PickledData: "(dp1
S'com.fontlab.hintData'
p2
(dp3
S'vhints'
p4
((dp5
S'position'
p6
I99
sS'width'
p7
I1309
stp8
sS'hhints'
p9
((dp10
g6
I0
sg7
I21
s(dp11
g6
I1105
sg7
I195
s(dp12
g6
I1105
sg7
I222
stp13
ssS'com.typemytype.robofont.layerData'
p14
(dp15
s."
HStem: 0 21<96 667 96 96 834 1405 834 834> 1105 195<96 834 96 667> 1105 222<667 984>
VStem: 99 1309
LayerCount: 2
Fore
SplineSet
984 1327 m 0
 1257 1326 1405 1195 1405 944 c 2
 1405 0 l 1
 834 0 l 1
 834 1105 l 1
 667 1105 l 1
 667 0 l 1
 96 0 l 1
 96 1300 l 1
 606 1300 l 1
 643 1188 l 1
 702 1271 834 1327 984 1327 c 0
EndSplineSet
EndChar

StartChar: nine
Encoding: 47 57 237
Width: 1445
VWidth: 0
GlyphClass: 2
Flags: HW
PickledData: "(dp1
S'com.fontlab.hintData'
p2
(dp3
S'vhints'
p4
((dp5
S'position'
p6
I68
sS'width'
p7
I1297
stp8
sS'hhints'
p9
((dp10
g6
I-40
sg7
I265
s(dp11
g6
I508
sg7
I271
s(dp12
g6
I1358
sg7
I271
stp13
ss."
HStem: -40 265<645 803 645 932> 508 271<377 799 628 799 628 803> 1358 271<628 799 628 628>
VStem: 68 1297<879.5 1116 302 1311>
LayerCount: 2
Fore
SplineSet
68 1071 m 0
 68 1551 325 1629 722 1629 c 0
 1130 1629 1365 1508 1365 1116 c 2
 1365 520 l 2
 1365 84 1131 -40 733 -40 c 0
 490 -40 124 0 115 328 c 0
 114 362 114 394 114 424 c 1
 645 424 l 1
 645 225 l 1
 803 225 l 1
 803 508 l 1
 576 508 l 2
 178 508 68 688 68 1071 c 0
799 1358 m 1
 628 1358 l 1
 628 779 l 1
 799 779 l 1
 799 1358 l 1
EndSplineSet
EndChar

StartChar: numbersign
Encoding: 25 35 240
Width: 1718
VWidth: 0
GlyphClass: 2
Flags: HW
PickledData: "(dp1
S'com.fontlab.hintData'
p2
(dp3
S'vhints'
p4
((dp5
S'position'
p6
I70
sS'width'
p7
I1594
stp8
sS'hhints'
p9
((dp10
g6
I0
sg7
I21
s(dp11
g6
I429
sg7
I192
s(dp12
g6
I993
sg7
I207
s(dp13
g6
I1575
sg7
I20
stp14
ss."
HStem: 0 21<143 645 143 143 841 1342 841 841> 429 192<96 204 70 234 734 902> 993 207<166 285 137 319 819 983> 1575 20<373 872 872 872 1071 1569 1569 1569>
VStem: 70 1594<429 1200>
LayerCount: 2
Fore
SplineSet
734 621 m 1
 931 621 l 1
 983 993 l 1
 786 993 l 1
 734 621 l 1
1567 430 m 1
 1402 430 l 1
 1342 0 l 1
 841 0 l 1
 902 429 l 1
 705 429 l 1
 645 0 l 1
 143 0 l 1
 204 429 l 1
 70 429 l 1
 96 621 l 1
 234 621 l 1
 285 993 l 1
 137 993 l 1
 166 1200 l 1
 319 1200 l 1
 373 1595 l 1
 872 1595 l 1
 819 1200 l 1
 1016 1200 l 1
 1071 1595 l 1
 1569 1595 l 1
 1516 1200 l 1
 1664 1200 l 1
 1634 994 l 1
 1483 994 l 1
 1431 621 l 1
 1594 621 l 1
 1567 430 l 1
EndSplineSet
EndChar

StartChar: o
Encoding: 101 111 241
Width: 1457
VWidth: 0
GlyphClass: 2
Flags: HW
PickledData: "(dp1
S'com.fontlab.hintData'
p2
(dp3
S'vhints'
p4
((dp5
S'position'
p6
I87
sS'width'
p7
I1309
stp8
sS'hhints'
p9
((dp10
g6
I-27
sg7
I260
s(dp11
g6
I1105
sg7
I222
stp12
ssS'com.typemytype.robofont.layerData'
p13
(dp14
s."
HStem: -27 260 1105 222<645 811 645 645>
VStem: 87 1309
LayerCount: 2
Fore
SplineSet
732 -30 m 0
 414 -30 74 -12 74 348 c 2
 74 953 l 2
 74 1300 436 1327 733 1327 c 0
 1052 1327 1383 1296 1383 952 c 2
 1383 347 l 2
 1383 -22 1037 -30 732 -30 c 0
645 228 m 1
 811 228 l 1
 811 1105 l 1
 645 1105 l 1
 645 228 l 1
EndSplineSet
EndChar

StartChar: oe
Encoding: 291 339 246
Width: 2136
VWidth: 0
GlyphClass: 2
Flags: HW
PickledData: "(dp1
S'com.fontlab.hintData'
p2
(dp3
S'vhints'
p4
((dp5
S'position'
p6
I85
sS'width'
p7
I1984
stp8
sS'hhints'
p9
((dp10
g6
I-28
sg7
I277
s(dp11
g6
I620
sg7
I205
s(dp12
g6
I1051
sg7
I279
stp13
ss."
HStem: -28 277<1367.5 1502 1351 1538> 620 205<1351 1501 1350 2065 1351 1351> 1051 279<649 786.5 620 799 649 649 1366.5 1501>
VStem: 85 1984<367 368 368 554 278 930 931 944.5 278 1021>
LayerCount: 2
Fore
SplineSet
1350 825 m 1
 1501 825 l 1
 1501 1051 l 1
 1350 1051 l 1
 1350 825 l 1
649 248 m 1
 799 248 l 1
 799 1051 l 1
 649 1051 l 1
 649 248 l 1
1448 -28 m 0
 1287 -28 1121 -9 1075 96 c 1
 1074 94 l 1
 1011 2 874 -30 711 -30 c 0
 410 -30 103 10 88 282 c 0
 86 312 85 340 85 367 c 2
 85 930 l 2
 85 1112 138 1203 268 1262 c 0
 382 1313 530 1330 710 1330 c 0
 863 1330 1024 1305 1074 1211 c 1
 1134 1304 1286 1330 1447 1330 c 0
 1629 1330 1774 1313 1888 1262 c 0
 1989 1217 2061 1145 2067 1016 c 0
 2068 986 2069 958 2069 931 c 2
 2065 620 l 1
 1351 620 l 1
 1351 249 l 1
 1502 249 l 1
 1502 554 l 1
 2069 554 l 1
 2069 368 l 2
 2069 188 2019 96 1889 39 c 0
 1775 -11 1628 -28 1448 -28 c 0
EndSplineSet
EndChar

StartChar: ogonek
Encoding: 373 731 247
Width: 693
VWidth: 0
GlyphClass: 2
Flags: HW
PickledData: "(dp1
S'com.fontlab.hintData'
p2
(dp3
S'vhints'
p4
((dp5
S'position'
p6
I125
sS'width'
p7
I531
stp8
sS'hhints'
p9
((dp10
g6
I-630
sg7
I327
s(dp11
g6
I0
sg7
I21
stp12
ss."
HStem: -630 327<477.5 485> 0 21<506 506>
VStem: 125 531<-399 -274 -589 -243.5>
LayerCount: 2
Fore
SplineSet
566 0 m 1
 637 -72 l 1
 568 -119 527 -196 527 -261 c 0
 527 -324 565 -375 652 -375 c 0
 688 -375 733 -366 787 -346 c 1
 787 -661 l 1
 713 -689 646 -702 586 -702 c 0
 379 -702 256 -554 256 -388 c 0
 256 -243 350 -84 566 0 c 1
EndSplineSet
EndChar

StartChar: one
Encoding: 39 49 251
Width: 961
VWidth: 0
GlyphClass: 2
Flags: HW
PickledData: "(dp1
S'com.fontlab.hintData'
p2
(dp3
S'vhints'
p4
((dp5
S'position'
p6
I41
sS'width'
p7
I825
stp8
sS'hhints'
p9
((dp10
g6
I0
sg7
I21
s(dp11
g6
I1291
sg7
I220
s(dp12
g6
I1291
sg7
I304
stp13
ss."
HStem: 0 21<262 866 262 262> 1291 220<41 109.5 41 262 41 109.5> 1291 304<41 866>
VStem: 41 825<1291 1511 1511 1511>
LayerCount: 2
Fore
SplineSet
41 1511 m 1
 178 1511 300 1542 388 1595 c 1
 866 1595 l 1
 866 0 l 1
 262 0 l 1
 262 1291 l 1
 41 1291 l 1
 41 1511 l 1
EndSplineSet
EndChar

StartChar: onehalf
Encoding: 146 189 252
Width: 2580
VWidth: 0
GlyphClass: 2
Flags: HW
PickledData: "(dp1
S'com.fontlab.hintData'
p2
(dp3
S'vhints'
p4
((dp5
S'position'
p6
I484
sS'width'
p7
I2657
stp8
sS'hhints'
p9
((dp10
g6
I-1
sg7
I240
s(dp11
g6
I1086
sg7
I220
s(dp12
g6
I1411
sg7
I195
stp13
ss."
HStem: -1 240 1086 220 1411 195
VStem: 484 2657
LayerCount: 2
Fore
SplineSet
766 0 m 1
 1118 1595 l 1
 1552 1595 l 1
 1201 0 l 1
 766 0 l 1
31 1415 m 1
 121 1415 201 1435 258 1470 c 1
 570 1470 l 1
 570 430 l 1
 175 430 l 1
 175 1271 l 1
 31 1271 l 1
 31 1415 l 1
1685 836 m 1
 1685 850 1684 864 1684 878 c 0
 1684 1148 1863 1209 2106 1209 c 0
 2368 1209 2522 1142 2522 876 c 0
 2522 634 2364 548 2199 474 c 0
 2129 443 2049 404 2049 332 c 1
 2482 332 l 1
 2482 134 l 1
 1685 134 l 1
 1685 313 l 2
 1685 575 1819 690 2013 768 c 0
 2075 793 2149 823 2149 877 c 2
 2149 1030 l 1
 2049 1030 l 1
 2049 836 l 1
 1685 836 l 1
EndSplineSet
EndChar

StartChar: onequarter
Encoding: 145 188 253
Width: 2565
VWidth: 0
GlyphClass: 2
Flags: HW
PickledData: "(dp1
S'com.fontlab.hintData'
p2
(dp3
S'vhints'
p4
((dp5
S'position'
p6
I314
sS'width'
p7
I2636
stp8
sS'hhints'
p9
((dp10
g6
I-1
sg7
I21
s(dp11
g6
I193
sg7
I288
s(dp12
g6
I1416
sg7
I195
stp13
ss."
HStem: -1 21 193 288 1416 195
VStem: 314 2636
LayerCount: 2
Fore
SplineSet
751 0 m 1
 1103 1595 l 1
 1537 1595 l 1
 1186 0 l 1
 751 0 l 1
31 1415 m 1
 121 1415 201 1435 258 1470 c 1
 570 1470 l 1
 570 430 l 1
 175 430 l 1
 175 1271 l 1
 31 1271 l 1
 31 1415 l 1
2499 130 m 1
 2140 130 l 1
 2140 291 l 1
 1624 291 l 1
 1624 571 l 1
 1794 1172 l 1
 2179 1172 l 1
 2010 571 l 1
 2010 535 l 1
 2140 535 l 1
 2140 760 l 1
 2499 760 l 1
 2499 130 l 1
EndSplineSet
EndChar

StartChar: ordfeminine
Encoding: 127 170 254
Width: 1471
VWidth: 0
GlyphClass: 2
Flags: HW
PickledData: "(dp1
S'com.fontlab.hintData'
p2
(dp3
S'vhints'
p4
((dp5
S'position'
p6
I72
sS'width'
p7
I1337
stp8
sS'hhints'
p9
((dp10
g6
I263
sg7
I226
s(dp11
g6
I942
sg7
I171
s(dp12
g6
I1395
sg7
I221
stp13
ss."
HStem: 263 226<350.5 810> 942 171<389 644 389 810> 1395 221<671 810 671 671>
VStem: 72 1337<290 829.5>
LayerCount: 2
Fore
SplineSet
644 942 m 1
 644 489 l 1
 810 489 l 1
 810 942 l 1
 644 942 l 1
135 1294 m 0
 135 1580 446 1616 739 1616 c 0
 921 1616 1068 1601 1186 1553 c 0
 1319 1499 1380 1420 1380 1241 c 2
 1380 546 l 1
 1381 547 l 1
 1381 451 1393 364 1409 290 c 1
 889 290 l 1
 833 428 l 1
 772 327 657 263 493 263 c 0
 208 263 72 396 72 677 c 0
 72 982 234 1113 544 1113 c 0
 651 1113 737 1096 810 1072 c 1
 810 1395 l 1
 671 1395 l 1
 671 1204 l 1
 146 1184 l 1
 140 1219 135 1255 135 1294 c 0
EndSplineSet
EndChar

StartChar: ordmasculine
Encoding: 143 186 255
Width: 1334
VWidth: 0
GlyphClass: 2
Flags: HW
PickledData: "(dp1
S'com.fontlab.hintData'
p2
(dp3
S'vhints'
p4
((dp5
S'position'
p6
I218
sS'width'
p7
I1047
stp8
sS'hhints'
p9
((dp10
g6
I99
sg7
I218
s(dp11
g6
I1014
sg7
I190
stp12
ss."
HStem: 99 218<675 744> 1014 190<675 808 675 675>
VStem: 218 1047<413 892 261 893 261 1039>
LayerCount: 2
Fore
SplineSet
675 317 m 1
 808 317 l 1
 808 1014 l 1
 675 1014 l 1
 675 317 l 1
744 99 m 1
 490 99 218 115 218 413 c 2
 218 893 l 2
 218 1185 507 1204 745 1204 c 0
 996 1204 1265 1180 1265 892 c 2
 1265 412 l 2
 1265 110 990 102 744 99 c 1
EndSplineSet
EndChar

StartChar: oslash
Encoding: 205 248 256
Width: 1465
VWidth: 0
GlyphClass: 2
Flags: HW
PickledData: "(dp1
S'com.fontlab.hintData'
p2
(dp3
S'vhints'
p4
((dp5
S'position'
p6
I56
sS'width'
p7
I1350
stp8
sS'hhints'
p9
((dp10
g6
I-39
sg7
I273
s(dp11
g6
I1106
sg7
I237
stp12
ss."
HStem: -39 273<657 823 657 836> 1106 237<657 745 567.5 823 657 657>
VStem: 56 1350<19 1286>
LayerCount: 2
Fore
SplineSet
657 636 m 1
 823 806 l 1
 823 1106 l 1
 657 1106 l 1
 657 636 l 1
657 234 m 1
 823 234 l 1
 823 689 l 1
 657 519 l 1
 657 234 l 1
86 952 m 2
 86 1298 390 1343 745 1343 c 1
 744 1344 l 1
 957 1344 1128 1324 1255 1249 c 1
 1348 1344 l 1
 1406 1286 l 1
 1320 1198 l 1
 1376 1141 1395 1063 1395 952 c 2
 1395 352 l 2
 1395 172 1330 82 1197 27 c 0
 1078 -22 928 -39 744 -39 c 0
 522 -39 343 -18 215 65 c 1
 114 -39 l 1
 56 19 l 1
 153 118 l 1
 103 175 86 249 86 352 c 2
 86 952 l 2
EndSplineSet
EndChar

StartChar: p
Encoding: 102 112 258
Width: 1480
VWidth: 0
GlyphClass: 2
Flags: HW
PickledData: "(dp1
S'com.fontlab.hintData'
p2
(dp3
S'vhints'
p4
((dp5
S'position'
p6
I626
sS'width'
p7
I44
stp8
sS'hhints'
p9
((dp10
g6
I-408
sg7
I21
s(dp11
g6
I-27
sg7
I226
s(dp12
g6
I1105
sg7
I195
s(dp13
g6
I1105
sg7
I222
stp14
ssS'com.typemytype.robofont.layerData'
p15
(dp16
s."
HStem: -408 21 -27 226 1105 195<96 834 96 667> 1105 222<667 1121>
VStem: 626 44
LayerCount: 2
Fore
SplineSet
667 199 m 1
 834 199 l 1
 834 1105 l 1
 667 1105 l 1
 667 199 l 1
986 -30 m 0
 847 -30 728 8 667 87 c 1
 667 -410 l 1
 96 -410 l 1
 96 1300 l 1
 586 1300 l 1
 623 1188 l 1
 690 1277 831 1327 983 1327 c 0
 1259 1327 1406 1198 1406 926 c 2
 1406 365 l 2
 1406 99 1260 -30 986 -30 c 0
EndSplineSet
EndChar

StartChar: paragraph
Encoding: 139 182 259
Width: 1318
VWidth: 0
GlyphClass: 2
Flags: HW
PickledData: "(dp1
S'com.fontlab.hintData'
p2
(dp3
S'vhints'
p4
((dp5
S'position'
p6
I591
sS'width'
p7
I262
s(dp8
g6
I962
sg7
I261
stp9
sS'hhints'
p10
((dp11
g6
I0
sg7
I21
s(dp12
g6
I1575
sg7
I20
stp13
ss."
HStem: 0 21<591 853 591 591 962 1223 962 962> 1575 20<689 1223 1223 1223>
VStem: 591 262<0 658 0 659 0 659> 962 261<0 658 658 658>
LayerCount: 2
Fore
SplineSet
591 659 m 1
 258 659 56 782 56 1107 c 0
 56 1516 342 1595 689 1595 c 2
 1223 1595 l 1
 1223 0 l 1
 962 0 l 1
 962 658 l 1
 853 658 l 1
 853 0 l 1
 591 0 l 1
 591 659 l 1
EndSplineSet
EndChar

StartChar: parenleft
Encoding: 30 40 260
Width: 860
VWidth: 0
GlyphClass: 2
Flags: HW
PickledData: "(dp1
S'com.fontlab.hintData'
p2
(dp3
S'vhints'
p4
((dp5
S'position'
p6
I51
sS'width'
p7
I720
stp8
sS'hhints'
p9
((dp10
g6
I-169
sg7
I279
s(dp11
g6
I1562
sg7
I279
stp12
ss."
HStem: -169 279<465.5 771 706 771 706 771> 1562 279<678 706 706 771>
VStem: 51 720<-169 1077.5>
LayerCount: 2
Fore
SplineSet
51 827 m 0
 51 1328 253 1841 678 1841 c 2
 771 1841 l 1
 771 1562 l 1
 706 1562 l 2
 545 1562 453 1188 453 827 c 0
 453 466 545 110 706 110 c 2
 771 110 l 1
 771 -169 l 1
 678 -169 l 2
 253 -169 51 326 51 827 c 0
EndSplineSet
EndChar

StartChar: parenright
Encoding: 31 41 261
Width: 861
VWidth: 0
GlyphClass: 2
Flags: HW
PickledData: "(dp1
S'com.fontlab.hintData'
p2
(dp3
S'vhints'
p4
((dp5
S'position'
p6
I90
sS'width'
p7
I720
stp8
sS'hhints'
p9
((dp10
g6
I-169
sg7
I279
s(dp11
g6
I1562
sg7
I279
stp12
ss."
HStem: -169 279<90 155 155 183 90 155> 1562 279<90 155 90 183>
VStem: 90 720<-169 1077.5 110 1077.5 576.5 1841>
LayerCount: 2
Fore
SplineSet
810 827 m 0
 810 326 608 -169 183 -169 c 2
 90 -169 l 1
 90 110 l 1
 155 110 l 2
 316 110 408 466 408 827 c 0
 408 1188 316 1562 155 1562 c 2
 90 1562 l 1
 90 1841 l 1
 183 1841 l 2
 608 1841 810 1328 810 827 c 0
EndSplineSet
EndChar

StartChar: percent
Encoding: 27 37 262
Width: 2792
VWidth: 0
GlyphClass: 2
Flags: HW
PickledData: "(dp1
S'com.fontlab.hintData'
p2
(dp3
S'vhints'
p4
((dp5
S'position'
p6
I125
sS'width'
p7
I2540
stp8
sS'hhints'
p9
((dp10
g6
I129
sg7
I218
s(dp11
g6
I618
sg7
I215
s(dp12
g6
I892
sg7
I217
s(dp13
g6
I1378
sg7
I217
s(dp14
g6
I1612
sg7
I20
stp15
ss."
HStem: 129 218<2172 2262 2172 2325.5> 618 215<532 623 532 686.5> 892 217<2172 2262 2172 2172> 1378 217<532 623 532 532> 1612 20<1395 1779 1779 1779>
VStem: 125 2540<297.5 1286 297.5 1431.5>
LayerCount: 2
Fore
SplineSet
1779 1632 m 1
 1403 -39 l 1
 1015 -39 l 1
 1395 1632 l 1
 1779 1632 l 1
2215 129 m 0
 1990 129 1765 146 1765 441 c 2
 1765 798 l 2
 1765 1091 1990 1109 2214 1109 c 0
 2437 1109 2665 1092 2665 799 c 2
 2665 442 l 2
 2665 153 2436 129 2215 129 c 0
2262 892 m 1
 2172 892 l 1
 2172 347 l 1
 2262 347 l 1
 2262 892 l 1
575 618 m 0
 349 618 125 623 125 927 c 2
 125 1286 l 2
 125 1577 352 1595 574 1595 c 0
 795 1595 1025 1578 1025 1288 c 2
 1025 929 l 2
 1025 630 798 618 575 618 c 0
623 1378 m 1
 532 1378 l 1
 532 833 l 1
 623 833 l 1
 623 1378 l 1
EndSplineSet
EndChar

StartChar: period
Encoding: 36 46 263
Width: 670
VWidth: 0
GlyphClass: 2
Flags: HW
PickledData: "(dp1
S'com.fontlab.hintData'
p2
(dp3
S'vhints'
p4
((dp5
S'position'
p6
I136
sS'width'
p7
I408
stp8
sS'hhints'
p9
((dp10
g6
I-39
sg7
I420
stp11
ss."
HStem: -39 420<289 391>
VStem: 136 408<101 241>
LayerCount: 2
Fore
SplineSet
136 171 m 0
 136 311 238 381 340 381 c 0
 442 381 544 311 544 171 c 0
 544 31 442 -39 340 -39 c 0
 238 -39 136 31 136 171 c 0
EndSplineSet
EndChar

StartChar: plus
Encoding: 33 43 264
Width: 1328
VWidth: 0
GlyphClass: 2
Flags: HW
PickledData: "(dp1
S'com.fontlab.hintData'
p2
(dp3
S'vhints'
p4
((dp5
S'position'
p6
I104
sS'width'
p7
I1121
stp8
sS'hhints'
p9
((dp10
g6
I478
sg7
I333
stp11
ss."
HStem: 478 333<104 469 104 469 861 1225>
VStem: 104 1121<478 811 478 811>
LayerCount: 2
Fore
SplineSet
469 811 m 1
 469 1192 l 1
 861 1192 l 1
 861 811 l 1
 1225 811 l 1
 1225 478 l 1
 861 478 l 1
 861 100 l 1
 469 100 l 1
 469 478 l 1
 104 478 l 1
 104 811 l 1
 469 811 l 1
EndSplineSet
EndChar

StartChar: plusminus
Encoding: 134 177 265
Width: 1304
VWidth: 0
GlyphClass: 2
Flags: HW
PickledData: "(dp1
S'com.fontlab.hintData'
p2
(dp3
S'vhints'
p4
((dp5
S'position'
p6
I92
sS'width'
p7
I1121
stp8
sS'hhints'
p9
((dp10
g6
I-1
sg7
I301
s(dp11
g6
I881
sg7
I333
s(dp12
g6
I1575
sg7
I20
stp13
ss."
HStem: -1 301<230 1064 230 1064> 881 333<92 457 92 457 849 1213> 1575 20<457 849 849 849>
VStem: 92 1121<881 1214 881 1214>
LayerCount: 2
Fore
SplineSet
1064 300 m 1
 1064 -1 l 1
 230 -1 l 1
 230 300 l 1
 1064 300 l 1
457 1214 m 1
 457 1595 l 1
 849 1595 l 1
 849 1214 l 1
 1213 1214 l 1
 1213 881 l 1
 849 881 l 1
 849 503 l 1
 457 503 l 1
 457 881 l 1
 92 881 l 1
 92 1214 l 1
 457 1214 l 1
EndSplineSet
EndChar

StartChar: q
Encoding: 103 113 266
Width: 1459
VWidth: 0
GlyphClass: 2
Flags: HW
PickledData: "(dp1
S'com.fontlab.hintData'
p2
(dp3
S'vhints'
p4
((dp5
S'position'
p6
I85
sS'width'
p7
I1296
stp8
sS'hhints'
p9
((dp10
g6
I-408
sg7
I21
s(dp11
g6
I-27
sg7
I226
s(dp12
g6
I1105
sg7
I195
s(dp13
g6
I1307
sg7
I20
stp14
ssS'com.typemytype.robofont.layerData'
p15
(dp16
s."
HStem: -408 21 -27 226 1105 195<652 1381> 1307 20<364 571.5>
VStem: 85 1296<926 1060>
LayerCount: 2
Fore
SplineSet
817 1105 m 1
 652 1105 l 1
 652 199 l 1
 817 199 l 1
 817 1105 l 1
502 1327 m 0
 641 1327 773 1271 831 1188 c 1
 869 1300 l 1
 1381 1300 l 1
 1381 -410 l 1
 832 -410 l 1
 832 87 l 1
 764 9 644 -30 501 -30 c 0
 227 -30 86 99 86 365 c 2
 86 926 l 1
 85 926 l 1
 85 1194 226 1327 502 1327 c 0
EndSplineSet
EndChar

StartChar: question
Encoding: 53 63 267
Width: 906
VWidth: 0
GlyphClass: 2
Flags: HW
PickledData: "(dp1
S'com.fontlab.hintData'
p2
(dp3
S'vhints'
p4
((dp5
S'position'
p6
I69
sS'width'
p7
I804
stp8
sS'hhints'
p9
((dp10
g6
I-39
sg7
I420
s(dp11
g6
I1264
sg7
I368
s(dp12
g6
I1612
sg7
I20
stp13
ss."
HStem: -39 420<306 408> 1264 368<275 607.5> 1612 20<392 607.5>
VStem: 69 804<1161 1562>
LayerCount: 2
Fore
SplineSet
153 171 m 0
 153 311 255 381 357 381 c 0
 459 381 561 311 561 171 c 0
 561 31 459 -39 357 -39 c 0
 255 -39 153 31 153 171 c 0
417 567 m 0
 412 524 382 510 355 510 c 0
 314 510 294 536 294 582 c 0
 294 814 412 979 439 1123 c 0
 440 1132 441 1141 441 1150 c 0
 441 1212 402 1264 299 1264 c 0
 251 1264 188 1250 105 1215 c 1
 69 1562 l 1
 222 1611 344 1632 440 1632 c 0
 775 1632 873 1473 873 1313 c 0
 873 1009 457 912 417 567 c 0
EndSplineSet
EndChar

StartChar: questiondown
Encoding: 148 191 268
Width: 906
VWidth: 0
GlyphClass: 2
Flags: HW
PickledData: "(dp1
S'com.fontlab.hintData'
p2
(dp3
S'vhints'
p4
((dp5
S'position'
p6
I67
sS'width'
p7
I1276
stp8
sS'hhints'
p9
((dp10
g6
I-40
sg7
I268
s(dp11
g6
I1195
sg7
I397
stp12
ss."
HStem: -40 268 1195 397
VStem: 67 1276
LayerCount: 2
Fore
SplineSet
757 1427 m 0
 757 1287 655 1217 553 1217 c 0
 451 1217 349 1287 349 1427 c 0
 349 1567 451 1637 553 1637 c 0
 655 1637 757 1567 757 1427 c 0
493 1031 m 0
 498 1074 528 1088 555 1088 c 0
 596 1088 616 1062 616 1016 c 0
 616 784 498 619 471 475 c 0
 470 466 469 457 469 448 c 0
 469 386 508 334 611 334 c 0
 659 334 722 348 805 383 c 1
 841 36 l 1
 688 -13 566 -34 470 -34 c 0
 135 -34 37 125 37 285 c 0
 37 589 453 686 493 1031 c 0
EndSplineSet
EndChar

StartChar: quotedbl
Encoding: 24 34 269
Width: 1213
VWidth: 0
GlyphClass: 2
Flags: HW
PickledData: "(dp1
S'com.fontlab.hintData'
p2
(dp3
S'vhints'
p4
((dp5
S'position'
p6
I147
sS'width'
p7
I878
stp8
sS'hhints'
p9
((dp10
g6
I1609
sg7
I20
stp11
ss."
HStem: 1609 20<286 381.5 783 878.5>
VStem: 147 878<1401.5 1510 1398 1513>
LayerCount: 2
Fore
SplineSet
777 896 m 1
 732 1090 644 1349 644 1454 c 0
 644 1572 736 1629 830 1629 c 0
 927 1629 1025 1568 1025 1452 c 0
 1025 1344 932 1086 887 896 c 0
 878 857 854 837 832 837 c 0
 810 837 788 856 777 896 c 1
280 896 m 1
 235 1090 147 1349 147 1454 c 0
 147 1572 239 1629 333 1629 c 0
 430 1629 528 1568 528 1452 c 0
 528 1344 435 1086 390 896 c 0
 381 857 357 837 335 837 c 0
 313 837 291 856 280 896 c 1
EndSplineSet
EndChar

StartChar: quotedblbase
Encoding: 389 8222 270
Width: 1229
VWidth: 0
GlyphClass: 2
Flags: HW
PickledData: "(dp1
S'com.fontlab.hintData'
p2
(dp3
S'vhints'
p4
((dp5
S'position'
p6
I156
sS'width'
p7
I878
stp8
sS'hhints'
p9
((dp10
g6
I-409
sg7
I21
stp11
ss."
HStem: -409 21<333 355 830 852>
VStem: 156 878<155.5 264 152 267>
LayerCount: 2
Fore
SplineSet
786 -350 m 1
 741 -156 653 103 653 208 c 0
 653 326 745 383 839 383 c 0
 936 383 1034 322 1034 206 c 0
 1034 98 941 -160 896 -350 c 0
 887 -389 863 -409 841 -409 c 0
 819 -409 797 -390 786 -350 c 1
289 -350 m 1
 244 -156 156 103 156 208 c 0
 156 326 248 383 342 383 c 0
 439 383 537 322 537 206 c 0
 537 98 444 -160 399 -350 c 0
 390 -389 366 -409 344 -409 c 0
 322 -409 300 -390 289 -350 c 1
EndSplineSet
EndChar

StartChar: quotedblleft
Encoding: 387 8220 271
Width: 1339
VWidth: 0
GlyphClass: 2
Flags: HW
PickledData: "(dp1
S'com.fontlab.hintData'
p2
(dp3
S'vhints'
p4
((dp5
S'position'
p6
I254
sS'width'
p7
I917
stp8
sS'hhints'
p9
((dp10
g6
I1518
sg7
I112
s(dp11
g6
I1607
sg7
I20
stp12
ss."
HStem: 1518 112<490.5 645> 1607 20<645 645 1148 1148>
VStem: 254 917<1162.5 1251.5 1120.5 1319>
LayerCount: 2
Fore
SplineSet
668 1187 m 0
 668 1054 566 987 464 987 c 0
 320 987 254 1098 254 1227 c 0
 254 1411 380 1630 601 1630 c 0
 615 1630 630 1629 645 1627 c 1
 645 1518 l 1
 565 1517 495 1473 489 1396 c 1
 582 1386 668 1316 668 1187 c 0
1171 1187 m 0
 1171 1054 1069 987 967 987 c 0
 823 987 757 1098 757 1227 c 0
 757 1411 883 1630 1104 1630 c 0
 1118 1630 1133 1629 1148 1627 c 1
 1148 1518 l 1
 1068 1517 998 1473 992 1396 c 1
 1085 1386 1171 1316 1171 1187 c 0
EndSplineSet
EndChar

StartChar: quotedblright
Encoding: 388 8221 272
Width: 1327
VWidth: 0
GlyphClass: 2
Flags: HW
PickledData: "(dp1
S'com.fontlab.hintData'
p2
(dp3
S'vhints'
p4
((dp5
S'position'
p6
I254
sS'width'
p7
I917
stp8
sS'hhints'
p9
((dp10
g6
I987
sg7
I112
s(dp11
g6
I1610
sg7
I20
stp12
ss."
HStem: 987 112<277 431.5> 1610 20<407 530 910 1033>
VStem: 254 917<1365.5 1454.5 1298 1496.5>
LayerCount: 2
Fore
SplineSet
757 1430 m 0
 757 1563 859 1630 961 1630 c 0
 1105 1630 1171 1519 1171 1390 c 0
 1171 1206 1045 987 824 987 c 0
 810 987 795 988 780 990 c 1
 780 1099 l 1
 860 1100 930 1144 936 1221 c 1
 843 1231 757 1301 757 1430 c 0
254 1430 m 0
 254 1563 356 1630 458 1630 c 0
 602 1630 668 1519 668 1390 c 0
 668 1206 542 987 321 987 c 0
 307 987 292 988 277 990 c 1
 277 1099 l 1
 357 1100 427 1144 433 1221 c 1
 340 1231 254 1301 254 1430 c 0
EndSplineSet
EndChar

StartChar: quoteleft
Encoding: 384 8216 273
Width: 722
VWidth: 0
GlyphClass: 2
Flags: HW
PickledData: "(dp1
S'com.fontlab.hintData'
p2
(dp3
S'vhints'
p4
((dp5
S'position'
p6
I155
sS'width'
p7
I414
stp8
sS'hhints'
p9
((dp10
g6
I1518
sg7
I112
s(dp11
g6
I1607
sg7
I20
stp12
ss."
HStem: 1518 112<391.5 546> 1607 20<546 546>
VStem: 155 414<1162.5 1251.5 1120.5 1319>
LayerCount: 2
Fore
SplineSet
569 1187 m 0
 569 1054 472 987 375 987 c 0
 224 987 155 1098 155 1227 c 0
 155 1411 281 1630 502 1630 c 0
 516 1630 531 1629 546 1627 c 1
 546 1518 l 1
 466 1517 396 1473 390 1396 c 1
 483 1386 569 1316 569 1187 c 0
EndSplineSet
EndChar

StartChar: quoteright
Encoding: 385 8217 274
Width: 706
VWidth: 0
GlyphClass: 2
Flags: HW
PickledData: "(dp1
S'com.fontlab.hintData'
p2
(dp3
S'vhints'
p4
((dp5
S'position'
p6
I154
sS'width'
p7
I414
stp8
sS'hhints'
p9
((dp10
g6
I987
sg7
I112
s(dp11
g6
I1610
sg7
I20
stp12
ss."
HStem: 987 112<177 331.5> 1610 20<307 430>
VStem: 154 414<1365.5 1454.5 1298 1496.5>
LayerCount: 2
Fore
SplineSet
154 1430 m 0
 154 1563 256 1630 358 1630 c 0
 502 1630 568 1519 568 1390 c 0
 568 1206 442 987 221 987 c 0
 207 987 192 988 177 990 c 1
 177 1099 l 1
 257 1100 327 1144 333 1221 c 1
 240 1231 154 1301 154 1430 c 0
EndSplineSet
EndChar

StartChar: quotesinglbase
Encoding: 386 8218 275
Width: 648
VWidth: 0
GlyphClass: 2
Flags: HW
PickledData: "(dp1
S'com.fontlab.hintData'
p2
(dp3
S'vhints'
p4
((dp5
S'position'
p6
I120
sS'width'
p7
I381
stp8
sS'hhints'
p9
((dp10
g6
I-409
sg7
I21
stp11
ss."
HStem: -409 21<297 319>
VStem: 120 381<155.5 264 152 267>
LayerCount: 2
Fore
SplineSet
253 -350 m 1
 208 -156 120 103 120 208 c 0
 120 326 212 383 306 383 c 0
 403 383 501 322 501 206 c 0
 501 98 408 -160 363 -350 c 0
 354 -389 330 -409 308 -409 c 0
 286 -409 264 -390 253 -350 c 1
EndSplineSet
EndChar

StartChar: quotesingle
Encoding: 29 39 276
Width: 629
VWidth: 0
GlyphClass: 2
Flags: HW
PickledData: "(dp1
S'com.fontlab.hintData'
p2
(dp3
S'vhints'
p4
((dp5
S'position'
p6
I147
sS'width'
p7
I381
stp8
sS'hhints'
p9
((dp10
g6
I1609
sg7
I20
stp11
ss."
HStem: 1609 20<286 381.5>
VStem: 147 381<1401.5 1510 1398 1513>
LayerCount: 2
Fore
SplineSet
280 896 m 1
 235 1090 147 1349 147 1454 c 0
 147 1572 239 1629 333 1629 c 0
 430 1629 528 1568 528 1452 c 0
 528 1344 435 1086 390 896 c 0
 381 857 357 837 335 837 c 0
 313 837 291 856 280 896 c 1
EndSplineSet
EndChar

StartChar: r
Encoding: 104 114 277
Width: 981
VWidth: 0
GlyphClass: 2
Flags: HW
PickledData: "(dp1
S'com.fontlab.hintData'
p2
(dp3
S'vhints'
p4
((dp5
S'position'
p6
I100
sS'width'
p7
I857
stp8
sS'hhints'
p9
((dp10
g6
I0
sg7
I21
s(dp11
g6
I1280
sg7
I20
s(dp12
g6
I1307
sg7
I20
stp13
ss."
HStem: 0 21<100 100 100 671> 1280 20<101 587 587 587> 1307 20<957 957>
VStem: 100 857
LayerCount: 2
Fore
SplineSet
100 0 m 1
 101 1300 l 1
 587 1300 l 1
 628 1153 l 1
 673 1260 802 1323 957 1327 c 1
 957 949 l 1
 671 893 l 1
 671 0 l 1
 100 0 l 1
EndSplineSet
EndChar

StartChar: registered
Encoding: 131 174 281
Width: 1861
VWidth: 0
GlyphClass: 2
Flags: HW
PickledData: "(dp1
S'com.fontlab.hintData'
p2
(dp3
S'vhints'
p4
((dp5
S'position'
p6
I84
sS'width'
p7
I239
s(dp8
g6
I978
sg7
I138
s(dp9
g6
I1541
sg7
I239
stp10
sS'hhints'
p11
((dp12
g6
I-101
sg7
I169
s(dp13
g6
I756
sg7
I159
s(dp14
g6
I1274
sg7
I160
s(dp15
g6
I1573
sg7
I176
stp16
ss."
HStem: -101 169<727.5 1116 727.5 1154.5> 756 159<895 978 895 978> 1274 160<895 978 895 895> 1573 176<726 1103.5>
VStem: 84 239<539 1114> 978 138<279 835 756 835 835 1274> 1541 239<482 539 539 1116>
LayerCount: 2
Fore
SplineSet
895 915 m 1
 978 915 l 1
 978 1274 l 1
 895 1274 l 1
 895 915 l 1
1116 835 m 1
 1227 828 l 2
 1311 822 1357 751 1357 643 c 2
 1357 279 l 1
 978 279 l 1
 978 756 l 1
 895 756 l 1
 895 279 l 1
 506 279 l 1
 506 1434 l 1
 1016 1434 l 2
 1171 1434 1361 1423 1361 1164 c 2
 1361 1071 l 2
 1361 945 1308 871 1226 864 c 2
 1116 854 l 1
 1116 835 l 1
323 1114 m 2
 323 535 l 2
 323 169 523 68 932 68 c 0
 1300 68 1541 156 1541 482 c 2
 1541 1165 l 2
 1541 1500 1275 1573 932 1573 c 0
 520 1573 323 1471 323 1114 c 2
932 -101 m 0
 421 -101 84 42 84 539 c 2
 84 1116 l 2
 84 1638 490 1749 932 1749 c 0
 1441 1749 1780 1610 1780 1116 c 2
 1780 539 l 2
 1780 14 1377 -101 932 -101 c 0
EndSplineSet
EndChar

StartChar: ring
Encoding: 372 730 282
Width: 805
VWidth: 0
GlyphClass: 2
Flags: HW
PickledData: "(dp1
S'com.fontlab.hintData'
p2
(dp3
S'vhints'
p4
((dp5
S'position'
p6
I72
sS'width'
p7
I210
s(dp8
g6
I524
sg7
I214
stp9
sS'hhints'
p10
((dp11
g6
I110
sg7
I199
s(dp12
g6
I552
sg7
I200
stp13
ss."
HStem: 110 199<369 436.5 369 498.5> 552 200<368 437>
VStem: 72 210<408 465 396 524.5> 524 214<396.5 452.5 336.5 464.5>
LayerCount: 2
Fore
SplineSet
403 552 m 0
 333 552 282 500 282 430 c 0
 282 362 335 309 403 309 c 0
 470 309 524 363 524 430 c 0
 524 499 471 552 403 552 c 0
738 430 m 0
 738 243 592 110 405 110 c 0
 252 110 146 197 98 305 c 0
 81 344 72 386 72 430 c 0
 72 619 216 752 405 752 c 0
 558 752 664 664 712 556 c 0
 729 517 738 475 738 430 c 0
EndSplineSet
EndChar

StartChar: s
Encoding: 105 115 283
Width: 1414
VWidth: 0
GlyphClass: 2
Flags: HW
PickledData: "(dp1
S'com.fontlab.hintData'
p2
(dp3
S'vhints'
p4
((dp5
S'position'
p6
I70
sS'width'
p7
I1308
stp8
sS'hhints'
p9
((dp10
g6
I-27
sg7
I260
s(dp11
g6
I1063
sg7
I264
stp12
ssS'com.typemytype.robofont.layerData'
p13
(dp14
s."
HStem: -27 260 1063 264<625 792 625 625>
VStem: 70 1308
LayerCount: 2
Fore
SplineSet
792 446 m 1
 793 446 l 1
 788 452 773 457 749 460 c 0
 638 475 511 488 407 517 c 0
 220 569 55 685 55 900 c 0
 55 1266 352 1327 724 1327 c 0
 997 1327 1332 1309 1332 956 c 0
 1332 901 1332 887 1331 872 c 1
 792 902 l 1
 792 1063 l 1
 625 1063 l 1
 625 861 l 1
 631 855 646 850 670 846 c 0
 781 828 907 815 1012 786 c 0
 1192 736 1363 629 1363 420 c 0
 1363 6 1032 -30 695 -30 c 0
 343 -30 85 8 85 397 c 0
 85 408 85 420 86 432 c 1
 625 400 l 1
 625 233 l 1
 792 233 l 1
 792 446 l 1
EndSplineSet
EndChar

StartChar: section
Encoding: 124 167 289
Width: 1362
VWidth: 0
GlyphClass: 2
Flags: HW
PickledData: "(dp1
S'com.fontlab.hintData'
p2
(dp3
S'vhints'
p4
((dp5
S'position'
p6
I73
sS'width'
p7
I1221
stp8
sS'hhints'
p9
((dp10
g6
I-40
sg7
I275
s(dp11
g6
I487
sg7
I261
s(dp12
g6
I1497
sg7
I273
stp13
ss."
HStem: -40 275<637 710 637 833> 487 261<343 717 648 710> 1497 273<657 730 657 657>
VStem: 73 1221<669 1080.5>
LayerCount: 2
Fore
SplineSet
717 748 m 1
 717 971 l 1
 648 971 l 1
 648 748 l 1
 717 748 l 1
265 1046 m 1
 165 1093 88 1179 88 1329 c 0
 88 1727 364 1770 702 1770 c 0
 964 1770 1283 1749 1283 1411 c 0
 1283 1376 1282 1342 1282 1306 c 1
 730 1306 l 1
 730 1497 l 1
 657 1497 l 1
 657 1248 l 1
 675 1230 736 1233 776 1231 c 0
 965 1223 1294 1212 1294 949 c 0
 1294 820 1228 745 1142 705 c 0
 1123 696 1100 685 1083 685 c 1
 1099 677 1118 672 1137 660 c 0
 1217 612 1278 532 1278 401 c 0
 1278 3 1002 -40 664 -40 c 0
 401 -40 85 -18 85 321 c 0
 85 356 86 390 86 426 c 1
 637 426 l 1
 637 235 l 1
 710 235 l 1
 710 487 l 1
 455 487 l 2
 231 487 73 555 73 783 c 0
 73 919 150 1003 248 1039 c 0
 258 1043 264 1045 265 1046 c 1
EndSplineSet
EndChar

StartChar: semicolon
Encoding: 49 59 290
Width: 710
VWidth: 0
GlyphClass: 2
Flags: HW
PickledData: "(dp1
S'com.fontlab.hintData'
p2
(dp3
S'vhints'
p4
((dp5
S'position'
p6
I141
sS'width'
p7
I414
stp8
sS'hhints'
p9
((dp10
g6
I-120
sg7
I112
s(dp11
g6
I923
sg7
I420
stp12
ss."
HStem: -120 112<164 318.5> 923 420<294 396>
VStem: 141 414<258.5 347.5 191 389.5>
LayerCount: 2
Fore
SplineSet
141 1133 m 0
 141 1273 243 1343 345 1343 c 0
 447 1343 549 1273 549 1133 c 0
 549 993 447 923 345 923 c 0
 243 923 141 993 141 1133 c 0
141 323 m 0
 141 456 243 523 345 523 c 0
 489 523 555 412 555 283 c 0
 555 99 429 -120 208 -120 c 0
 194 -120 179 -119 164 -117 c 1
 164 -8 l 1
 244 -7 314 37 320 114 c 1
 227 124 141 194 141 323 c 0
EndSplineSet
EndChar

StartChar: seven
Encoding: 45 55 291
Width: 991
VWidth: 0
GlyphClass: 2
Flags: HW
PickledData: "(dp1
S'com.fontlab.hintData'
p2
(dp3
S'vhints'
p4
((dp5
S'position'
p6
I40
sS'width'
p7
I902
stp8
sS'hhints'
p9
((dp10
g6
I0
sg7
I21
s(dp11
g6
I1354
sg7
I241
stp12
ss."
HStem: 0 21<112 716 112 112> 1354 241<40 334 40 942>
VStem: 40 902<1354 1595 1351 1595>
LayerCount: 2
Fore
SplineSet
942 1595 m 1
 942 1351 l 1
 716 0 l 1
 112 0 l 1
 334 1354 l 1
 40 1354 l 1
 40 1595 l 1
 942 1595 l 1
EndSplineSet
EndChar

StartChar: six
Encoding: 44 54 292
Width: 1448
VWidth: 0
GlyphClass: 2
Flags: HW
PickledData: "(dp1
S'com.fontlab.hintData'
p2
(dp3
S'vhints'
p4
((dp5
S'position'
p6
I85
sS'width'
p7
I1297
stp8
sS'hhints'
p9
((dp10
g6
I-39
sg7
I275
s(dp11
g6
I798
sg7
I270
s(dp12
g6
I1369
sg7
I263
stp13
ss."
HStem: -39 275<636 718> 798 270<637 761 761 816 636 761> 1369 263<637 800 637 637>
VStem: 85 1297<476 732 292.5 1056 292.5 1276>
LayerCount: 2
Fore
SplineSet
718 -39 m 1
 312 -39 85 93 85 476 c 2
 85 1056 l 2
 85 1496 312 1632 717 1632 c 0
 966 1632 1329 1608 1329 1237 c 0
 1329 1208 1331 1183 1331 1158 c 1
 800 1158 l 1
 800 1369 l 1
 637 1369 l 1
 637 1068 l 1
 761 1068 l 2
 1223 1068 1382 941 1382 523 c 0
 1382 62 1130 -36 718 -39 c 1
636 236 m 1
 816 236 l 1
 816 798 l 1
 636 798 l 1
 636 236 l 1
EndSplineSet
EndChar

StartChar: slash
Encoding: 37 47 293
Width: 1056
VWidth: 0
GlyphClass: 2
Flags: HW
PickledData: "(dp1
S'com.fontlab.hintData'
p2
(dp3
S'vhints'
p4
((dp5
S'position'
p6
I136
sS'width'
p7
I786
stp8
sS'hhints'
p9
((dp10
g6
I0
sg7
I21
s(dp11
g6
I1575
sg7
I20
stp12
ss."
HStem: 0 21<136 136 136 571> 1575 20<488 922 922 922>
VStem: 136 786
LayerCount: 2
Fore
SplineSet
136 0 m 1
 488 1595 l 1
 922 1595 l 1
 571 0 l 1
 136 0 l 1
EndSplineSet
EndChar

StartChar: sterling
Encoding: 120 163 295
Width: 1598
VWidth: 0
GlyphClass: 2
Flags: HW
PickledData: "(dp1
S'com.fontlab.hintData'
p2
(dp3
S'vhints'
p4
((dp5
S'position'
p6
I74
sS'width'
p7
I1454
stp8
sS'hhints'
p9
((dp10
g6
I0
sg7
I21
s(dp11
g6
I0
sg7
I268
s(dp12
g6
I718
sg7
I222
s(dp13
g6
I1364
sg7
I268
stp14
ss."
HStem: 0 21<74 301 74 74 1034 1161> 0 268<819 1161> 718 222<819 1246 819 1246> 1364 268<819 926 819 819>
VStem: 74 1454<0 385 265 385>
LayerCount: 2
Fore
SplineSet
74 265 m 1
 76 266 l 1
 147 275 234 297 234 376 c 2
 234 719 l 1
 76 719 l 1
 76 941 l 1
 234 941 l 1
 234 1065 l 2
 234 1260 248 1417 346 1511 c 0
 458 1618 664 1632 893 1632 c 0
 1189 1632 1483 1593 1504 1331 c 0
 1506 1302 1507 1274 1507 1247 c 2
 1507 1070 l 1
 926 1070 l 1
 926 1364 l 1
 819 1364 l 1
 819 940 l 1
 1246 940 l 1
 1246 718 l 1
 819 718 l 1
 819 268 l 1
 947 268 l 1
 947 562 l 1
 1528 562 l 1
 1528 385 l 2
 1528 228 1498 126 1399 65 c 0
 1325 19 1225 0 1097 0 c 0
 971 0 877 29 819 91 c 0
 805 106 792 119 781 130 c 1
 725 71 676 33 579 16 c 0
 497 2 407 1 301 0 c 1
 74 0 l 1
 74 265 l 1
EndSplineSet
EndChar

StartChar: t
Encoding: 106 116 296
Width: 944
VWidth: 0
GlyphClass: 2
Flags: HW
PickledData: "(dp1
S'com.fontlab.hintData'
p2
(dp3
S'vhints'
p4
((dp5
S'position'
p6
I56
sS'width'
p7
I867
stp8
sS'hhints'
p9
((dp10
g6
I0
sg7
I21
s(dp11
g6
I1100
sg7
I200
s(dp12
g6
I1575
sg7
I20
stp13
ssS'com.typemytype.robofont.layerData'
p14
(dp15
s."
HStem: 0 21 1100 200<-6 131 -6 131 702 861> 1575 20<131 702 702 702>
VStem: 56 867
LayerCount: 2
Fore
SplineSet
906 -7 m 1
 905 -7 806 -25 695 -25 c 0
 286 -25 131 37 131 359 c 2
 131 1100 l 1
 -6 1100 l 1
 -6 1300 l 1
 131 1300 l 1
 131 1595 l 1
 702 1595 l 1
 702 1300 l 1
 861 1300 l 1
 861 1100 l 1
 702 1100 l 1
 702 328 l 2
 702 241 797 223 906 223 c 1
 906 -7 l 1
EndSplineSet
EndChar

StartChar: thorn
Encoding: 211 254 299
Width: 1430
VWidth: 0
GlyphClass: 2
Flags: HW
PickledData: "(dp1
S'com.fontlab.hintData'
p2
(dp3
S'vhints'
p4
((dp5
S'position'
p6
I104
sS'width'
p7
I1258
stp8
sS'hhints'
p9
((dp10
g6
I-409
sg7
I21
s(dp11
g6
I-24
sg7
I21
s(dp12
g6
I-24
sg7
I255
s(dp13
g6
I1069
sg7
I254
s(dp14
g6
I1303
sg7
I20
s(dp15
g6
I1582
sg7
I20
stp16
ss."
HStem: -409 21<104 675 104 104> -24 21<893 1010.5> -24 255<674 1010.5> 1069 254<674 1074 674 1074> 1303 20<883.5 1074> 1582 20<104 675 675 675>
VStem: 104 1258<309.5 390 390 908 309.5 1602 309.5 1602>
LayerCount: 2
Fore
SplineSet
674 231 m 1
 788 231 l 1
 788 1069 l 1
 674 1069 l 1
 674 231 l 1
675 1227 m 1
 714 1307 820 1323 948 1323 c 0
 1200 1323 1350 1231 1360 995 c 0
 1361 964 1362 935 1362 908 c 2
 1362 390 l 2
 1362 229 1334 116 1239 48 c 0
 1170 -2 1073 -24 948 -24 c 0
 838 -24 746 -13 701 44 c 0
 692 56 683 67 675 78 c 1
 675 -409 l 1
 104 -409 l 1
 104 1602 l 1
 675 1602 l 1
 675 1227 l 1
EndSplineSet
EndChar

StartChar: three
Encoding: 41 51 300
Width: 1436
VWidth: 0
GlyphClass: 2
Flags: HW
PickledData: "(dp1
S'com.fontlab.hintData'
p2
(dp3
S'vhints'
p4
((dp5
S'position'
p6
I540
sS'width'
p7
I87
stp8
sS'hhints'
p9
((dp10
g6
I-39
sg7
I274
s(dp11
g6
I707
sg7
I224
s(dp12
g6
I1361
sg7
I271
stp13
ss."
HStem: -39 274<627 799 627 913.5> 707 224<540 799 540 799> 1361 271<627 799 627 627>
VStem: 540 87
LayerCount: 2
Fore
SplineSet
714 1632 m 0
 1147 1632 1364 1506 1364 1113 c 0
 1364 965 1284 869 1163 820 c 1
 1299 770 1366 661 1366 522 c 0
 1366 79 1111 -39 716 -39 c 0
 270 -39 71 142 71 517 c 0
 71 548 72 580 75 613 c 1
 627 613 l 1
 627 235 l 1
 799 235 l 1
 799 707 l 1
 540 707 l 1
 540 931 l 1
 799 931 l 1
 799 1361 l 1
 627 1361 l 1
 627 1024 l 1
 75 1024 l 1
 73 1053 72 1081 72 1108 c 0
 72 1503 293 1632 714 1632 c 0
EndSplineSet
EndChar

StartChar: threequarters
Encoding: 147 190 301
Width: 2894
VWidth: 0
GlyphClass: 2
Flags: HW
PickledData: "(dp1
S'com.fontlab.hintData'
p2
(dp3
S'vhints'
p4
((dp5
S'position'
p6
I976
sS'width'
p7
I70
stp8
sS'hhints'
p9
((dp10
g6
I-110
sg7
I618
s(dp11
g6
I84
sg7
I288
s(dp12
g6
I289
sg7
I351
s(dp13
g6
I885
sg7
I180
s(dp14
g6
I1410
sg7
I218
stp15
ss."
HStem: -110 618 84 288 289 351 885 180 1410 218
VStem: 976 70
LayerCount: 2
Fore
SplineSet
1120 0 m 1
 1472 1595 l 1
 1906 1595 l 1
 1555 0 l 1
 1120 0 l 1
995 1175 m 0
 995 1067 940 999 857 963 c 1
 951 927 997 841 997 733 c 0
 997 487 862 394 566 394 c 0
 270 394 139 515 139 765 c 0
 139 785 140 805 142 826 c 1
 508 826 l 1
 508 576 l 1
 621 576 l 1
 621 889 l 1
 450 889 l 1
 450 1037 l 1
 621 1037 l 1
 621 1321 l 1
 508 1321 l 1
 508 1098 l 1
 142 1098 l 1
 140 1117 139 1135 139 1153 c 0
 139 1416 285 1499 565 1499 c 0
 835 1499 995 1422 995 1175 c 0
2828 130 m 1
 2469 130 l 1
 2469 291 l 1
 1953 291 l 1
 1953 571 l 1
 2123 1172 l 1
 2508 1172 l 1
 2339 571 l 1
 2339 535 l 1
 2469 535 l 1
 2469 760 l 1
 2828 760 l 1
 2828 130 l 1
EndSplineSet
EndChar

StartChar: tilde
Encoding: 374 732 302
Width: 1422
VWidth: 0
GlyphClass: 2
Flags: HW
PickledData: "(dp1
S'com.fontlab.hintData'
p2
(dp3
S'vhints'
p4
((dp5
S'position'
p6
I79
sS'width'
p7
I1280
stp8
sS'hhints'
p9
((dp10
g6
I70
sg7
I383
s(dp11
g6
I260
sg7
I386
stp12
ss."
HStem: 70 383<444 509 444 573.5> 260 386<934 997>
VStem: 79 1280<96 621>
LayerCount: 2
Fore
SplineSet
1359 96 m 1
 1066 96 l 1
 1066 178 1038 260 956 260 c 0
 912 260 881 233 853 211 c 0
 759 136 661 70 486 70 c 0
 250 70 151 176 106 376 c 1
 88 439 79 521 79 621 c 1
 375 621 l 1
 375 535 401 453 487 453 c 0
 531 453 565 481 595 503 c 0
 691 573 784 646 953 646 c 0
 1313 646 1359 444 1359 96 c 1
EndSplineSet
EndChar

StartChar: trademark
Encoding: 400 8482 303
Width: 1884
VWidth: 0
GlyphClass: 2
Flags: HW
PickledData: "(dp1
S'com.fontlab.hintData'
p2
(dp3
S'vhints'
p4
((dp5
S'position'
p6
I47
sS'width'
p7
I1744
stp8
sS'hhints'
p9
((dp10
g6
I1453
sg7
I142
stp11
ss."
HStem: 1453 142<47 209 47 745 582 745 582 582>
VStem: 47 1744<1453 1595 657 1595>
LayerCount: 2
Fore
SplineSet
1238 657 m 1
 1160 951 l 1
 1160 657 l 1
 789 657 l 1
 789 1595 l 1
 1223 1595 l 1
 1291 1158 l 1
 1351 1595 l 1
 1791 1595 l 1
 1791 657 l 1
 1421 657 l 1
 1421 951 l 1
 1342 657 l 1
 1238 657 l 1
745 1595 m 1
 745 1453 l 1
 582 1453 l 1
 582 657 l 1
 209 657 l 1
 209 1453 l 1
 47 1453 l 1
 47 1595 l 1
 745 1595 l 1
EndSplineSet
EndChar

StartChar: two
Encoding: 40 50 304
Width: 1403
VWidth: 0
GlyphClass: 2
Flags: HW
PickledData: "(dp1
S'com.fontlab.hintData'
p2
(dp3
S'vhints'
p4
((dp5
S'position'
p6
I76
sS'width'
p7
I1273
stp8
sS'hhints'
p9
((dp10
g6
I1
sg7
I300
s(dp11
g6
I1358
sg7
I275
stp12
ss."
HStem: 1 300<630 1277 630 1277> 1358 275<630 782 630 630>
VStem: 76 1273<1115 1312.5 950.5 1330>
LayerCount: 2
Fore
SplineSet
78 1064 m 1
 77 1087 76 1106 76 1124 c 0
 76 1536 347 1633 718 1633 c 0
 1139 1633 1349 1500 1349 1125 c 0
 1349 776 1076 650 858 545 c 0
 752 494 630 423 630 301 c 1
 1277 301 l 1
 1277 1 l 1
 78 1 l 1
 78 201 l 2
 78 599 289 758 573 890 c 1
 667 936 782 989 782 1086 c 2
 782 1358 l 1
 630 1358 l 1
 630 1064 l 1
 78 1064 l 1
EndSplineSet
EndChar

StartChar: u
Encoding: 107 117 305
Width: 1490
VWidth: 0
GlyphClass: 2
Flags: HW
PickledData: "(dp1
S'com.fontlab.hintData'
p2
(dp3
S'vhints'
p4
((dp5
S'position'
p6
I91
sS'width'
p7
I1310
stp8
sS'hhints'
p9
((dp10
g6
I-27
sg7
I260
s(dp11
g6
I0
sg7
I233
s(dp12
g6
I1280
sg7
I20
stp13
ssS'com.typemytype.robofont.layerData'
p14
(dp15
s."
HStem: -27 260 0 233<656 1394 656 877> 1280 20<84 656 656 656 822 1394 1394 1394>
VStem: 91 1310
LayerCount: 2
Fore
SplineSet
508 -30 m 0
 239 -30 84 96 84 360 c 2
 84 1300 l 1
 656 1300 l 1
 656 233 l 1
 822 233 l 1
 822 1300 l 1
 1394 1300 l 1
 1394 0 l 1
 877 0 l 1
 840 112 l 1
 786 24 646 -30 508 -30 c 0
EndSplineSet
EndChar

StartChar: underscore
Encoding: 85 95 313
Width: 1042
VWidth: 0
GlyphClass: 2
Flags: HW
PickledData: "(dp1
S'com.fontlab.hintData'
p2
(dp3
S'vhints'
p4
((dp5
S'position'
p6
I78
sS'width'
p7
I889
stp8
sS'hhints'
p9
((dp10
g6
I-435
sg7
I436
stp11
ss."
HStem: -435 436<78 967 78 967>
VStem: 78 889<-435 1 -435 1>
LayerCount: 2
Fore
SplineSet
967 1 m 1
 967 -435 l 1
 78 -435 l 1
 78 1 l 1
 967 1 l 1
EndSplineSet
EndChar

StartChar: uni00AD
Encoding: 130 173 314
Width: 1005
VWidth: 0
GlyphClass: 2
Flags: HW
PickledData: "(dp1
S'com.fontlab.hintData'
p2
(dp3
S'vhints'
p4
((dp5
S'position'
p6
I87
sS'width'
p7
I833
stp8
sS'hhints'
p9
((dp10
g6
I561
sg7
I336
stp11
ss."
HStem: 561 336<87 920 87 920>
VStem: 87 833<561 897 561 897>
LayerCount: 2
Fore
SplineSet
920 897 m 1
 920 561 l 1
 87 561 l 1
 87 897 l 1
 920 897 l 1
EndSplineSet
EndChar

StartChar: uni00B2
Encoding: 135 178 315
Width: 1090
VWidth: 0
GlyphClass: 2
Flags: HW
PickledData: "(dp1
S'com.fontlab.hintData'
p2
(dp3
S'vhints'
p4
((dp5
S'position'
p6
I188
sS'width'
p7
I838
stp8
sS'hhints'
p9
((dp10
g6
I134
sg7
I198
s(dp11
g6
I1030
sg7
I179
stp12
ss."
HStem: 134 198<553 986 553 986> 1030 179<553 653 553 553>
VStem: 188 838<871 1009 755 1013>
LayerCount: 2
Fore
SplineSet
189 836 m 1
 189 850 188 864 188 878 c 0
 188 1148 367 1209 610 1209 c 0
 872 1209 1026 1142 1026 876 c 0
 1026 634 868 548 703 474 c 0
 633 443 553 404 553 332 c 1
 986 332 l 1
 986 134 l 1
 189 134 l 1
 189 313 l 2
 189 575 323 690 517 768 c 0
 579 793 653 823 653 877 c 2
 653 1030 l 1
 553 1030 l 1
 553 836 l 1
 189 836 l 1
EndSplineSet
EndChar

StartChar: uni00B3
Encoding: 136 179 316
Width: 1101
VWidth: 0
GlyphClass: 2
Flags: HW
PickledData: "(dp1
S'com.fontlab.hintData'
p2
(dp3
S'vhints'
p4
((dp5
S'position'
p6
I491
sS'width'
p7
I58
stp8
sS'hhints'
p9
((dp10
g6
I100
sg7
I182
s(dp11
g6
I595
sg7
I148
s(dp12
g6
I1027
sg7
I178
stp13
ss."
HStem: 100 182<549 662 549 755> 595 148<491 662 491 662> 1027 178<549 662 549 549>
VStem: 491 58
LayerCount: 2
Fore
SplineSet
1036 881 m 0
 1036 773 981 705 898 669 c 1
 992 633 1038 547 1038 439 c 0
 1038 193 903 100 607 100 c 0
 311 100 180 221 180 471 c 0
 180 491 181 511 183 532 c 1
 549 532 l 1
 549 282 l 1
 662 282 l 1
 662 595 l 1
 491 595 l 1
 491 743 l 1
 662 743 l 1
 662 1027 l 1
 549 1027 l 1
 549 804 l 1
 183 804 l 1
 181 823 180 841 180 859 c 0
 180 1122 326 1205 606 1205 c 0
 876 1205 1036 1128 1036 881 c 0
EndSplineSet
EndChar

StartChar: uni00B9
Encoding: 142 185 318
Width: 731
VWidth: 0
GlyphClass: 2
Flags: HW
PickledData: "(dp1
S'com.fontlab.hintData'
p2
(dp3
S'vhints'
p4
((dp5
S'position'
p6
I115
sS'width'
p7
I539
stp8
sS'hhints'
p9
((dp10
g6
I130
sg7
I21
s(dp11
g6
I971
sg7
I144
s(dp12
g6
I971
sg7
I199
stp13
ss."
HStem: 130 21<259 654 259 259> 971 144<115 160 115 259 115 160> 971 199<115 654>
VStem: 115 539<971 1115 1115 1115>
LayerCount: 2
Fore
SplineSet
115 1115 m 1
 205 1115 285 1135 342 1170 c 1
 654 1170 l 1
 654 130 l 1
 259 130 l 1
 259 971 l 1
 115 971 l 1
 115 1115 l 1
EndSplineSet
EndChar

StartChar: uni0237
Encoding: 367 567 355
Width: 868
VWidth: 0
GlyphClass: 2
Flags: HW
PickledData: "(dp1
S'com.fontlab.hintData'
p2
(dp3
S'vhints'
p4
((dp5
S'position'
p6
I23
sS'width'
p7
I761
stp8
sS'hhints'
p9
((dp10
g6
I-326
sg7
I260
s(dp11
g6
I1280
sg7
I20
stp12
ss."
HStem: -326 260<23 471.5> 1280 20<212 784 784 784>
VStem: 23 761<-66 94>
LayerCount: 2
Fore
SplineSet
784 94 m 2
 784 -199 620 -326 323 -326 c 0
 214 -326 134 -321 53 -305 c 1
 23 -66 l 1
 212 -66 l 1
 212 1300 l 1
 784 1300 l 1
 784 94 l 2
EndSplineSet
EndChar

StartChar: uni0307
Encoding: 376 775 356
Width: 670
VWidth: 0
GlyphClass: 1
Flags: HW
PickledData: "(dp1
S'com.fontlab.hintData'
p2
(dp3
S'vhints'
p4
((dp5
S'position'
p6
I136
sS'width'
p7
I408
stp8
sS'hhints'
p9
((dp10
g6
I-39
sg7
I420
stp11
ss."
HStem: -39 420
VStem: 136 408<1356 1496>
LayerCount: 2
Fore
SplineSet
136 1426 m 0
 136 1566 238 1636 340 1636 c 0
 442 1636 544 1566 544 1426 c 0
 544 1286 442 1216 340 1216 c 0
 238 1216 136 1286 136 1426 c 0
EndSplineSet
EndChar

StartChar: uni030F
Encoding: 377 783 357
Width: 873
VWidth: 0
GlyphClass: 2
Flags: HW
PickledData: "(dp1
S'com.fontlab.hintData'
p2
(dp3
S'vhints'
p4
((dp5
S'position'
p6
I152
sS'width'
p7
I989
stp8
sS'hhints'
p9
((dp10
g6
I31
sg7
I848
stp11
ss."
HStem: 31 848
VStem: 152 989
LayerCount: 2
Fore
SplineSet
1519 1480 m 0
 1543 1459 1553 1438 1553 1420 c 0
 1553 1391 1525 1371 1490 1371 c 0
 1480 1371 1469 1372 1458 1376 c 0
 1253 1438 966 1510 862 1570 c 0
 781 1617 746 1687 746 1752 c 0
 746 1846 817 1930 920 1930 c 0
 958 1930 1000 1919 1045 1893 c 0
 1146 1835 1356 1629 1519 1480 c 0
828 1480 m 0
 852 1459 862 1438 862 1420 c 0
 862 1391 834 1371 799 1371 c 0
 789 1371 778 1372 767 1376 c 0
 562 1438 275 1510 171 1570 c 0
 90 1617 55 1687 55 1752 c 0
 55 1846 126 1930 229 1930 c 0
 267 1930 309 1919 354 1893 c 0
 455 1835 665 1629 828 1480 c 0
EndSplineSet
EndChar

StartChar: uni0311
Encoding: 378 785 358
Width: 1062
VWidth: 0
GlyphClass: 2
Flags: HW
PickledData: "(dp1
S'com.fontlab.hintData'
p2
(dp3
S'vhints'
p4
((dp5
S'position'
p6
I702
sS'width'
p7
I297
s(dp8
g6
I75
sg7
I924
s(dp9
g6
I75
sg7
I297
stp10
sS'hhints'
p11
((dp12
g6
I1576
sg7
I303
stp13
ss."
HStem: 1576 303<458.5 615.5>
VStem: 702 297<1398 1451.5> 75 924<1398 1539.5> 75 297<1398 1451.5 1398 1539.5>
LayerCount: 2
Fore
SplineSet
537 1879 m 0
 919 1879 999 1681 999 1398 c 1
 702 1398 l 1
 702 1505 694 1576 537 1576 c 0
 380 1576 372 1505 372 1398 c 1
 75 1398 l 1
 75 1681 155 1879 537 1879 c 0
EndSplineSet
EndChar

StartChar: uni0326
Encoding: 379 806 359
Width: 711
VWidth: 0
GlyphClass: 2
Flags: HW
PickledData: "(dp1
S'com.fontlab.hintData'
p2
(dp3
S'vhints'
p4
((dp5
S'position'
p6
I141
sS'width'
p7
I414
stp8
sS'hhints'
p9
((dp10
g6
I-234
sg7
I112
s(dp11
g6
I0
sg7
I21
stp12
ss."
HStem: -234 112<164 318.5> 0 21
VStem: 141 414<144.5 233.5 77 275.5>
LayerCount: 2
Fore
SplineSet
141 209 m 0
 141 342 243 409 345 409 c 0
 489 409 555 298 555 169 c 0
 555 -15 429 -234 208 -234 c 0
 194 -234 179 -233 164 -231 c 1
 164 -122 l 1
 244 -121 314 -77 320 0 c 1
 227 10 141 80 141 209 c 0
EndSplineSet
EndChar

StartChar: uni2074
Encoding: 398 8308 360
Width: 1298
VWidth: 0
GlyphClass: 2
Flags: HW
PickledData: "(dp1
S'com.fontlab.hintData'
p2
(dp3
S'vhints'
p4
((dp5
S'position'
p6
I190
sS'width'
p7
I1043
stp8
sS'hhints'
p9
((dp10
g6
I130
sg7
I21
s(dp11
g6
I322
sg7
I290
s(dp12
g6
I1390
sg7
I21
stp13
ss."
HStem: 130 21<737 1096 737 737> 322 290 1390 21
VStem: 190 1043
LayerCount: 2
Fore
SplineSet
1096 130 m 1
 737 130 l 1
 737 291 l 1
 221 291 l 1
 221 571 l 1
 391 1172 l 1
 776 1172 l 1
 607 571 l 1
 607 535 l 1
 737 535 l 1
 737 760 l 1
 1096 760 l 1
 1096 130 l 1
EndSplineSet
EndChar

StartChar: v
Encoding: 108 118 364
Width: 1335
VWidth: 0
GlyphClass: 2
Flags: HW
PickledData: "(dp1
S'com.fontlab.hintData'
p2
(dp3
S'vhints'
p4
((dp5
S'position'
p6
I4
sS'width'
p7
I1343
stp8
sS'hhints'
p9
((dp10
g6
I0
sg7
I340
s(dp11
g6
I1280
sg7
I20
stp12
ssS'com.typemytype.robofont.layerData'
p13
(dp14
s."
HStem: 0 340 1280 20<-9 542 542 542 793 1344 1344 1344>
VStem: 4 1343
LayerCount: 2
Fore
SplineSet
676 356 m 1
 689 356 l 1
 793 1300 l 1
 1344 1300 l 1
 1065 0 l 1
 271 0 l 1
 -9 1300 l 1
 542 1300 l 1
 676 356 l 1
EndSplineSet
EndChar

StartChar: w
Encoding: 109 119 365
Width: 2025
VWidth: 0
GlyphClass: 2
Flags: HW
PickledData: "(dp1
S'com.fontlab.hintData'
p2
(dp3
S'vhints'
p4
((dp5
S'position'
p6
I32
sS'width'
p7
I1999
stp8
sS'hhints'
p9
((dp10
g6
I0
sg7
I385
s(dp11
g6
I801
sg7
I499
s(dp12
g6
I1280
sg7
I20
stp13
ssS'com.typemytype.robofont.layerData'
p14
(dp15
s."
HStem: 0 385<630 644 630 923 1388 1402> 801 499<1006 1016 1006 1006> 1280 20<35 535 535 535 746 1291 1291 1291 1495 1990 1990 1990>
VStem: 32 1999
LayerCount: 2
Fore
SplineSet
923 0 m 1
 233 0 l 1
 35 1300 l 1
 535 1300 l 1
 630 385 l 1
 644 385 l 1
 746 1300 l 1
 1291 1300 l 1
 1388 385 l 1
 1402 385 l 1
 1495 1300 l 1
 1990 1300 l 1
 1796 0 l 1
 1102 0 l 1
 1016 801 l 1
 1006 801 l 1
 923 0 l 1
EndSplineSet
EndChar

StartChar: x
Encoding: 110 120 366
Width: 1362
VWidth: 0
GlyphClass: 2
Flags: HW
PickledData: "(dp1
S'com.fontlab.hintData'
p2
(dp3
S'vhints'
p4
((dp5
S'position'
p6
I45
sS'width'
p7
I1316
stp8
sS'hhints'
p9
((dp10
g6
I0
sg7
I21
s(dp11
g6
I1280
sg7
I20
stp12
ssS'com.typemytype.robofont.layerData'
p13
(dp14
s."
HStem: 0 21<23 23 23 590 772 772 772 1339> 1280 20<23 595 595 595 768 1339 1339 1339>
VStem: 45 1316
LayerCount: 2
Fore
SplineSet
23 0 m 1
 396 652 l 1
 23 1300 l 1
 595 1300 l 1
 681 1049 l 1
 768 1300 l 1
 1339 1300 l 1
 966 652 l 1
 1339 0 l 1
 772 0 l 1
 681 258 l 1
 590 0 l 1
 23 0 l 1
EndSplineSet
EndChar

StartChar: y
Encoding: 111 121 367
Width: 1337
VWidth: 0
GlyphClass: 2
Flags: HW
PickledData: "(dp1
S'com.fontlab.hintData'
p2
(dp3
S'vhints'
p4
((dp5
S'position'
p6
I4
sS'width'
p7
I1343
stp8
sS'hhints'
p9
((dp10
g6
I0
sg7
I340
s(dp11
g6
I1280
sg7
I20
stp12
ssS'com.typemytype.robofont.layerData'
p13
(dp14
S'back'
p15
(dp16
S'name'
p17
S'y'
sS'lib'
p18
(dp19
g2
(dp20
g4
((dp21
g6
I4
sg7
I1343
stp22
sg9
((dp23
g6
I0
sg7
I340
s(dp24
g6
I1280
sg7
I20
stp25
sssS'unicodes'
p26
(tsg7
I1337
sS'contours'
p27
((dp28
S'points'
p29
((dp30
S'y'
F-476
sS'x'
F253
sS'smooth'
p31
I00
s(dp32
S'y'
F-501
sS'x'
F389
sg31
I00
s(dp33
S'segmentType'
p34
S'curve'
p35
sS'x'
F507
sg31
I01
sS'y'
F-501
s(dp36
S'y'
F-501
sS'x'
F761
sg31
I00
s(dp37
S'y'
F-429
sS'x'
F979
sg31
I00
s(dp38
g34
S'curve'
p39
sS'x'
F1032
sg31
I01
sS'y'
F-116
s(dp40
g34
S'line'
p41
sS'x'
F1068
sg31
I00
sS'y'
F63
s(dp42
g34
S'line'
p43
sS'x'
F1329
sg31
I00
sS'y'
F1300
s(dp44
g34
S'line'
p45
sS'x'
F791
sg31
I00
sS'y'
F1300
s(dp46
g34
S'line'
p47
sS'x'
F687
sg31
I00
sS'y'
F356
s(dp48
g34
S'line'
p49
sS'x'
F674
sg31
I00
sS'y'
F356
s(dp50
g34
S'line'
p51
sS'x'
F509
sg31
I00
sS'y'
F1300
s(dp52
g34
S'line'
p53
sS'x'
F-14
sg31
I00
sS'y'
F1300
s(dp54
g34
S'line'
p55
sS'x'
F311
sg31
I00
sS'y'
F0
s(dp56
g34
S'line'
p57
sS'x'
F627
sg31
I00
sS'y'
F0
s(dp58
g34
S'line'
p59
sS'x'
F607
sg31
I00
sS'y'
F-158
s(dp60
S'y'
F-210
sS'x'
F470
sg31
I00
s(dp61
S'y'
F-169
sS'x'
F281
sg31
I00
s(dp62
g34
S'curve'
p63
sS'x'
F154
sg31
I00
sS'y'
F-143
s(dp64
g34
S'line'
p65
sS'x'
F111
sg31
I00
sS'y'
F-448
stp66
stp67
sS'components'
p68
(tsS'anchors'
p69
(tsss."
HStem: 0 340 1280 20<-5 522 -5 -5 804 1338 804 804>
VStem: 4 1343
LayerCount: 2
Fore
SplineSet
488 -411 m 0
 742 -411 944 -324 1028 -3 c 1
 1338 1300 l 1
 804 1300 l 1
 700 376 l 1
 692 376 l 1
 522 1300 l 1
 -5 1300 l 1
 366 41 l 2
 372 21 375 4 375 -10 c 0
 375 -59 342 -77 287 -77 c 0
 231 -77 153 -58 65 -33 c 1
 22 -344 l 1
 150 -381 370 -411 488 -411 c 0
EndSplineSet
EndChar

StartChar: yen
Encoding: 122 165 370
Width: 1571
VWidth: 0
GlyphClass: 2
Flags: HW
PickledData: "(dp1
S'com.fontlab.hintData'
p2
(dp3
S'vhints'
p4
((dp5
S'position'
p6
I32
sS'width'
p7
I1492
stp8
sS'hhints'
p9
((dp10
g6
I0
sg7
I442
s(dp11
g6
I299
sg7
I143
s(dp12
g6
I585
sg7
I143
s(dp13
g6
I1575
sg7
I20
stp14
ss."
HStem: 0 442<477 1082 477 477> 299 143<127 1425 127 1425> 585 143<127 1425 127 1425> 1575 20<32 592 592 592 968 1524 1524 1524>
VStem: 32 1492<1595 1595>
LayerCount: 2
Fore
SplineSet
746 1021 m 1
 763 815 l 1
 792 815 l 1
 809 1021 l 1
 968 1595 l 1
 1524 1595 l 1
 1190 728 l 1
 1425 728 l 1
 1425 585 l 1
 1134 585 l 1
 1082 449 l 1
 1082 442 l 1
 1425 442 l 1
 1425 299 l 1
 1082 299 l 1
 1082 0 l 1
 477 0 l 1
 477 299 l 1
 127 299 l 1
 127 442 l 1
 477 442 l 1
 477 459 l 1
 428 585 l 1
 127 585 l 1
 127 728 l 1
 372 728 l 1
 32 1595 l 1
 592 1595 l 1
 746 1021 l 1
EndSplineSet
EndChar

StartChar: z
Encoding: 112 122 371
Width: 1080
VWidth: 0
GlyphClass: 2
Flags: HW
PickledData: "(dp1
S'com.fontlab.hintData'
p2
(dp3
S'vhints'
p4
((dp5
S'position'
p6
I76
sS'width'
p7
I983
stp8
sS'hhints'
p9
((dp10
g6
I0
sg7
I246
s(dp11
g6
I1051
sg7
I249
stp12
ssS'com.typemytype.robofont.layerData'
p13
(dp14
s."
HStem: 0 246<682 1038> 1051 249<88 422 88 88>
VStem: 76 983
LayerCount: 2
Fore
SplineSet
77 1300 m 1
 1015 1300 l 1
 1038 1079 l 1
 682 246 l 1
 1053 246 l 1
 1038 0 l 1
 81 0 l 1
 57 233 l 1
 422 1051 l 1
 88 1051 l 1
 77 1300 l 1
EndSplineSet
EndChar

StartChar: zero
Encoding: 38 48 375
Width: 1469
VWidth: 0
GlyphClass: 2
Flags: HW
PickledData: "(dp1
S'com.fontlab.hintData'
p2
(dp3
S'vhints'
p4
((dp5
S'position'
p6
I89
sS'width'
p7
I1294
stp8
sS'hhints'
p9
((dp10
g6
I-39
sg7
I272
s(dp11
g6
I1359
sg7
I274
stp12
ss."
HStem: -39 272<653 819 653 895> 1359 274<653 819 653 653>
VStem: 89 1294<352 1242 163.5 1426>
LayerCount: 2
Fore
SplineSet
739 -39 m 0
 422 -39 89 -14 89 352 c 2
 89 1242 l 2
 89 1610 429 1633 738 1633 c 0
 1056 1633 1383 1603 1383 1242 c 2
 1383 352 l 2
 1383 -25 1051 -39 739 -39 c 0
653 233 m 1
 819 233 l 1
 819 1359 l 1
 653 1359 l 1
 653 233 l 1
EndSplineSet
EndChar

StartChar: periodcentered
Encoding: 140 183 376
Width: 670
VWidth: 0
Flags: HW
HStem: -39 420<289 391>
VStem: 136 408<101 241>
LayerCount: 2
Fore
SplineSet
136 1116 m 0
 136 1256 238 1326 340 1326 c 0
 442 1326 544 1256 544 1116 c 0
 544 976 442 906 340 906 c 0
 238 906 136 976 136 1116 c 0
EndSplineSet
EndChar

